<svg xmlns="http://www.w3.org/2000/svg" width="107" height="36" fill="none"><mask id="a" width="107" height="36" x="0" y="0" maskUnits="userSpaceOnUse" style="mask-type:alpha"><path fill="red" d="M0 12C0 5.373 5.072 0 11.328 0h83.355c6.256 0 11.328 5.373 11.328 12v24H0V12Z"/></mask><g mask="url(#a)"><mask id="b" width="332" height="190" x="-8" y="0" maskUnits="userSpaceOnUse" style="mask-type:alpha"><path fill="red" fill-rule="evenodd" d="M11.375 0C5.12 0 .047 5.373.047 12v23.665C-4.377 37.298-7.552 41.757-7.552 47v131c0 6.627 5.072 12 11.328 12h308.688c6.256 0 11.328-5.373 11.328-12V47c0-4.92-2.794-9.148-6.794-11h1.083V12c0-6.627-5.072-12-11.328-12h-83.355c-6.256 0-11.328 5.373-11.328 12 0-6.627-5.072-12-11.328-12h-83.355c-6.256 0-11.328 5.373-11.328 12 0-6.627-5.072-12-11.328-12H11.375Z" clip-rule="evenodd"/></mask><g mask="url(#b)"><path fill="#B4B4B4" d="M326.687-.26H-8.465v215.22h335.152V-.26Z"/><path fill="#A7A7A7" d="M24.162 6.344-7.672 3.458l-16.872 207.89 31.834 2.886L24.162 6.344Z"/><path fill="#A5A5A5" d="M109.005 2.494H75.528v218.961h33.477V2.494Z"/><path fill="#B7B7B7" d="M75.245 1.925 42.497 3.92l11.799 216.126 32.748-1.997-11.8-216.126Z"/><path fill="#ADADAD" d="m141.349 12.172-32.948-2.987-16.768 206.617 32.948 2.987 16.768-206.617Z"/><path fill="#000" fill-opacity=".03" d="M.764 1.217c-.836.192-.881-.135-.881-6.322v-5.748h1.363l-.092 11.98-.39.09ZM13.108-10.853v136h1.526v-136h-1.526ZM19.212-10.853v6.313c0 5.374.04 6.38.266 6.749.338.549.655.549.994 0 .226-.369.266-1.375.266-6.749v-6.313h-1.526ZM25.655-10.853v1.339c0 1.925-.452 5.861-.95 8.267-.234 1.138-1.062 4.431-1.837 7.317-2.181 8.113-2.806 12.045-2.806 17.643 0 5.303.529 8.813 2.657 17.628.694 2.878 1.527 6.462 1.85 7.964 1.083 5.053 1.086 5.115 1.086 28.8 0 19.43.053 22.1-.67 24.508-.172.574-.388 1.132-.66 1.899-1.25 3.53-1.47 4.823-1.458 8.581.011 3.501.104 4.027 1.663 9.434l.756 2.62h4.496l-2.947-.072-1.112-3.856c-1.377-4.776-1.67-6.511-1.536-9.1.127-2.439.421-3.796 1.383-6.369.42-1.124.935-2.814 1.145-3.754.38-1.709.38-1.727.433-22.92.035-14.61-.008-21.894-.139-23.412-.318-3.69-.798-6.27-2.4-12.913-2.788-11.566-3.022-13.045-3.03-19.176-.01-5.626.447-8.468 2.719-16.928 1.974-7.35 2.53-10.403 2.797-15.367l.115-2.133h-1.555ZM31.759-10.853l.002 6.677c.001 3.674.049 6.96.105 7.303.122.737.807 1.098 1.167.613.21-.285.252-1.495.252-7.467v-7.126h-1.526ZM45.323-10.853v136h1.356v-136h-1.356ZM57.53-10.853v5.351c0 5.804.103 6.766.725 6.766.76 0 .801-.322.801-6.39v-5.727H57.53ZM59.03 125.147l.072-14.326c.08-15.596.093-15.878 1.145-23.344 1.356-9.63 1.608-13.297 1.604-23.412-.003-9.42-.075-10.59-1.367-22.002-1.24-10.945-1.289-11.708-1.405-21.902-.098-8.479-.135-9.363-.404-9.639-.216-.22-.377-.22-.593 0-.272.278-.302 1.082-.347 9.227-.057 10.006-.019 10.682 1.234 22.005 1.38 12.47 1.727 18.306 1.536 25.754-.176 6.846-.553 11.237-1.639 19.128-1.12 8.136-1.184 9.368-1.286 24.736l-.092 13.775h1.542ZM40.499 125.147c-.385-.062-.41-.183-.354-.416.327-1.371 1.27-8.276 1.439-10.536.236-3.157.247-9.856.021-12.67-.206-2.567-.538-5.137-1.197-9.258-1-6.256-1.02-6.947-1.02-35.736 0-20.038-.047-26.313-.203-26.566-.311-.506-.95-.393-1.147.202-.232.705-.233 48.763-.002 53.316.2 3.902.46 6.251 1.26 11.367.86 5.487 1.169 9.801 1.053 14.663-.109 4.539-.214 5.652-1.083 11.499l-.614 4.135h1.847Z"/><path fill="#000" fill-opacity=".03" d="M34.79 125.147c-.303-.073-.284-.227-.239-.554 1.025-7.364 1.296-9.715 1.3-11.282.008-2.435-.108-3.238-.845-5.864l-.62-2.204-.1-29.334c-.09-25.95-.134-29.573-.383-31.4-.448-3.28-.552-9.525-.213-12.76 1.076-10.247.322-17.736-2.198-21.856-3.861-6.31-8.32 3.072-7.677 16.152.235 4.771 1.222 8.948 2.672 11.303 1.183 1.922 2.88 2.498 3.157 1.074.146-.747-.17-1.29-.95-1.631-.964-.422-1.606-1.455-2.278-3.665-1.898-6.239-1.565-16.132.708-21.051 1.833-3.97 4.405-.898 5.327 6.363.433 3.406.406 6.526-.1 11.526-.542 5.378-.542 8.679.001 14.662l.424 4.663.004 27.426c.002 17.891.065 27.857.18 28.666.096.682.453 2.231.793 3.443.941 3.353.875 4.8-.725 15.775-.048.329-.07.485-.525.548h2.286ZM37.97 7.809c-.171-1.035-.12-13.893.058-14.652.18-.768.793-.967 1.157-.376.148.24.203 2.361.203 7.816 0 6.289-.04 7.54-.252 7.826-.36.484-1.045.124-1.167-.614ZM52.06 13.246c.055-15.84.104-18.826.313-19.35.282-.704.552-.777.984-.264.282.336.295 1.401.228 18.661-.08 20.29-.097 20.672-1.376 31.527-1.152 9.775-1.456 14.202-1.459 21.248-.002 6.795.234 10.552 1.538 24.475 1.068 11.406 1.58 20.328 1.277 22.288-.1.642-.19.733-.659.659-.488-.077-.555-.197-.662-1.187-.066-.606-.125-2.279-.13-3.719-.015-3.201-.305-7.295-1.28-18.04-1.331-14.665-1.612-19.018-1.61-24.928.003-5.566.54-12.963 1.539-21.21.438-3.617.72-5.87.904-8.134.346-4.259.346-8.55.393-22.026ZM7.343 3.113c0-4.95.066-8.146.176-8.478.196-.595.835-.708 1.147-.202.149.243.203 2.548.203 8.657 0 7.202-.036 8.385-.266 8.76-.369.597-.685.54-.996-.18-.224-.52-.264-1.812-.264-8.557ZM65.16 15.139c0-17.469.03-19.667.267-20.053.349-.566.511-.546.92.119.333.54.34.918.34 19.676 0 11.76-.065 19.397-.166 19.831-.18.768-.793.967-1.157.376-.155-.25-.204-5.057-.204-19.95ZM-.067 13.273c-.095-5.385-.082-5.782.21-6.129.893-1.06 1.04-.375 1.17 5.413.144 6.437.395 9.697 1.532 19.97C4.055 43.466 4.2 45.68 4.188 53.185c-.013 8.012-.292 11.608-1.65 21.209-.32 2.272-.667 4.937-.768 5.922-.218 2.11-.53 9.651-.53 12.843-.001 2.604-.209 3.168-.961 2.611l-.442-.327.091-6.255c.1-6.82.303-9.276 1.4-16.847.993-6.868 1.286-10.65 1.385-17.917.106-7.75-.066-10.58-1.31-21.545C.26 22.807.053 20.044-.067 13.273ZM37.862 18.954c0-2.99.056-3.925.264-4.407.145-.337.403-.613.573-.613.62 0 .7.606.651 4.962-.044 3.965-.067 4.222-.416 4.597-.332.358-.404.34-.72-.173-.322-.523-.352-.894-.352-4.366Z"/><path fill="#000" fill-opacity=".03" fill-rule="evenodd" d="M27.252 25.779c-.412-3.197-.017-6.9.893-8.378.899-1.46 1.998-.624 2.601 1.98.308 1.33.355 2.008.299 4.332-.085 3.493-.494 5.183-1.407 5.802-1.164.79-1.964-.463-2.386-3.736Zm1.948 1.254c.279-.28.573-3.054.487-4.597-.045-.813-.195-1.912-.332-2.442l-.25-.964-.232.689c-.362 1.082-.429 5.166-.104 6.428.148.577.342.975.431.886Z" clip-rule="evenodd"/><path fill="#000" fill-opacity=".03" d="M7.343 54.896c0-23.177.057-34.56.176-34.92.196-.595.835-.708 1.147-.202.156.254.203 8.424.203 35.099 0 31.24-.027 34.813-.266 35.201-.369.599-.685.542-.996-.18-.235-.545-.264-4.321-.264-34.998ZM-3.159 37.072c.11-.985.308-2.07.439-2.41.273-.715.54-.778.996-.237.314.373.315.454.034 2.835-.16 1.347-.635 4.227-1.057 6.399-.422 2.172-.88 5.003-1.018 6.291-.447 4.158-.279 11.281.362 15.328.337 2.134.891 4.02 1.18 4.02.419 0 1.044-2.538 1.435-5.82.277-2.322.477-8.446.345-10.569l-.12-1.928-.453 1.515c-.25.834-.455 1.831-.456 2.218 0 .386-.093.85-.205 1.032-.302.49-.949.4-1.132-.157-.335-1.017.373-4.56 1.206-6.04.428-.757 1.118-1.018 1.719-.647.748.462.954 1.71.954 5.778 0 10.066-1.363 17.097-3.314 17.097-1.482 0-2.693-4.564-3.143-11.844-.365-5.91-.035-10.336 1.286-17.215.407-2.12.831-4.662.942-5.646ZM91.826 125.147v-136h-1.357v136h1.357ZM70.462-10.853V4.076c0 9.075.066 15.272.166 15.7.18.768.793.967 1.157.376.153-.25.203-4.113.203-15.7v-15.305h-1.526ZM78.118-10.853l-.072 14.327c-.078 15.595-.092 15.878-1.144 23.343-1.356 9.632-1.608 13.298-1.605 23.413.003 9.42.076 10.59 1.368 22.001 1.24 10.946 1.289 11.709 1.405 21.902.097 8.479.134 9.364.404 9.639.216.221.377.221.593 0 .27-.278.3-1.081.347-9.226.056-10.006.018-10.683-1.235-22.005-1.379-12.47-1.727-18.306-1.535-25.754.176-6.846.552-11.238 1.638-19.128 1.12-8.136 1.185-9.369 1.287-24.736l.092-13.776h-1.543ZM96.65-10.853c.385.063.41.184.354.417C96.677-9.065 95.734-2.16 95.565.1c-.236 3.156-.247 9.856-.022 12.67.207 2.567.54 5.137 1.197 9.258 1.001 6.255 1.02 6.947 1.02 35.736 0 20.038.048 26.313.204 26.565.311.507.95.394 1.147-.202.232-.704.234-48.763.002-53.316-.2-3.902-.46-6.25-1.26-11.366-.86-5.487-1.17-9.801-1.052-14.663.108-4.54.213-5.653 1.082-11.5l.614-4.135H96.65ZM102.359-10.853c.303.073.284.228.239.555-1.025 7.364-1.296 9.715-1.301 11.282-.007 2.434.109 3.238.846 5.864l.619 2.203.101 29.335c.089 25.95.133 29.573.384 31.4.447 3.28.551 9.525.211 12.76-1.074 10.247-.321 17.736 2.2 21.856 3.86 6.31 8.319-3.072 7.675-16.153-.234-4.77-1.221-8.947-2.671-11.302-1.183-1.922-2.88-2.499-3.158-1.074-.145.747.171 1.29.951 1.63.963.422 1.605 1.455 2.277 3.665 1.898 6.24 1.566 16.132-.707 21.052-1.834 3.969-4.405.898-5.327-6.363-.433-3.407-.406-6.527.099-11.527.543-5.377.543-8.678 0-14.662l-.424-4.662-.004-27.427c-.003-17.89-.065-27.857-.179-28.665-.098-.682-.454-2.231-.794-3.443-.941-3.353-.874-4.8.725-15.775.048-.33.071-.486.526-.549h-2.288ZM85.089 101.049c-.055 15.839-.104 18.825-.314 19.349-.281.705-.551.778-.984.264-.282-.335-.295-1.401-.227-18.661.08-20.29.096-20.671 1.375-31.526 1.153-9.775 1.457-14.203 1.46-21.249.002-6.794-.234-10.55-1.538-24.474-1.069-11.406-1.58-20.328-1.277-22.288.099-.642.19-.733.659-.66.488.077.555.198.662 1.188.066.606.124 2.279.13 3.718.015 3.201.305 7.295 1.28 18.042 1.33 14.663 1.612 19.017 1.61 24.927-.004 5.566-.54 12.962-1.54 21.209-.437 3.617-.72 5.871-.903 8.134-.346 4.26-.346 8.55-.393 22.027ZM71.785 26.597c.294.478.294 39.626 0 40.104-.364.591-.978.392-1.157-.376-.102-.434-.166-8.05-.166-19.77 0-16.809.032-19.137.264-19.676.29-.674.744-.794 1.059-.282Z"/><path fill="#000" fill-opacity=".03" fill-rule="evenodd" d="M84.198 54.58c-.268 5.467-.772 8.511-1.66 10.042-.999 1.72-2.258.58-2.9-2.625-.533-2.673-.71-4.68-.816-9.288-.27-11.71 1.568-19.374 3.743-15.613 1.279 2.21 2.002 9.957 1.633 17.484Zm-3.744-9.997c-.45 4.666-.134 13.32.618 17 .41 2.005.68 1.699 1.148-1.306.96-6.168.772-15.932-.407-20.967-.35-1.492-.923.735-1.36 5.273Z" clip-rule="evenodd"/><path fill="#F5943E" d="M326.696-.26H-8.456v205.712h335.152V-.261Z" style="mix-blend-mode:multiply"/></g></g></svg>