<svg width="512" height="414" viewBox="0 0 512 414" fill="none" xmlns="http://www.w3.org/2000/svg">
<path d="M0 413.023H256H512V0C512 0 496.004 10 480 10C463.996 10 464.004 0 448 0C431.996 0 432.004 10 416 10C399.996 10 400.004 0 384 0C367.996 0 368.004 10 352 10C335.996 10 336.004 0 320 0C303.996 0 304.004 10 288 10C271.996 10 269.093 0 256 0C242.907 0 240.004 10 224 10C207.996 10 208.004 0 192 0C175.996 0 176.004 10 160 10C143.996 10 144.004 0 128 0C111.996 0 112.004 10 96 10C79.9963 10 80.0037 0 64 0C47.9963 0 48.0037 10 32 10C15.9963 10 0 0 0 0V413.023Z" fill="#D9D9D9"/>
<path d="M0 413.023H256H512V0C512 0 496.004 10 480 10C463.996 10 464.004 0 448 0C431.996 0 432.004 10 416 10C399.996 10 400.004 0 384 0C367.996 0 368.004 10 352 10C335.996 10 336.004 0 320 0C303.996 0 304.004 10 288 10C271.996 10 269.093 0 256 0C242.907 0 240.004 10 224 10C207.996 10 208.004 0 192 0C175.996 0 176.004 10 160 10C143.996 10 144.004 0 128 0C111.996 0 112.004 10 96 10C79.9963 10 80.0037 0 64 0C47.9963 0 48.0037 10 32 10C15.9963 10 0 0 0 0V413.023Z" fill="url(#paint0_linear_1_13)"/>
<path d="M0 413.023H256H512V0C512 0 496.004 10 480 10C463.996 10 464.004 0 448 0C431.996 0 432.004 10 416 10C399.996 10 400.004 0 384 0C367.996 0 368.004 10 352 10C335.996 10 336.004 0 320 0C303.996 0 304.004 10 288 10C271.996 10 269.093 0 256 0C242.907 0 240.004 10 224 10C207.996 10 208.004 0 192 0C175.996 0 176.004 10 160 10C143.996 10 144.004 0 128 0C111.996 0 112.004 10 96 10C79.9963 10 80.0037 0 64 0C47.9963 0 48.0037 10 32 10C15.9963 10 0 0 0 0V413.023Z" fill="url(#paint1_linear_1_13)"/>
<defs>
<linearGradient id="paint0_linear_1_13" x1="256" y1="0" x2="256" y2="100" gradientUnits="userSpaceOnUse">
<stop stop-color="#8700EC"/>
<stop offset="1" stop-color="#6907B3"/>
</linearGradient>
<linearGradient id="paint1_linear_1_13" x1="256" y1="0" x2="256" y2="100" gradientUnits="userSpaceOnUse">
<stop stop-color="#E0BC00"/>
<stop offset="1" stop-color="#DEA000"/>
</linearGradient>
</defs>
</svg>
