<svg width="512" height="411" viewBox="0 0 512 411" fill="none" xmlns="http://www.w3.org/2000/svg">
<path d="M0 410.023H256H512V0.0229492C512 0.0229492 496.004 10.0224 480 10.0224C463.996 10.0224 464.004 0.0229492 448 0.0229492C431.996 0.0229492 432.004 10.0224 416 10.0224C399.996 10.0224 400.004 0.0229492 384 0.0229492C367.996 0.0229492 368.004 10.0224 352 10.0224C335.996 10.0224 336.004 0.0229492 320 0.0229492C303.996 0.0229492 304.004 10.0224 288 10.0224C271.996 10.0224 269.093 0.0229492 256 0.0229492C242.907 0.0229492 240.004 10.0224 224 10.0224C207.996 10.0224 208.004 0.0229492 192 0.0229492C175.996 0.0229492 176.004 10.0224 160 10.0224C143.996 10.0224 144.004 0.0229492 128 0.0229492C111.996 0.0229492 112.004 10.0224 96 10.0224C79.9963 10.0224 80.0037 0.0229492 64 0.0229492C47.9963 0.0229492 48.0037 10.0224 32 10.0224C15.9963 10.0224 0 0.0229492 0 0.0229492V410.023Z" fill="#D9D9D9"/>
<path d="M0 410.023H256H512V0.0229492C512 0.0229492 496.004 10.0224 480 10.0224C463.996 10.0224 464.004 0.0229492 448 0.0229492C431.996 0.0229492 432.004 10.0224 416 10.0224C399.996 10.0224 400.004 0.0229492 384 0.0229492C367.996 0.0229492 368.004 10.0224 352 10.0224C335.996 10.0224 336.004 0.0229492 320 0.0229492C303.996 0.0229492 304.004 10.0224 288 10.0224C271.996 10.0224 269.093 0.0229492 256 0.0229492C242.907 0.0229492 240.004 10.0224 224 10.0224C207.996 10.0224 208.004 0.0229492 192 0.0229492C175.996 0.0229492 176.004 10.0224 160 10.0224C143.996 10.0224 144.004 0.0229492 128 0.0229492C111.996 0.0229492 112.004 10.0224 96 10.0224C79.9963 10.0224 80.0037 0.0229492 64 0.0229492C47.9963 0.0229492 48.0037 10.0224 32 10.0224C15.9963 10.0224 0 0.0229492 0 0.0229492V410.023Z" fill="url(#paint0_linear_1_14)"/>
<path d="M0 410.023H256H512V0.0229492C512 0.0229492 496.004 10.0224 480 10.0224C463.996 10.0224 464.004 0.0229492 448 0.0229492C431.996 0.0229492 432.004 10.0224 416 10.0224C399.996 10.0224 400.004 0.0229492 384 0.0229492C367.996 0.0229492 368.004 10.0224 352 10.0224C335.996 10.0224 336.004 0.0229492 320 0.0229492C303.996 0.0229492 304.004 10.0224 288 10.0224C271.996 10.0224 269.093 0.0229492 256 0.0229492C242.907 0.0229492 240.004 10.0224 224 10.0224C207.996 10.0224 208.004 0.0229492 192 0.0229492C175.996 0.0229492 176.004 10.0224 160 10.0224C143.996 10.0224 144.004 0.0229492 128 0.0229492C111.996 0.0229492 112.004 10.0224 96 10.0224C79.9963 10.0224 80.0037 0.0229492 64 0.0229492C47.9963 0.0229492 48.0037 10.0224 32 10.0224C15.9963 10.0224 0 0.0229492 0 0.0229492V410.023Z" fill="url(#paint1_linear_1_14)"/>
<defs>
<linearGradient id="paint0_linear_1_14" x1="256" y1="0.0229492" x2="256" y2="100.017" gradientUnits="userSpaceOnUse">
<stop stop-color="#8700EC"/>
<stop offset="1" stop-color="#6907B3"/>
</linearGradient>
<linearGradient id="paint1_linear_1_14" x1="256" y1="0.0229492" x2="256" y2="100.017" gradientUnits="userSpaceOnUse">
<stop stop-color="#FFEE00"/>
<stop offset="1" stop-color="#FCA600"/>
</linearGradient>
</defs>
</svg>
