<svg width="16" height="14" viewBox="0 0 16 14" fill="none" xmlns="http://www.w3.org/2000/svg">
<g filter="url(#filter0_d_8408_1342)">
<path fill-rule="evenodd" clip-rule="evenodd" d="M5.71858 1H10.2814H10.2814H10.2814C10.9548 0.999993 11.5055 0.999987 11.9531 1.03351C12.4163 1.0682 12.8347 1.14221 13.2255 1.32471C13.837 1.61033 14.3342 2.06609 14.6458 2.62665C14.8449 2.98483 14.9256 3.36836 14.9634 3.79302C15 4.20328 15 4.70808 15 5.32532V5.32535V7.67465V7.67468C15 8.29192 15 8.79672 14.9634 9.20698C14.9256 9.63164 14.8449 10.0152 14.6458 10.3733C14.3342 10.9339 13.837 11.3897 13.2255 11.6753C12.8347 11.8578 12.4163 11.9318 11.9531 11.9665C11.5055 12 10.9548 12 10.2815 12H10.2814H5.71856H5.71853C5.04518 12 4.49448 12 4.04693 11.9665C3.58367 11.9318 3.16527 11.8578 2.77453 11.6753C2.163 11.3897 1.66582 10.9339 1.35423 10.3733C1.15514 10.0152 1.0744 9.63164 1.03655 9.20698C0.999985 8.79672 0.999992 8.29191 1 7.67465V7.67464V7.67463V5.32537V5.32536V5.32535C0.999992 4.70809 0.999985 4.20328 1.03655 3.79302C1.0744 3.36836 1.15514 2.98483 1.35423 2.62665C1.66582 2.06609 2.163 1.61033 2.77453 1.32471C3.16527 1.14221 3.58367 1.0682 4.04693 1.03351C4.49449 0.999987 5.04519 0.999993 5.71856 1H5.71857H5.71858ZM9.80907 6.80728C10.0636 6.66936 10.0636 6.33064 9.80907 6.19272L7.08432 4.71653C6.82592 4.57654 6.5 4.74793 6.5 5.02381V7.97619C6.5 8.25207 6.82592 8.42346 7.08432 8.28347L9.80907 6.80728ZM2.5 3.52083C2.5 3.2677 2.72386 3.0625 3 3.0625H3.5C3.77614 3.0625 4 3.2677 4 3.52083V3.97917C4 4.2323 3.77614 4.4375 3.5 4.4375H3C2.72386 4.4375 2.5 4.2323 2.5 3.97917V3.52083ZM12.5 3.0625C12.2239 3.0625 12 3.2677 12 3.52083V3.97917C12 4.2323 12.2239 4.4375 12.5 4.4375H13C13.2761 4.4375 13.5 4.2323 13.5 3.97917V3.52083C13.5 3.2677 13.2761 3.0625 13 3.0625H12.5ZM2.5 6.27083C2.5 6.0177 2.72386 5.8125 3 5.8125H3.5C3.77614 5.8125 4 6.0177 4 6.27083V6.72917C4 6.9823 3.77614 7.1875 3.5 7.1875H3C2.72386 7.1875 2.5 6.9823 2.5 6.72917V6.27083ZM12.5 5.8125C12.2239 5.8125 12 6.0177 12 6.27083V6.72917C12 6.9823 12.2239 7.1875 12.5 7.1875H13C13.2761 7.1875 13.5 6.9823 13.5 6.72917V6.27083C13.5 6.0177 13.2761 5.8125 13 5.8125H12.5ZM2.5 9.02083C2.5 8.7677 2.72386 8.5625 3 8.5625H3.5C3.77614 8.5625 4 8.7677 4 9.02083V9.47917C4 9.7323 3.77614 9.9375 3.5 9.9375H3C2.72386 9.9375 2.5 9.7323 2.5 9.47917V9.02083ZM12.5 8.5625C12.2239 8.5625 12 8.7677 12 9.02083V9.47917C12 9.7323 12.2239 9.9375 12.5 9.9375H13C13.2761 9.9375 13.5 9.7323 13.5 9.47917V9.02083C13.5 8.7677 13.2761 8.5625 13 8.5625H12.5Z" fill="white"/>
<path fill-rule="evenodd" clip-rule="evenodd" d="M5.71858 1H10.2814H10.2814H10.2814C10.9548 0.999993 11.5055 0.999987 11.9531 1.03351C12.4163 1.0682 12.8347 1.14221 13.2255 1.32471C13.837 1.61033 14.3342 2.06609 14.6458 2.62665C14.8449 2.98483 14.9256 3.36836 14.9634 3.79302C15 4.20328 15 4.70808 15 5.32532V5.32535V7.67465V7.67468C15 8.29192 15 8.79672 14.9634 9.20698C14.9256 9.63164 14.8449 10.0152 14.6458 10.3733C14.3342 10.9339 13.837 11.3897 13.2255 11.6753C12.8347 11.8578 12.4163 11.9318 11.9531 11.9665C11.5055 12 10.9548 12 10.2815 12H10.2814H5.71856H5.71853C5.04518 12 4.49448 12 4.04693 11.9665C3.58367 11.9318 3.16527 11.8578 2.77453 11.6753C2.163 11.3897 1.66582 10.9339 1.35423 10.3733C1.15514 10.0152 1.0744 9.63164 1.03655 9.20698C0.999985 8.79672 0.999992 8.29191 1 7.67465V7.67464V7.67463V5.32537V5.32536V5.32535C0.999992 4.70809 0.999985 4.20328 1.03655 3.79302C1.0744 3.36836 1.15514 2.98483 1.35423 2.62665C1.66582 2.06609 2.163 1.61033 2.77453 1.32471C3.16527 1.14221 3.58367 1.0682 4.04693 1.03351C4.49449 0.999987 5.04519 0.999993 5.71856 1H5.71857H5.71858ZM9.80907 6.80728C10.0636 6.66936 10.0636 6.33064 9.80907 6.19272L7.08432 4.71653C6.82592 4.57654 6.5 4.74793 6.5 5.02381V7.97619C6.5 8.25207 6.82592 8.42346 7.08432 8.28347L9.80907 6.80728ZM2.5 3.52083C2.5 3.2677 2.72386 3.0625 3 3.0625H3.5C3.77614 3.0625 4 3.2677 4 3.52083V3.97917C4 4.2323 3.77614 4.4375 3.5 4.4375H3C2.72386 4.4375 2.5 4.2323 2.5 3.97917V3.52083ZM12.5 3.0625C12.2239 3.0625 12 3.2677 12 3.52083V3.97917C12 4.2323 12.2239 4.4375 12.5 4.4375H13C13.2761 4.4375 13.5 4.2323 13.5 3.97917V3.52083C13.5 3.2677 13.2761 3.0625 13 3.0625H12.5ZM2.5 6.27083C2.5 6.0177 2.72386 5.8125 3 5.8125H3.5C3.77614 5.8125 4 6.0177 4 6.27083V6.72917C4 6.9823 3.77614 7.1875 3.5 7.1875H3C2.72386 7.1875 2.5 6.9823 2.5 6.72917V6.27083ZM12.5 5.8125C12.2239 5.8125 12 6.0177 12 6.27083V6.72917C12 6.9823 12.2239 7.1875 12.5 7.1875H13C13.2761 7.1875 13.5 6.9823 13.5 6.72917V6.27083C13.5 6.0177 13.2761 5.8125 13 5.8125H12.5ZM2.5 9.02083C2.5 8.7677 2.72386 8.5625 3 8.5625H3.5C3.77614 8.5625 4 8.7677 4 9.02083V9.47917C4 9.7323 3.77614 9.9375 3.5 9.9375H3C2.72386 9.9375 2.5 9.7323 2.5 9.47917V9.02083ZM12.5 8.5625C12.2239 8.5625 12 8.7677 12 9.02083V9.47917C12 9.7323 12.2239 9.9375 12.5 9.9375H13C13.2761 9.9375 13.5 9.7323 13.5 9.47917V9.02083C13.5 8.7677 13.2761 8.5625 13 8.5625H12.5Z" fill="url(#paint0_linear_8408_1342)"/>
<path fill-rule="evenodd" clip-rule="evenodd" d="M5.71858 1H10.2814H10.2814H10.2814C10.9548 0.999993 11.5055 0.999987 11.9531 1.03351C12.4163 1.0682 12.8347 1.14221 13.2255 1.32471C13.837 1.61033 14.3342 2.06609 14.6458 2.62665C14.8449 2.98483 14.9256 3.36836 14.9634 3.79302C15 4.20328 15 4.70808 15 5.32532V5.32535V7.67465V7.67468C15 8.29192 15 8.79672 14.9634 9.20698C14.9256 9.63164 14.8449 10.0152 14.6458 10.3733C14.3342 10.9339 13.837 11.3897 13.2255 11.6753C12.8347 11.8578 12.4163 11.9318 11.9531 11.9665C11.5055 12 10.9548 12 10.2815 12H10.2814H5.71856H5.71853C5.04518 12 4.49448 12 4.04693 11.9665C3.58367 11.9318 3.16527 11.8578 2.77453 11.6753C2.163 11.3897 1.66582 10.9339 1.35423 10.3733C1.15514 10.0152 1.0744 9.63164 1.03655 9.20698C0.999985 8.79672 0.999992 8.29191 1 7.67465V7.67464V7.67463V5.32537V5.32536V5.32535C0.999992 4.70809 0.999985 4.20328 1.03655 3.79302C1.0744 3.36836 1.15514 2.98483 1.35423 2.62665C1.66582 2.06609 2.163 1.61033 2.77453 1.32471C3.16527 1.14221 3.58367 1.0682 4.04693 1.03351C4.49449 0.999987 5.04519 0.999993 5.71856 1H5.71857H5.71858ZM9.80907 6.80728C10.0636 6.66936 10.0636 6.33064 9.80907 6.19272L7.08432 4.71653C6.82592 4.57654 6.5 4.74793 6.5 5.02381V7.97619C6.5 8.25207 6.82592 8.42346 7.08432 8.28347L9.80907 6.80728ZM2.5 3.52083C2.5 3.2677 2.72386 3.0625 3 3.0625H3.5C3.77614 3.0625 4 3.2677 4 3.52083V3.97917C4 4.2323 3.77614 4.4375 3.5 4.4375H3C2.72386 4.4375 2.5 4.2323 2.5 3.97917V3.52083ZM12.5 3.0625C12.2239 3.0625 12 3.2677 12 3.52083V3.97917C12 4.2323 12.2239 4.4375 12.5 4.4375H13C13.2761 4.4375 13.5 4.2323 13.5 3.97917V3.52083C13.5 3.2677 13.2761 3.0625 13 3.0625H12.5ZM2.5 6.27083C2.5 6.0177 2.72386 5.8125 3 5.8125H3.5C3.77614 5.8125 4 6.0177 4 6.27083V6.72917C4 6.9823 3.77614 7.1875 3.5 7.1875H3C2.72386 7.1875 2.5 6.9823 2.5 6.72917V6.27083ZM12.5 5.8125C12.2239 5.8125 12 6.0177 12 6.27083V6.72917C12 6.9823 12.2239 7.1875 12.5 7.1875H13C13.2761 7.1875 13.5 6.9823 13.5 6.72917V6.27083C13.5 6.0177 13.2761 5.8125 13 5.8125H12.5ZM2.5 9.02083C2.5 8.7677 2.72386 8.5625 3 8.5625H3.5C3.77614 8.5625 4 8.7677 4 9.02083V9.47917C4 9.7323 3.77614 9.9375 3.5 9.9375H3C2.72386 9.9375 2.5 9.7323 2.5 9.47917V9.02083ZM12.5 8.5625C12.2239 8.5625 12 8.7677 12 9.02083V9.47917C12 9.7323 12.2239 9.9375 12.5 9.9375H13C13.2761 9.9375 13.5 9.7323 13.5 9.47917V9.02083C13.5 8.7677 13.2761 8.5625 13 8.5625H12.5Z" stroke="black"/>
</g>
<defs>
<filter id="filter0_d_8408_1342" x="0.5" y="0.5" width="15" height="13" filterUnits="userSpaceOnUse" color-interpolation-filters="sRGB">
<feFlood flood-opacity="0" result="BackgroundImageFix"/>
<feColorMatrix in="SourceAlpha" type="matrix" values="0 0 0 0 0 0 0 0 0 0 0 0 0 0 0 0 0 0 127 0" result="hardAlpha"/>
<feOffset dy="1"/>
<feComposite in2="hardAlpha" operator="out"/>
<feColorMatrix type="matrix" values="0 0 0 0 0 0 0 0 0 0 0 0 0 0 0 0 0 0 1 0"/>
<feBlend mode="normal" in2="BackgroundImageFix" result="effect1_dropShadow_8408_1342"/>
<feBlend mode="normal" in="SourceGraphic" in2="effect1_dropShadow_8408_1342" result="shape"/>
</filter>
<linearGradient id="paint0_linear_8408_1342" x1="1" y1="2.60417" x2="14.481" y2="5.27808" gradientUnits="userSpaceOnUse">
<stop stop-color="white"/>
<stop offset="1" stop-color="white"/>
</linearGradient>
</defs>
</svg>
