<svg width="80" height="108" viewBox="0 0 80 108" fill="none" xmlns="http://www.w3.org/2000/svg">
<path fill-rule="evenodd" clip-rule="evenodd" d="M3 108C1.34315 108 0 106.657 0 105V72.1792C0 70.9267 0.77812 69.806 1.95165 69.3683L38.0867 55.8913C40.2944 55.0679 42.546 56.9941 42.0744 59.3026L32.6157 105.601C32.3304 106.997 31.1018 108 29.6764 108H3Z" fill="black" fill-opacity="0.5"/>
<path fill-rule="evenodd" clip-rule="evenodd" d="M2 72.1792V105C2 105.552 2.44772 106 3 106H29.6764C30.1516 106 30.5611 105.666 30.6562 105.2L40.1148 58.9023C40.2721 58.1328 39.5215 57.4907 38.7856 57.7652L2.65055 71.2422C2.25937 71.3881 2 71.7617 2 72.1792ZM0 105C0 106.657 1.34315 108 3 108H29.6764C31.1018 108 32.3304 106.997 32.6157 105.601L42.0744 59.3026C42.546 56.9941 40.2944 55.0679 38.0867 55.8913L1.95165 69.3683C0.77812 69.806 0 70.9267 0 72.1792V105Z" fill="white" fill-opacity="0.5"/>
<path fill-rule="evenodd" clip-rule="evenodd" d="M41.8562 49.1045C42.0029 50.4594 41.2178 51.743 39.9449 52.2296L4.07125 65.9436C2.10713 66.6945 0 65.2441 0 63.1414V3C0 1.34315 1.34315 0 3 0H33.8477C35.3796 0 36.6654 1.15414 36.8303 2.67713L41.8562 49.1045ZM45.0105 49.0683C45.159 50.44 46.224 51.5336 47.5913 51.7184L76.5979 55.6385C78.3981 55.8818 79.9997 54.482 79.9997 52.6655L80 3.00002C80 1.34316 78.6568 0 77 0H43.041C41.2563 0 39.8663 1.54859 40.0584 3.32287L45.0105 49.0683ZM80 61.2453C80 59.7438 78.8898 58.4735 77.4018 58.2724L48.627 54.3837C47.0386 54.169 45.562 55.2409 45.274 56.8177L36.5734 104.461C36.237 106.303 37.6519 108 39.5246 108H77C78.6569 108 80 106.657 80 105V61.2453Z" fill="black"/>
</svg>
