<svg width="80" height="108" viewBox="0 0 80 108" fill="none" xmlns="http://www.w3.org/2000/svg">
<path fill-rule="evenodd" clip-rule="evenodd" d="M41.8561 49.1045C42.0028 50.4594 41.2178 51.743 39.9448 52.2296L4.07126 65.9436C2.10714 66.6945 0 65.2441 0 63.1414V3C0 1.34315 1.34315 0 3 0H33.8477C35.3796 0 36.6654 1.15414 36.8303 2.67713L41.8561 49.1045ZM45.0104 49.0683C45.1589 50.44 46.2239 51.5336 47.5912 51.7184L76.598 55.6385C78.3982 55.8818 79.9998 54.482 79.9998 52.6655L80 3.00001C80 1.34315 78.6568 0 77 0H43.041C41.2563 0 39.8663 1.54859 40.0584 3.32287L45.0104 49.0683ZM3 108C1.34315 108 0 106.657 0 105V72.1792C0 70.9267 0.77812 69.806 1.95165 69.3683L38.0867 55.8913C40.2944 55.0679 42.546 56.9941 42.0744 59.3026L32.6157 105.6C32.3304 106.997 31.1018 108 29.6764 108H3Z" fill="black" fill-opacity="0.5"/>
<path fill-rule="evenodd" clip-rule="evenodd" d="M79.9999 61.2453C79.9999 59.7438 78.8897 58.4735 77.4017 58.2724L48.6269 54.3837C47.0385 54.169 45.5619 55.2409 45.274 56.8177L36.5733 104.461C36.2369 106.303 37.6518 108 39.5245 108H76.9999C78.6568 108 79.9999 106.657 79.9999 105V61.2453Z" fill="black"/>
</svg>
