<svg width="80" height="108" viewBox="0 0 80 108" fill="none" xmlns="http://www.w3.org/2000/svg">
<path fill-rule="evenodd" clip-rule="evenodd" d="M0 42V63.1414C0 65.2441 2.10713 66.6945 4.07125 65.9436L39.9448 52.2296C41.2178 51.743 42.0028 50.4594 41.8561 49.1045L36.8303 2.67714C36.6654 1.15415 35.3796 0 33.8477 0H32H12.6316H3C1.34315 0 0 1.34315 0 3V12.4615V42ZM79.9998 52.6656C79.9998 54.482 78.3982 55.8818 76.5981 55.6385L47.5912 51.7184C46.2239 51.5336 45.1589 50.44 45.0104 49.0683L40.0584 3.32287C39.8663 1.54859 41.2563 0 43.041 0H48H67.3682H77C78.6568 0 80 1.34317 80 3.00004L79.9998 15.5218L80 42L79.9998 52.6656ZM80 66V61.2453C80 59.7438 78.8898 58.4735 77.4018 58.2724L48.627 54.3837C47.0386 54.169 45.562 55.2409 45.274 56.8177L36.5733 104.461C36.2369 106.303 37.6518 108 39.5245 108H48H67.3684H77C78.6569 108 80 106.657 80 105V95.5385V66ZM1.95165 69.3683C0.778121 69.806 0 70.9267 0 72.1792V81V95.5385V105C0 106.657 1.34315 108 3 108H12.6316H32V108C32.073 108 32.136 107.949 32.1506 107.877L42.0744 59.3026C42.546 56.9941 40.2944 55.0679 38.0867 55.8913L1.95165 69.3683Z" fill="black" fill-opacity="0.5"/>
</svg>
