<svg width="80" height="108" viewBox="0 0 80 108" fill="none" xmlns="http://www.w3.org/2000/svg">
<path fill-rule="evenodd" clip-rule="evenodd" d="M2 72.1792V105C2 105.552 2.44772 106 3 106H29.6764C30.1516 106 30.5611 105.666 30.6562 105.2L40.1148 58.9023C40.2721 58.1328 39.5215 57.4907 38.7856 57.7652L2.65055 71.2422C2.25937 71.3881 2 71.7617 2 72.1792ZM0 105C0 106.657 1.34315 108 3 108H29.6764C31.1018 108 32.3304 106.997 32.6157 105.601L42.0744 59.3026C42.546 56.9941 40.2944 55.0679 38.0867 55.8913L1.95165 69.3683C0.77812 69.806 0 70.9267 0 72.1792V105Z" fill="white"/>
<path fill-rule="evenodd" clip-rule="evenodd" d="M3.35708 64.0755L39.2307 50.3615C39.655 50.1993 39.9167 49.7714 39.8678 49.3198L34.8419 2.89238C34.787 2.38471 34.3584 2 33.8477 2H3C2.44772 2 2 2.44772 2 3V63.1414C2 63.8423 2.70238 64.3258 3.35708 64.0755ZM47.8591 49.7364L76.8658 53.6565C77.4658 53.7376 77.9997 53.271 77.9997 52.6655L78 3.00001C78 2.44772 77.5523 2 77 2H43.041C42.4461 2 41.9828 2.5162 42.0468 3.10762L46.9989 48.8531C47.0484 49.3103 47.4034 49.6748 47.8591 49.7364ZM77.1339 60.2544L48.3592 56.3657C47.8297 56.2941 47.3375 56.6514 47.2415 57.177L38.5408 104.82C38.4287 105.434 38.9004 106 39.5246 106H77C77.5523 106 78 105.552 78 105V61.2453C78 60.7448 77.6299 60.3214 77.1339 60.2544ZM39.9449 52.2296C41.2178 51.743 42.0029 50.4594 41.8562 49.1045L36.8303 2.67713C36.6654 1.15414 35.3796 0 33.8477 0H3C1.34315 0 0 1.34315 0 3V63.1414C0 65.2441 2.10713 66.6945 4.07125 65.9436L39.9449 52.2296ZM47.5913 51.7184C46.224 51.5336 45.159 50.44 45.0105 49.0683L40.0584 3.32287C39.8663 1.54859 41.2563 0 43.041 0H77C78.6568 0 80 1.34316 80 3.00002L79.9997 52.6655C79.9997 54.482 78.3981 55.8818 76.5979 55.6385L47.5913 51.7184ZM77.4018 58.2724C78.8898 58.4735 80 59.7438 80 61.2453V105C80 106.657 78.6569 108 77 108H39.5246C37.6519 108 36.237 106.303 36.5734 104.461L45.274 56.8177C45.562 55.2409 47.0386 54.169 48.627 54.3837L77.4018 58.2724Z" fill="white"/>
</svg>
