<svg xmlns="http://www.w3.org/2000/svg" width="113" height="36" fill="none"><mask id="a" width="113" height="36" x="0" y="0" maskUnits="userSpaceOnUse" style="mask-type:alpha"><path fill="red" d="M0 12C0 5.373 5.373 0 12 0h88.3c6.627 0 12 5.373 12 12v24H0V12Z"/></mask><g mask="url(#a)"><mask id="b" width="352" height="190" x="-121" y="0" maskUnits="userSpaceOnUse" style="mask-type:alpha"><path fill="red" fill-rule="evenodd" d="M-100.25 0c-6.627 0-12 5.373-12 12v23.665c-4.687 1.633-8.05 6.092-8.05 11.335v131c0 6.627 5.373 12 12 12h327c6.627 0 12-5.373 12-12V47c0-4.92-2.96-9.148-7.197-11h1.147V12c0-6.627-5.373-12-12-12h-88.3c-6.627 0-12 5.373-12 12 0-6.627-5.373-12-12-12h-88.3c-6.627 0-12 5.373-12 12 0-6.627-5.373-12-12-12h-88.3Z" clip-rule="evenodd"/></mask><g mask="url(#b)"><path fill="#B4B4B4" d="M233.767-.26h-355.034v215.22h355.034V-.26Z"/><path fill="#A5A5A5" d="M3.17 2.494h-35.462v218.961H3.171V2.494Z"/><path fill="#A6A6A6" d="M90.267-1.033 55.295.98l12.981 224.455 34.972-2.013L90.268-1.033Z"/><path fill="#ADADAD" d="M37.434 12.172 2.532 9.185-15.23 215.802l34.902 2.987L37.434 12.172Z"/><path fill="#000" fill-opacity=".03" d="M19.1 125.147v-136h-1.617v136H19.1ZM5.808 125.147v-1.338c0-1.925.479-5.862 1.005-8.268.25-1.138 1.126-4.431 1.947-7.317 2.31-8.112 2.973-12.044 2.973-17.642 0-5.303-.561-8.814-2.815-17.628-.736-2.879-1.618-6.463-1.959-7.964-1.149-5.054-1.151-5.115-1.151-28.8 0-19.43-.057-22.1.709-24.508.182-.574.412-1.133.699-1.9 1.325-3.53 1.557-4.822 1.545-8.58-.012-3.502-.11-4.027-1.762-9.434l-.8-2.62H1.436l3.122.072 1.178 3.856c1.458 4.775 1.769 6.51 1.626 9.1-.134 2.439-.446 3.795-1.464 6.369-.446 1.124-.991 2.813-1.213 3.754-.403 1.709-.404 1.726-.458 22.92-.038 14.61.008 21.894.146 23.412.338 3.69.845 6.27 2.542 12.912C9.869 83.11 10.116 84.59 10.126 90.72c.01 5.625-.474 8.467-2.881 16.927-2.091 7.351-2.679 10.404-2.963 15.368l-.121 2.132h1.647Z"/><path fill="#000" fill-opacity=".03" d="M-3.869-10.853c.321.073.301.228.253.555C-4.702-2.934-4.989-.583-4.994.984c-.008 2.434.115 3.238.896 5.864l.656 2.203.107 29.335c.094 25.95.141 29.573.406 31.4.474 3.28.584 9.525.224 12.76-1.138 10.247-.34 17.736 2.33 21.856 4.09 6.31 8.813-3.072 8.131-16.153-.248-4.77-1.294-8.947-2.83-11.302-1.253-1.922-3.05-2.499-3.345-1.074-.154.747.181 1.29 1.007 1.63 1.021.422 1.701 1.455 2.413 3.665 2.01 6.24 1.658 16.132-.749 21.052-1.943 3.969-4.667.898-5.644-6.363-.458-3.407-.43-6.527.105-11.527.576-5.377.576-8.678 0-14.662l-.449-4.662-.004-27.427c-.003-17.89-.069-27.857-.19-28.665-.103-.682-.48-2.231-.84-3.443-.998-3.353-.927-4.8.767-15.775.051-.33.075-.486.557-.549h-2.423ZM31.672-10.853V-.209c0 9.274.037 10.755.275 11.058.21.267.38.276.718.04l.444-.31v-21.432h-1.437ZM33.055 101.022c.101 5.384.087 5.781-.223 6.128-.945 1.06-1.1.375-1.239-5.413-.153-6.436-.417-9.697-1.622-19.97-1.283-10.938-1.436-13.152-1.423-20.657.013-8.013.31-11.609 1.747-21.21.341-2.271.707-4.936.815-5.921.231-2.11.56-9.652.561-12.843.001-2.604.221-3.168 1.018-2.611l.468.327-.096 6.255c-.106 6.82-.322 9.276-1.482 16.847-1.053 6.868-1.363 10.65-1.469 17.916-.112 7.75.07 10.58 1.388 21.546 1.21 10.072 1.43 12.835 1.557 19.606ZM39.454 92.372c-.08 3.174-.159 4.065-.384 4.339-.375.457-.66.434-.935-.074-.17-.317-.202-1.54-.128-5.027.08-3.75.218-5.533.74-9.567 1.373-10.628 1.828-17.365 1.666-24.652-.127-5.682-.379-9.142-1.556-21.346-1.064-11.03-1.228-14.345-1.379-27.928-.109-9.784-.094-10.602.19-10.92.381-.427.967-.22 1.086.385.05.248.174 5.658.28 12.02.227 13.914.304 15.352 1.434 27.131 1.278 13.313 1.487 16.608 1.474 23.203-.015 7.572-.265 10.892-1.738 23.071-.468 3.87-.678 6.488-.75 9.365ZM25.206 59.399c0 23.177-.06 34.56-.186 34.92-.208.595-.885.708-1.215.202-.166-.254-.216-8.424-.216-35.1 0-31.24.03-34.812.282-35.2.391-.599.726-.542 1.055.179.25.546.28 4.322.28 34.999ZM12.633 32.582c0 21.9-.03 24.54-.282 24.928-.359.55-.694.549-1.053-.002-.254-.39-.279-2.948-.237-25.1l.045-24.667.391-.398c.352-.358.428-.34.764.173.371.57.372.65.372 25.066ZM25.206 7.203c0 4.285-.072 7.186-.186 7.513-.208.596-.885.708-1.215.202-.157-.24-.216-2.333-.216-7.692 0-6.326.04-7.423.282-7.795.391-.599.726-.542 1.055.18.235.514.28 1.72.28 7.592ZM55.71 1.217c-.886.192-.934-.135-.934-6.322v-5.748h1.444l-.097 11.98-.414.09ZM68.786-10.853v136h1.616v-136h-1.616ZM75.252-10.853v6.313c0 5.374.042 6.38.282 6.749.358.549.694.549 1.052 0 .24-.369.282-1.375.282-6.749v-6.313h-1.616ZM82.077-10.853v1.339c0 1.925-.479 5.861-1.005 8.267-.249 1.138-1.126 4.431-1.947 7.317-2.31 8.113-2.973 12.045-2.973 17.643 0 5.303.561 8.813 2.815 17.628.736 2.878 1.617 6.462 1.96 7.964 1.147 5.053 1.15 5.115 1.15 28.8 0 19.43.057 22.1-.709 24.508-.183.574-.412 1.132-.699 1.899-1.325 3.53-1.558 4.823-1.545 8.581.012 3.501.11 4.027 1.762 9.434l.8 2.62h4.763l-3.122-.072-1.178-3.856c-1.459-4.776-1.769-6.511-1.627-9.1.135-2.439.447-3.796 1.465-6.369.445-1.124.991-2.814 1.213-3.754.403-1.709.404-1.727.458-22.92.038-14.61-.008-21.894-.146-23.412-.338-3.69-.846-6.27-2.542-12.913-2.954-11.566-3.202-13.045-3.212-19.176-.009-5.626.475-8.468 2.881-16.928 2.092-7.35 2.68-10.403 2.963-15.367l.122-2.133h-1.647ZM88.543-10.853l.002 6.677c.002 3.674.052 6.96.112 7.303.13.737.856 1.098 1.236.613.224-.285.266-1.495.266-7.467v-7.126h-1.616ZM102.912-10.853v136h1.437v-136h-1.437ZM97.801 125.147c-.407-.062-.433-.183-.374-.416.346-1.371 1.345-8.276 1.524-10.536.25-3.157.262-9.856.023-12.67-.219-2.567-.57-5.137-1.269-9.258-1.059-6.256-1.08-6.947-1.08-35.736 0-20.038-.05-26.313-.215-26.566-.33-.506-1.007-.393-1.215.202-.246.705-.248 48.763-.002 53.316.211 3.902.487 6.251 1.335 11.367.91 5.487 1.238 9.801 1.114 14.663-.115 4.539-.226 5.652-1.146 11.499l-.65 4.135H97.8Z"/><path fill="#000" fill-opacity=".03" d="M91.753 125.147c-.32-.073-.3-.227-.252-.554 1.086-7.364 1.373-9.715 1.378-11.282.008-2.435-.115-3.238-.896-5.864l-.656-2.204-.107-29.334c-.095-25.95-.142-29.573-.406-31.4-.474-3.28-.584-9.525-.225-12.76 1.14-10.247.341-17.736-2.329-21.856-4.09-6.31-8.813 3.072-8.13 16.152.247 4.771 1.293 8.948 2.828 11.303 1.253 1.922 3.051 2.498 3.345 1.074.155-.747-.18-1.29-1.006-1.631-1.02-.422-1.7-1.455-2.413-3.665-2.01-6.239-1.658-16.132.75-21.051 1.941-3.97 4.666-.898 5.643 6.363.458 3.406.43 6.526-.105 11.526-.576 5.378-.576 8.679 0 14.662l.45 4.663.003 27.426c.003 17.891.07 27.857.19 28.666.102.682.481 2.231.841 3.443.997 3.353.926 4.8-.768 15.775-.05.329-.075.485-.557.548h2.422ZM49.031-.443c-.002-8.553.022-9.305.312-9.564.196-.175.287-.263.38-.265.093-.002.188.082.395.253.333.273.348.674.348 9.768 0 8.754-.025 9.503-.315 9.732-.348.275-.783.125-.985-.34-.072-.166-.133-4.48-.135-9.584ZM95.123 7.809c-.18-1.035-.127-13.893.061-14.652.19-.768.84-.967 1.226-.376.157.24.215 2.361.215 7.816 0 6.289-.042 7.54-.267 7.826-.38.484-1.106.124-1.235-.614ZM110.049 13.246c.058-15.84.109-18.826.332-19.35.298-.704.584-.777 1.042-.264.299.336.312 1.401.241 18.661-.085 20.29-.102 20.672-1.458 31.527-1.22 9.775-1.542 14.202-1.545 21.248-.002 6.795.248 10.552 1.629 24.475 1.132 11.406 1.673 20.328 1.353 22.288-.105.642-.202.733-.698.659-.517-.077-.588-.197-.702-1.187-.069-.606-.132-2.279-.138-3.719-.015-3.201-.322-7.295-1.355-18.04-1.41-14.665-1.708-19.018-1.705-24.928.003-5.566.571-12.963 1.63-21.21.464-3.617.762-5.87.957-8.134.367-4.259.367-8.55.417-22.026ZM62.68 3.113c0-4.95.07-8.146.185-8.478.208-.595.885-.708 1.215-.202.158.243.216 2.548.216 8.657 0 7.202-.039 8.385-.283 8.76-.39.597-.725.54-1.054-.18-.238-.52-.28-1.812-.28-8.557ZM54.83 13.273c-.101-5.385-.087-5.782.223-6.129.945-1.06 1.101-.375 1.239 5.413.152 6.437.417 9.697 1.622 19.97 1.283 10.939 1.435 13.153 1.423 20.658-.014 8.012-.31 11.608-1.747 21.209-.341 2.272-.707 4.937-.815 5.922-.231 2.11-.56 9.651-.561 12.843-.001 2.604-.221 3.168-1.018 2.611l-.468-.327.096-6.255c.106-6.82.322-9.276 1.482-16.847 1.053-6.868 1.363-10.65 1.469-17.917.112-7.75-.07-10.58-1.388-21.545-1.211-10.072-1.43-12.835-1.557-19.606ZM95.01 18.954c0-2.99.058-3.925.28-4.407.152-.337.425-.613.605-.613.658 0 .742.606.69 4.962-.047 3.965-.07 4.222-.44 4.597-.352.358-.429.34-.764-.173-.34-.523-.372-.894-.372-4.366Z"/><path fill="#000" fill-opacity=".03" fill-rule="evenodd" d="M83.77 25.779c-.437-3.197-.019-6.9.945-8.378.952-1.46 2.116-.624 2.755 1.98.327 1.33.377 2.008.317 4.332-.089 3.493-.523 5.183-1.49 5.802-1.233.79-2.08-.463-2.528-3.736Zm2.063 1.254c.295-.28.606-3.054.516-4.597-.048-.813-.207-1.912-.352-2.442l-.266-.964-.244.689c-.385 1.082-.455 5.166-.11 6.428.156.577.362.975.456.886Z" clip-rule="evenodd"/><path fill="#000" fill-opacity=".03" d="M48.431 21.922c.08-3.174.16-4.064.383-4.338.376-.457.661-.434.936.074.171.316.202 1.54.128 5.027-.08 3.75-.218 5.532-.739 9.566-1.374 10.628-1.83 17.365-1.667 24.652.127 5.682.38 9.143 1.556 21.347 1.064 11.029 1.228 14.344 1.38 27.928.108 9.783.093 10.601-.19 10.92-.382.427-.968.219-1.087-.385-.049-.249-.175-5.658-.279-12.021-.229-13.913-.305-15.351-1.435-27.13-1.278-13.314-1.487-16.609-1.474-23.204.015-7.571.265-10.891 1.738-23.07.468-3.87.678-6.488.75-9.366ZM62.68 54.896c0-23.177.06-34.56.185-34.92.208-.595.885-.708 1.215-.202.165.254.216 8.424.216 35.099 0 31.24-.029 34.813-.283 35.201-.39.599-.725.542-1.054-.18-.25-.545-.28-4.321-.28-34.998Z"/><path fill="#000" fill-opacity=".03" d="M51.554 37.072c.117-.985.327-2.07.465-2.41.29-.715.572-.778 1.055-.237.333.373.334.454.036 2.835-.168 1.347-.672 4.227-1.119 6.399-.447 2.172-.933 5.003-1.079 6.291-.473 4.158-.295 11.281.383 15.328.358 2.134.945 4.02 1.251 4.02.443 0 1.106-2.538 1.52-5.82.293-2.322.505-8.446.366-10.569l-.127-1.928-.48 1.515c-.266.834-.483 1.831-.484 2.218 0 .386-.099.85-.217 1.032-.32.49-1.005.4-1.2-.157-.355-1.017.395-4.56 1.278-6.04.453-.757 1.185-1.018 1.821-.647.792.462 1.01 1.71 1.01 5.778 0 10.066-1.443 17.097-3.51 17.097-1.569 0-2.852-4.564-3.329-11.844-.387-5.91-.037-10.336 1.362-17.215.432-2.12.881-4.662.998-5.646Z"/><path fill="#F5943E" d="M233.776-.26h-355.034v205.712h355.034V-.261Z" style="mix-blend-mode:multiply"/></g></g></svg>