<svg width="20" height="20" viewBox="0 0 20 20" fill="none" xmlns="http://www.w3.org/2000/svg">
<circle cx="10" cy="10" r="10" fill="#FFDD63"/>
<path d="M8.17921 8.31051C8.68381 8.57266 5.82251 5.36949 8.39075 4.49575C10.0888 3.91806 10.8234 5.10136 10.7452 6.83714C11.3512 5.55294 12.8357 4.27257 14.3477 6.08691C15.2215 7.13553 14.9195 8.17703 13.9454 8.76914C15.0656 8.81641 15.8931 9.48178 15.652 10.7652C15.2869 12.7089 13.6899 12.2965 12.5567 11.5469C13.927 13.0413 13.3468 15.0005 11.6739 15.3669C10.127 15.7057 9.51541 14.4878 9.49389 12.9681C8.99704 14.2703 7.4176 15.5198 6.30196 14.7629C4.35694 13.4432 5.83624 11.4744 7.17874 10.9117C5.78264 11.1923 3.94821 10.7985 4.42466 8.57266C4.918 6.26789 7.55505 6.94108 8.17921 8.31051Z" fill="#FFC700"/>
<path d="M9.58725 11.7647C10.0566 13.2638 7.77499 15.7623 6.30196 14.7629C4.09241 13.2638 6.30196 10.9269 7.70995 10.7652C6.31599 11.2649 3.88434 11.0969 4.42466 8.57266C4.918 6.26789 7.55505 6.94108 8.17921 8.31051C8.68381 8.57266 5.82251 5.36949 8.39075 4.49575C10.5259 3.76937 11.1377 5.82718 10.5259 8.26672C10.0566 7.26731 12.1737 3.47821 14.3477 6.08691C15.6792 7.68479 14.2805 9.26613 11.9339 9.26613C13.8112 8.26672 16.0275 8.76642 15.652 10.7652C15.1827 13.2638 12.6776 11.8689 11.739 10.8695C14.0856 12.3686 13.6163 14.9415 11.6739 15.3669C9.73157 15.7923 9.26391 13.7635 9.58725 11.7647ZM9.58725 11.7647C9.57757 11.9054 9.61628 11.5852 9.58725 11.7647Z" stroke="#F1B312" stroke-width="0.5"/>
<path d="M17.0914 10C17.0914 14.4122 13.7068 17.9609 9.56535 17.9609C5.42388 17.9609 2.03926 14.4122 2.03926 10C2.03926 5.58785 5.42388 2.03914 9.56535 2.03914C13.7068 2.03914 17.0914 5.58785 17.0914 10Z" stroke="#FDF2C9" stroke-width="0.6"/>
<path d="M17.4006 9.05268C17.4224 8.9354 17.4293 8.80946 17.3509 8.71983C17.2878 8.64777 17.2453 8.57278 17.2244 8.47883C17.1884 8.31683 17.1639 8.13192 17.0894 7.98279" stroke="#FDF2C9" stroke-width="0.5" stroke-linecap="round"/>
<path d="M16.2139 5.57056C16.3485 5.64991 16.4795 5.77456 16.5737 5.90017C16.5941 5.92731 16.6293 5.9627 16.6418 5.99095C16.743 6.21855 16.9227 6.41249 16.9909 6.65126C17.0397 6.82216 16.9708 7.02614 17.0503 7.18512" stroke="#FDF2C9" stroke-width="0.5" stroke-linecap="round"/>
<path d="M17.342 8.29399C17.3374 8.06768 17.2177 7.76732 17.0653 7.59802C17.0355 7.56492 17.0004 7.53021 16.9907 7.48671C16.9507 7.30659 16.7406 7.18947 16.7195 7.01012C16.7054 6.8901 16.7063 6.71359 16.6503 6.60162C16.5811 6.46326 16.482 6.34249 16.3985 6.21256C16.3003 6.05985 16.2273 5.88747 16.1467 5.72625C16.1134 5.65956 16.068 5.59912 16.0343 5.53172C15.994 5.4512 15.9749 5.33529 15.9219 5.26911C15.8255 5.14855 15.7437 5.01415 15.6344 4.90491C15.5983 4.8688 15.5115 4.74563 15.4648 4.73524C15.3464 4.70894 15.1675 4.5828 15.0854 4.50073" stroke="#FDF2C9" stroke-width="0.5" stroke-linecap="round"/>
<path d="M17.1084 7.20459C17.1175 7.24625 17.1424 7.39788 17.1711 7.4337C17.1934 7.46158 17.2446 7.52762 17.2446 7.56446C17.2446 7.66154 17.2727 7.83375 17.3072 7.92434C17.3399 8.01011 17.31 8.11091 17.3462 8.19667C17.375 8.2653 17.3704 8.34848 17.3818 8.42254C17.4092 8.60068 17.478 8.76555 17.478 8.94668C17.478 9.2348 17.4975 9.52325 17.4975 9.81556C17.4975 9.93851 17.478 10.0516 17.478 10.1733C17.478 10.3883 17.4497 10.6071 17.4434 10.8228C17.4413 10.8955 17.4518 10.9914 17.438 11.067C17.4301 11.1103 17.4369 11.2518 17.4002 11.2702" stroke="#FDF2C9" stroke-width="0.5" stroke-linecap="round"/>
<path d="M17.5174 11.134C17.5126 11.4194 17.4596 11.6417 17.3466 11.8927C17.2626 12.0794 17.1788 12.2912 17.1132 12.4806C17.0484 12.6679 16.9463 12.8305 16.8798 13.0166C16.8558 13.0839 16.8093 13.1908 16.7674 13.2446C16.7119 13.316 16.7039 13.414 16.6712 13.4975C16.5483 13.8116 16.4224 14.122 16.2746 14.4258C16.233 14.5114 16.207 14.5917 16.1557 14.6701C16.1173 14.7288 16.0928 14.8333 16.0303 14.8689C15.9837 14.8956 15.9434 15.0142 15.8985 15.0591C15.8492 15.1084 15.8104 15.1763 15.7569 15.2191C15.7112 15.2557 15.652 15.3287 15.5916 15.3358C15.5374 15.3422 15.4665 15.447 15.4165 15.472" stroke="#FDF2C9" stroke-width="0.5" stroke-linecap="round"/>
<path d="M17.5562 11.3481C17.5972 11.2626 17.634 11.1525 17.634 11.0563C17.634 11.0055 17.6296 10.8967 17.6048 10.852C17.5625 10.7758 17.5543 10.555 17.5799 10.4684C17.6149 10.3503 17.6729 10.2247 17.6729 10.1009C17.6729 9.96154 17.7557 9.70212 17.6729 9.57788" stroke="#FDF2C9" stroke-width="0.5" stroke-linecap="round"/>
<path d="M17.961 10C17.961 14.3967 14.3968 17.9609 10.0001 17.9609C5.60346 17.9609 2.03926 14.3967 2.03926 10C2.03926 5.60334 5.60346 2.03914 10.0001 2.03914C14.3968 2.03914 17.961 5.60334 17.961 10Z" stroke="#9B7F35" stroke-width="0.6"/>
<path d="M11.3042 9.5652C11.1613 8.99338 9.13032 8.69566 8.69553 9.5652C7.98365 10.9889 11.739 11.3043 11.3042 9.5652Z" fill="#FFE791" stroke="#FDF2C9" stroke-width="0.57"/>
<path d="M13.478 5.65222C15.6519 6.95657 13.9128 8.40585 13.478 8.6957" stroke="#FDF2C9" stroke-width="0.3"/>
<path d="M15.2172 9.56519C16.0868 10.8695 14.7824 11.884 14.3477 11.7391" stroke="#FDF2C9" stroke-width="0.3"/>
<path d="M13.0436 13.0435C13.0436 13.913 13.0436 14.7826 11.7393 15.2174" stroke="#FDF2C9" stroke-width="0.3"/>
<path d="M8.261 0.869507C6.08708 1.30429 3.04361 2.60864 1.73926 5.65212" stroke="#FDF2C9" stroke-width="0.3"/>
</svg>
