<svg width="33" height="33" viewBox="0 0 33 33" fill="none" xmlns="http://www.w3.org/2000/svg">
<path d="M0.5 16.5C0.5 7.66344 7.66344 0.5 16.5 0.5C25.3366 0.5 32.5 7.66344 32.5 16.5C32.5 25.3366 25.3366 32.5 16.5 32.5C7.66344 32.5 0.5 25.3366 0.5 16.5Z" fill="url(#paint0_linear_11_6898)"/>
<path d="M12.5 11.444C14.3032 10.34 15.5399 8.39321 15.6856 6.14658C18.3035 7.46133 20.1 10.1709 20.1 13.3C20.1 14.2213 19.9443 15.1063 19.6577 15.9299C21.0164 15.5198 22.07 14.4064 22.3953 13.013C23.6958 14.3156 24.5 16.1139 24.5 18.1C24.5 21.2349 22.4965 23.9019 19.7 24.8903C16.9035 23.9019 14.9 21.2349 14.9 18.1C14.9 18.0205 14.9013 17.9412 14.9038 17.8623C13.9058 18.9911 13.3 20.4748 13.3 22.1C13.3 22.8762 13.4382 23.6202 13.6913 24.3086C10.7122 23.586 8.5 20.9013 8.5 17.7C8.5 15.1497 9.90394 12.9273 11.9811 11.7635L12.5 11.444Z" fill="white"/>
<defs>
<linearGradient id="paint0_linear_11_6898" x1="-15.5" y1="16.5" x2="16.5" y2="48.5" gradientUnits="userSpaceOnUse">
<stop stop-color="#FFB73D"/>
<stop offset="1" stop-color="#FFA000"/>
</linearGradient>
</defs>
</svg>
