<svg width="12" height="16" viewBox="0 0 12 16" fill="none" xmlns="http://www.w3.org/2000/svg">
<path d="M4.64497 13.9298C4.21774 15.6505 4.85918 16.0069 6.00666 14.7507L10.8267 9.21228C11.9419 7.85108 11.6626 6.75743 10.0566 6.48402L7.73264 6.05364C7.59688 6.02849 7.5072 5.89806 7.53234 5.76229C7.53317 5.75781 7.53413 5.75336 7.5352 5.74893L8.42952 2.059C8.85794 0.327431 8.14387 0.0138476 7.07277 1.24094C5.53377 2.97621 4.36422 4.28708 3.56413 5.17353C3.28518 5.48258 2.83618 5.96498 2.21712 6.62073C0.860371 8.12627 1.57444 9.21814 3.14373 9.49155L5.36472 9.88968C5.50063 9.91405 5.59105 10.044 5.56669 10.1799C5.56575 10.1851 5.56464 10.1903 5.56337 10.1955L4.64497 13.9298Z" fill="#FFF47C" stroke="black"/>
</svg>
