<svg width="21" height="16" viewBox="0 0 21 16" fill="none" xmlns="http://www.w3.org/2000/svg">
<path fill-rule="evenodd" clip-rule="evenodd" d="M8.9511 8.86833L3.01255 13.7011C2.34568 14.2438 2.95639 15.3016 3.75982 14.9954L10.9144 12.2689C10.988 12.2408 11.0589 12.2089 11.1269 12.1736C11.1978 12.143 11.2677 12.1079 11.3362 12.0684C12.293 11.516 12.6209 10.2924 12.0684 9.3356C11.516 8.37876 10.2925 8.05092 9.33564 8.60335C9.26738 8.64276 9.20233 8.68558 9.14057 8.73148C9.0757 8.77283 9.01243 8.81842 8.9511 8.86833Z" fill="#A5BEFF"/>
<path d="M2.63602 11.5195C1.82704 11.7293 1.00243 11.1989 1.00004 10.3632C1.00001 10.3541 1 10.345 1 10.3358C1 5.1798 5.1798 1 10.3358 1C15.4919 1 19.6717 5.1798 19.6717 10.3358C19.6717 11.3138 19.5213 12.2566 19.2425 13.1424C18.9858 13.9579 18.01 14.2071 17.2986 13.7329C16.7121 13.3419 16.5143 12.585 16.6825 11.9004C16.8056 11.3991 16.8709 10.8751 16.8709 10.3358C16.8709 6.72661 13.9451 3.80075 10.3358 3.80075C6.72661 3.80075 3.80075 6.72661 3.80075 10.3358C3.80075 10.8322 3.49664 11.2964 3.01614 11.421L2.63602 11.5195Z" fill="#A5BEFF"/>
<path d="M3.01255 13.7011L3.32815 14.0889H3.32815L3.01255 13.7011ZM8.9511 8.86833L8.6355 8.48052L8.6355 8.48052L8.9511 8.86833ZM3.75982 14.9954L3.93788 15.4627H3.93788L3.75982 14.9954ZM10.9144 12.2689L11.0925 12.7361L11.0925 12.7361L10.9144 12.2689ZM11.1269 12.1736L10.9287 11.7146L10.9122 11.7217L10.8963 11.7299L11.1269 12.1736ZM11.3362 12.0684L11.5862 12.5014L11.5862 12.5014L11.3362 12.0684ZM12.0684 9.3356L11.6354 9.5856L12.0684 9.3356ZM9.33564 8.60335L9.58564 9.03637V9.03637L9.33564 8.60335ZM9.14057 8.73148L9.40932 9.15311L9.42442 9.14348L9.43879 9.1328L9.14057 8.73148ZM17.2986 13.7329L17.0213 14.1489L17.2986 13.7329ZM16.6825 11.9004L16.1969 11.7811L16.6825 11.9004ZM3.01614 11.421L3.14162 11.905H3.14162L3.01614 11.421ZM19.2425 13.1424L19.7194 13.2925L19.2425 13.1424ZM1.00004 10.3632L0.500041 10.3646L1.00004 10.3632ZM2.63602 11.5195L2.51054 11.0355H2.51054L2.63602 11.5195ZM3.32815 14.0889L9.2667 9.25614L8.6355 8.48052L2.69695 13.3133L3.32815 14.0889ZM3.58177 14.5282C3.49706 14.5605 3.4388 14.5517 3.39769 14.5351C3.35008 14.5159 3.30187 14.4756 3.26784 14.4166C3.2338 14.3577 3.223 14.2958 3.23014 14.2449C3.2363 14.201 3.25784 14.1462 3.32815 14.0889L2.69695 13.3133C1.58953 14.2145 2.60369 15.9711 3.93788 15.4627L3.58177 14.5282ZM10.7364 11.8016L3.58177 14.5282L3.93788 15.4627L11.0925 12.7361L10.7364 11.8016ZM10.8963 11.7299C10.8454 11.7564 10.792 11.7804 10.7364 11.8016L11.0925 12.7361C11.184 12.7012 11.2724 12.6615 11.3575 12.6173L10.8963 11.7299ZM11.0862 11.6354C11.0344 11.6652 10.9819 11.6916 10.9287 11.7146L11.3252 12.6326C11.4138 12.5943 11.5009 12.5506 11.5862 12.5014L11.0862 11.6354ZM11.6354 9.5856C12.0498 10.3033 11.8039 11.221 11.0862 11.6354L11.5862 12.5014C12.7822 11.8109 13.1919 10.2816 12.5014 9.0856L11.6354 9.5856ZM9.58564 9.03637C10.3033 8.622 11.221 8.86791 11.6354 9.5856L12.5014 9.0856C11.8109 7.88961 10.2816 7.47984 9.08564 8.17034L9.58564 9.03637ZM9.43879 9.1328C9.48513 9.09836 9.53409 9.06613 9.58564 9.03637L9.08564 8.17034C9.00067 8.21939 8.91952 8.2728 8.84234 8.33015L9.43879 9.1328ZM9.2667 9.25614C9.31307 9.2184 9.3607 9.1841 9.40932 9.15311L8.87181 8.30985C8.79069 8.36155 8.71178 8.41844 8.6355 8.48052L9.2667 9.25614ZM0.5 10.3358C0.5 10.3454 0.500014 10.355 0.500041 10.3646L1.50004 10.3617C1.50001 10.3531 1.5 10.3445 1.5 10.3358H0.5ZM10.3358 0.5C4.90366 0.5 0.5 4.90366 0.5 10.3358H1.5C1.5 5.45594 5.45594 1.5 10.3358 1.5V0.5ZM20.1717 10.3358C20.1717 4.90366 15.768 0.5 10.3358 0.5V1.5C15.2157 1.5 19.1717 5.45594 19.1717 10.3358H20.1717ZM19.7194 13.2925C20.0134 12.3587 20.1717 11.3653 20.1717 10.3358H19.1717C19.1717 11.2622 19.0293 12.1544 18.7656 12.9922L19.7194 13.2925ZM17.168 12.0197C17.3007 11.4797 17.3709 10.9156 17.3709 10.3358H16.3709C16.3709 10.8346 16.3105 11.3186 16.1969 11.7811L17.168 12.0197ZM17.3709 10.3358C17.3709 6.45047 14.2212 3.30075 10.3358 3.30075V4.30075C13.6689 4.30075 16.3709 7.00276 16.3709 10.3358H17.3709ZM10.3358 3.30075C6.45047 3.30075 3.30075 6.45047 3.30075 10.3358H4.30075C4.30075 7.00276 7.00276 4.30075 10.3358 4.30075V3.30075ZM2.7615 12.0035L3.14162 11.905L2.89065 10.937L2.51054 11.0355L2.7615 12.0035ZM17.576 13.3169C17.2074 13.0712 17.0366 12.5548 17.168 12.0197L16.1969 11.7811C15.992 12.6152 16.2167 13.6125 17.0213 14.1489L17.576 13.3169ZM3.30075 10.3358C3.30075 10.6444 3.11422 10.879 2.89065 10.937L3.14162 11.905C3.87906 11.7138 4.30075 11.0201 4.30075 10.3358H3.30075ZM18.7656 12.9922C18.6281 13.429 18.0656 13.6433 17.576 13.3169L17.0213 14.1489C17.9543 14.771 19.3435 14.4867 19.7194 13.2925L18.7656 12.9922ZM0.500041 10.3646C0.503541 11.5865 1.69689 12.2795 2.7615 12.0035L2.51054 11.0355C1.9572 11.179 1.50132 10.8112 1.50004 10.3617L0.500041 10.3646Z" fill="black"/>
</svg>
