<svg width="108" height="109" viewBox="0 0 108 109" fill="none" xmlns="http://www.w3.org/2000/svg">
<g opacity="0.75">
<g filter="url(#filter0_f_3003_22536)">
<path d="M81.0038 84.5952L74.4469 89.3899L54.3737 57.5932L56.7894 55.8268L81.0038 84.5952Z" fill="url(#paint0_linear_3003_22536)"/>
<path d="M81.0038 84.5952L74.4469 89.3899L54.3737 57.5932L56.7894 55.8268L81.0038 84.5952Z" fill="white"/>
<path d="M62.4452 94.0115L54.3694 94.8853L52.8655 57.1422L55.8408 56.8202L62.4452 94.0115Z" fill="url(#paint1_linear_3003_22536)"/>
<path d="M62.4452 94.0115L54.3694 94.8853L52.8655 57.1422L55.8408 56.8202L62.4452 94.0115Z" fill="white"/>
<path d="M41.903 92.2417L34.4722 88.9606L52.0647 55.4692L54.8023 56.678L41.903 92.2417Z" fill="url(#paint2_linear_3003_22536)"/>
<path d="M41.903 92.2417L34.4722 88.9606L52.0647 55.4692L54.8023 56.678L41.903 92.2417Z" fill="white"/>
<path d="M90.8695 44.0256L92.3988 52.0033L55.0364 56.5535L54.473 53.6144L90.8695 44.0256Z" fill="url(#paint3_linear_3003_22536)"/>
<path d="M90.8695 44.0256L92.3988 52.0033L55.0364 56.5535L54.473 53.6144L90.8695 44.0256Z" fill="white"/>
<path d="M80.8446 28.9717L85.6874 35.4931L53.9699 55.8516L52.1857 53.4489L80.8446 28.9717Z" fill="url(#paint4_linear_3003_22536)"/>
<path d="M80.8446 28.9717L85.6874 35.4931L53.9699 55.8516L52.1857 53.4489L80.8446 28.9717Z" fill="white"/>
<path d="M21.2076 72.5806L25.9539 79.1726L54.9702 55.1201L53.2216 52.6915L21.2076 72.5806Z" fill="url(#paint5_linear_3003_22536)"/>
<path d="M21.2076 72.5806L25.9539 79.1726L54.9702 55.1201L53.2216 52.6915L21.2076 72.5806Z" fill="white"/>
<path d="M91.9036 65.4656L89.2391 73.1391L54.461 58.3477L55.4427 55.5206L91.9036 65.4656Z" fill="url(#paint6_linear_3003_22536)"/>
<path d="M91.9036 65.4656L89.2391 73.1391L54.461 58.3477L55.4427 55.5206L91.9036 65.4656Z" fill="white"/>
</g>
<g filter="url(#filter1_f_3003_22536)">
<path d="M25.8203 24.7986L32.3772 20.0039L52.4504 51.8006L50.0347 53.567L25.8203 24.7986Z" fill="url(#paint7_linear_3003_22536)"/>
<path d="M25.8203 24.7986L32.3772 20.0039L52.4504 51.8006L50.0347 53.567L25.8203 24.7986Z" fill="white"/>
<path d="M44.3788 15.3826L52.4546 14.5087L53.9585 52.2519L50.9832 52.5738L44.3788 15.3826Z" fill="url(#paint8_linear_3003_22536)"/>
<path d="M44.3788 15.3826L52.4546 14.5087L53.9585 52.2519L50.9832 52.5738L44.3788 15.3826Z" fill="white"/>
<path d="M65.0474 17.325L72.4781 20.6061L54.8856 54.0975L52.148 52.8886L65.0474 17.325Z" fill="url(#paint9_linear_3003_22536)"/>
<path d="M65.0474 17.325L72.4781 20.6061L54.8856 54.0975L52.148 52.8886L65.0474 17.325Z" fill="white"/>
<path d="M15.9546 65.3682L14.4253 57.3905L51.7877 52.8403L52.3511 55.7794L15.9546 65.3682Z" fill="url(#paint10_linear_3003_22536)"/>
<path d="M15.9546 65.3682L14.4253 57.3905L51.7877 52.8403L52.3511 55.7794L15.9546 65.3682Z" fill="white"/>
<path d="M14.1606 44.8811L16.8251 37.2076L51.6032 51.999L50.6215 54.826L14.1606 44.8811Z" fill="url(#paint11_linear_3003_22536)"/>
<path d="M14.1606 44.8811L16.8251 37.2076L51.6032 51.999L50.6215 54.826L14.1606 44.8811Z" fill="white"/>
</g>
</g>
<defs>
<filter id="filter0_f_3003_22536" x="9.20764" y="16.9717" width="95.1912" height="89.9136" filterUnits="userSpaceOnUse" color-interpolation-filters="sRGB">
<feFlood flood-opacity="0" result="BackgroundImageFix"/>
<feBlend mode="normal" in="SourceGraphic" in2="BackgroundImageFix" result="shape"/>
<feGaussianBlur stdDeviation="6" result="effect1_foregroundBlur_3003_22536"/>
</filter>
<filter id="filter1_f_3003_22536" x="2.16064" y="2.50879" width="82.3175" height="74.8594" filterUnits="userSpaceOnUse" color-interpolation-filters="sRGB">
<feFlood flood-opacity="0" result="BackgroundImageFix"/>
<feBlend mode="normal" in="SourceGraphic" in2="BackgroundImageFix" result="shape"/>
<feGaussianBlur stdDeviation="6" result="effect1_foregroundBlur_3003_22536"/>
</filter>
<linearGradient id="paint0_linear_3003_22536" x1="77.7253" y1="86.9925" x2="55.5815" y2="56.71" gradientUnits="userSpaceOnUse">
<stop stop-color="#6B7AFF"/>
<stop offset="1" stop-color="#33FFF3" stop-opacity="0.72"/>
</linearGradient>
<linearGradient id="paint1_linear_3003_22536" x1="58.4073" y1="94.4484" x2="54.3531" y2="56.9812" gradientUnits="userSpaceOnUse">
<stop stop-color="#6B7AFF"/>
<stop offset="1" stop-color="#33FFF3" stop-opacity="0.72"/>
</linearGradient>
<linearGradient id="paint2_linear_3003_22536" x1="38.1876" y1="90.6011" x2="53.4335" y2="56.0736" gradientUnits="userSpaceOnUse">
<stop stop-color="#6B7AFF"/>
<stop offset="1" stop-color="#33FFF3" stop-opacity="0.72"/>
</linearGradient>
<linearGradient id="paint3_linear_3003_22536" x1="91.6341" y1="48.0145" x2="54.7547" y2="55.084" gradientUnits="userSpaceOnUse">
<stop stop-color="#6B7AFF"/>
<stop offset="1" stop-color="#33FFF3" stop-opacity="0.72"/>
</linearGradient>
<linearGradient id="paint4_linear_3003_22536" x1="83.266" y1="32.2324" x2="53.0778" y2="54.6502" gradientUnits="userSpaceOnUse">
<stop stop-color="#6B7AFF"/>
<stop offset="1" stop-color="#33FFF3" stop-opacity="0.72"/>
</linearGradient>
<linearGradient id="paint5_linear_3003_22536" x1="23.5808" y1="75.8766" x2="54.0959" y2="53.9058" gradientUnits="userSpaceOnUse">
<stop stop-color="#6B7AFF"/>
<stop offset="1" stop-color="#33FFF3" stop-opacity="0.72"/>
</linearGradient>
<linearGradient id="paint6_linear_3003_22536" x1="90.5713" y1="69.3023" x2="54.9518" y2="56.9342" gradientUnits="userSpaceOnUse">
<stop stop-color="#6B7AFF"/>
<stop offset="1" stop-color="#33FFF3" stop-opacity="0.72"/>
</linearGradient>
<linearGradient id="paint7_linear_3003_22536" x1="29.0988" y1="22.4012" x2="51.2426" y2="52.6838" gradientUnits="userSpaceOnUse">
<stop stop-color="#6B7AFF"/>
<stop offset="1" stop-color="#33FFF3" stop-opacity="0.72"/>
</linearGradient>
<linearGradient id="paint8_linear_3003_22536" x1="48.4167" y1="14.9456" x2="52.4709" y2="52.4128" gradientUnits="userSpaceOnUse">
<stop stop-color="#6B7AFF"/>
<stop offset="1" stop-color="#33FFF3" stop-opacity="0.72"/>
</linearGradient>
<linearGradient id="paint9_linear_3003_22536" x1="68.7627" y1="18.9655" x2="53.5168" y2="53.493" gradientUnits="userSpaceOnUse">
<stop stop-color="#6B7AFF"/>
<stop offset="1" stop-color="#33FFF3" stop-opacity="0.72"/>
</linearGradient>
<linearGradient id="paint10_linear_3003_22536" x1="15.19" y1="61.3793" x2="52.0694" y2="54.3098" gradientUnits="userSpaceOnUse">
<stop stop-color="#6B7AFF"/>
<stop offset="1" stop-color="#33FFF3" stop-opacity="0.72"/>
</linearGradient>
<linearGradient id="paint11_linear_3003_22536" x1="15.4929" y1="41.0444" x2="51.1124" y2="53.4125" gradientUnits="userSpaceOnUse">
<stop stop-color="#6B7AFF"/>
<stop offset="1" stop-color="#33FFF3" stop-opacity="0.72"/>
</linearGradient>
</defs>
</svg>
