<svg width="16" height="15" viewBox="0 0 16 15" fill="none" xmlns="http://www.w3.org/2000/svg">
<g filter="url(#filter0_d_3003_22532)">
<path fill-rule="evenodd" clip-rule="evenodd" d="M5.71858 2H10.2814H10.2814H10.2814C10.9548 1.99999 11.5055 1.99999 11.9531 2.03351C12.4163 2.0682 12.8347 2.14221 13.2255 2.32471C13.837 2.61033 14.3342 3.06609 14.6458 3.62665C14.8449 3.98483 14.9256 4.36836 14.9634 4.79302C15 5.20328 15 5.70808 15 6.32532V6.32535V8.67465V8.67468C15 9.29192 15 9.79672 14.9634 10.207C14.9256 10.6316 14.8449 11.0152 14.6458 11.3733C14.3342 11.9339 13.837 12.3897 13.2255 12.6753C12.8347 12.8578 12.4163 12.9318 11.9531 12.9665C11.5055 13 10.9548 13 10.2815 13H10.2814H5.71856H5.71853C5.04518 13 4.49448 13 4.04693 12.9665C3.58367 12.9318 3.16527 12.8578 2.77453 12.6753C2.163 12.3897 1.66582 11.9339 1.35423 11.3733C1.15514 11.0152 1.0744 10.6316 1.03655 10.207C0.999985 9.79672 0.999992 9.29191 1 8.67465V8.67464V8.67463V6.32537V6.32536V6.32535C0.999992 5.70809 0.999985 5.20328 1.03655 4.79302C1.0744 4.36836 1.15514 3.98483 1.35423 3.62665C1.66582 3.06609 2.163 2.61033 2.77453 2.32471C3.16527 2.14221 3.58367 2.0682 4.04693 2.03351C4.49449 1.99999 5.04519 1.99999 5.71856 2H5.71857H5.71858ZM9.80907 7.80728C10.0636 7.66936 10.0636 7.33064 9.80907 7.19272L7.08432 5.71653C6.82592 5.57654 6.5 5.74793 6.5 6.02381V8.97619C6.5 9.25207 6.82592 9.42346 7.08432 9.28347L9.80907 7.80728ZM2.5 4.52083C2.5 4.2677 2.72386 4.0625 3 4.0625H3.5C3.77614 4.0625 4 4.2677 4 4.52083V4.97917C4 5.2323 3.77614 5.4375 3.5 5.4375H3C2.72386 5.4375 2.5 5.2323 2.5 4.97917V4.52083ZM12.5 4.0625C12.2239 4.0625 12 4.2677 12 4.52083V4.97917C12 5.2323 12.2239 5.4375 12.5 5.4375H13C13.2761 5.4375 13.5 5.2323 13.5 4.97917V4.52083C13.5 4.2677 13.2761 4.0625 13 4.0625H12.5ZM2.5 7.27083C2.5 7.0177 2.72386 6.8125 3 6.8125H3.5C3.77614 6.8125 4 7.0177 4 7.27083V7.72917C4 7.9823 3.77614 8.1875 3.5 8.1875H3C2.72386 8.1875 2.5 7.9823 2.5 7.72917V7.27083ZM12.5 6.8125C12.2239 6.8125 12 7.0177 12 7.27083V7.72917C12 7.9823 12.2239 8.1875 12.5 8.1875H13C13.2761 8.1875 13.5 7.9823 13.5 7.72917V7.27083C13.5 7.0177 13.2761 6.8125 13 6.8125H12.5ZM2.5 10.0208C2.5 9.7677 2.72386 9.5625 3 9.5625H3.5C3.77614 9.5625 4 9.7677 4 10.0208V10.4792C4 10.7323 3.77614 10.9375 3.5 10.9375H3C2.72386 10.9375 2.5 10.7323 2.5 10.4792V10.0208ZM12.5 9.5625C12.2239 9.5625 12 9.7677 12 10.0208V10.4792C12 10.7323 12.2239 10.9375 12.5 10.9375H13C13.2761 10.9375 13.5 10.7323 13.5 10.4792V10.0208C13.5 9.7677 13.2761 9.5625 13 9.5625H12.5Z" fill="white"/>
<path fill-rule="evenodd" clip-rule="evenodd" d="M5.71858 2H10.2814H10.2814H10.2814C10.9548 1.99999 11.5055 1.99999 11.9531 2.03351C12.4163 2.0682 12.8347 2.14221 13.2255 2.32471C13.837 2.61033 14.3342 3.06609 14.6458 3.62665C14.8449 3.98483 14.9256 4.36836 14.9634 4.79302C15 5.20328 15 5.70808 15 6.32532V6.32535V8.67465V8.67468C15 9.29192 15 9.79672 14.9634 10.207C14.9256 10.6316 14.8449 11.0152 14.6458 11.3733C14.3342 11.9339 13.837 12.3897 13.2255 12.6753C12.8347 12.8578 12.4163 12.9318 11.9531 12.9665C11.5055 13 10.9548 13 10.2815 13H10.2814H5.71856H5.71853C5.04518 13 4.49448 13 4.04693 12.9665C3.58367 12.9318 3.16527 12.8578 2.77453 12.6753C2.163 12.3897 1.66582 11.9339 1.35423 11.3733C1.15514 11.0152 1.0744 10.6316 1.03655 10.207C0.999985 9.79672 0.999992 9.29191 1 8.67465V8.67464V8.67463V6.32537V6.32536V6.32535C0.999992 5.70809 0.999985 5.20328 1.03655 4.79302C1.0744 4.36836 1.15514 3.98483 1.35423 3.62665C1.66582 3.06609 2.163 2.61033 2.77453 2.32471C3.16527 2.14221 3.58367 2.0682 4.04693 2.03351C4.49449 1.99999 5.04519 1.99999 5.71856 2H5.71857H5.71858ZM9.80907 7.80728C10.0636 7.66936 10.0636 7.33064 9.80907 7.19272L7.08432 5.71653C6.82592 5.57654 6.5 5.74793 6.5 6.02381V8.97619C6.5 9.25207 6.82592 9.42346 7.08432 9.28347L9.80907 7.80728ZM2.5 4.52083C2.5 4.2677 2.72386 4.0625 3 4.0625H3.5C3.77614 4.0625 4 4.2677 4 4.52083V4.97917C4 5.2323 3.77614 5.4375 3.5 5.4375H3C2.72386 5.4375 2.5 5.2323 2.5 4.97917V4.52083ZM12.5 4.0625C12.2239 4.0625 12 4.2677 12 4.52083V4.97917C12 5.2323 12.2239 5.4375 12.5 5.4375H13C13.2761 5.4375 13.5 5.2323 13.5 4.97917V4.52083C13.5 4.2677 13.2761 4.0625 13 4.0625H12.5ZM2.5 7.27083C2.5 7.0177 2.72386 6.8125 3 6.8125H3.5C3.77614 6.8125 4 7.0177 4 7.27083V7.72917C4 7.9823 3.77614 8.1875 3.5 8.1875H3C2.72386 8.1875 2.5 7.9823 2.5 7.72917V7.27083ZM12.5 6.8125C12.2239 6.8125 12 7.0177 12 7.27083V7.72917C12 7.9823 12.2239 8.1875 12.5 8.1875H13C13.2761 8.1875 13.5 7.9823 13.5 7.72917V7.27083C13.5 7.0177 13.2761 6.8125 13 6.8125H12.5ZM2.5 10.0208C2.5 9.7677 2.72386 9.5625 3 9.5625H3.5C3.77614 9.5625 4 9.7677 4 10.0208V10.4792C4 10.7323 3.77614 10.9375 3.5 10.9375H3C2.72386 10.9375 2.5 10.7323 2.5 10.4792V10.0208ZM12.5 9.5625C12.2239 9.5625 12 9.7677 12 10.0208V10.4792C12 10.7323 12.2239 10.9375 12.5 10.9375H13C13.2761 10.9375 13.5 10.7323 13.5 10.4792V10.0208C13.5 9.7677 13.2761 9.5625 13 9.5625H12.5Z" fill="url(#paint0_linear_3003_22532)"/>
<path fill-rule="evenodd" clip-rule="evenodd" d="M5.71858 2H10.2814H10.2814H10.2814C10.9548 1.99999 11.5055 1.99999 11.9531 2.03351C12.4163 2.0682 12.8347 2.14221 13.2255 2.32471C13.837 2.61033 14.3342 3.06609 14.6458 3.62665C14.8449 3.98483 14.9256 4.36836 14.9634 4.79302C15 5.20328 15 5.70808 15 6.32532V6.32535V8.67465V8.67468C15 9.29192 15 9.79672 14.9634 10.207C14.9256 10.6316 14.8449 11.0152 14.6458 11.3733C14.3342 11.9339 13.837 12.3897 13.2255 12.6753C12.8347 12.8578 12.4163 12.9318 11.9531 12.9665C11.5055 13 10.9548 13 10.2815 13H10.2814H5.71856H5.71853C5.04518 13 4.49448 13 4.04693 12.9665C3.58367 12.9318 3.16527 12.8578 2.77453 12.6753C2.163 12.3897 1.66582 11.9339 1.35423 11.3733C1.15514 11.0152 1.0744 10.6316 1.03655 10.207C0.999985 9.79672 0.999992 9.29191 1 8.67465V8.67464V8.67463V6.32537V6.32536V6.32535C0.999992 5.70809 0.999985 5.20328 1.03655 4.79302C1.0744 4.36836 1.15514 3.98483 1.35423 3.62665C1.66582 3.06609 2.163 2.61033 2.77453 2.32471C3.16527 2.14221 3.58367 2.0682 4.04693 2.03351C4.49449 1.99999 5.04519 1.99999 5.71856 2H5.71857H5.71858ZM9.80907 7.80728C10.0636 7.66936 10.0636 7.33064 9.80907 7.19272L7.08432 5.71653C6.82592 5.57654 6.5 5.74793 6.5 6.02381V8.97619C6.5 9.25207 6.82592 9.42346 7.08432 9.28347L9.80907 7.80728ZM2.5 4.52083C2.5 4.2677 2.72386 4.0625 3 4.0625H3.5C3.77614 4.0625 4 4.2677 4 4.52083V4.97917C4 5.2323 3.77614 5.4375 3.5 5.4375H3C2.72386 5.4375 2.5 5.2323 2.5 4.97917V4.52083ZM12.5 4.0625C12.2239 4.0625 12 4.2677 12 4.52083V4.97917C12 5.2323 12.2239 5.4375 12.5 5.4375H13C13.2761 5.4375 13.5 5.2323 13.5 4.97917V4.52083C13.5 4.2677 13.2761 4.0625 13 4.0625H12.5ZM2.5 7.27083C2.5 7.0177 2.72386 6.8125 3 6.8125H3.5C3.77614 6.8125 4 7.0177 4 7.27083V7.72917C4 7.9823 3.77614 8.1875 3.5 8.1875H3C2.72386 8.1875 2.5 7.9823 2.5 7.72917V7.27083ZM12.5 6.8125C12.2239 6.8125 12 7.0177 12 7.27083V7.72917C12 7.9823 12.2239 8.1875 12.5 8.1875H13C13.2761 8.1875 13.5 7.9823 13.5 7.72917V7.27083C13.5 7.0177 13.2761 6.8125 13 6.8125H12.5ZM2.5 10.0208C2.5 9.7677 2.72386 9.5625 3 9.5625H3.5C3.77614 9.5625 4 9.7677 4 10.0208V10.4792C4 10.7323 3.77614 10.9375 3.5 10.9375H3C2.72386 10.9375 2.5 10.7323 2.5 10.4792V10.0208ZM12.5 9.5625C12.2239 9.5625 12 9.7677 12 10.0208V10.4792C12 10.7323 12.2239 10.9375 12.5 10.9375H13C13.2761 10.9375 13.5 10.7323 13.5 10.4792V10.0208C13.5 9.7677 13.2761 9.5625 13 9.5625H12.5Z" stroke="black"/>
</g>
<defs>
<filter id="filter0_d_3003_22532" x="0.5" y="1.5" width="15" height="13" filterUnits="userSpaceOnUse" color-interpolation-filters="sRGB">
<feFlood flood-opacity="0" result="BackgroundImageFix"/>
<feColorMatrix in="SourceAlpha" type="matrix" values="0 0 0 0 0 0 0 0 0 0 0 0 0 0 0 0 0 0 127 0" result="hardAlpha"/>
<feOffset dy="1"/>
<feComposite in2="hardAlpha" operator="out"/>
<feColorMatrix type="matrix" values="0 0 0 0 0 0 0 0 0 0 0 0 0 0 0 0 0 0 1 0"/>
<feBlend mode="normal" in2="BackgroundImageFix" result="effect1_dropShadow_3003_22532"/>
<feBlend mode="normal" in="SourceGraphic" in2="effect1_dropShadow_3003_22532" result="shape"/>
</filter>
<linearGradient id="paint0_linear_3003_22532" x1="1" y1="3.60417" x2="14.481" y2="6.27808" gradientUnits="userSpaceOnUse">
<stop stop-color="#FFE5A4"/>
<stop offset="1" stop-color="#FFC6E1"/>
</linearGradient>
</defs>
</svg>
