<svg width="16" height="16" viewBox="0 0 16 16" fill="none" xmlns="http://www.w3.org/2000/svg">
<rect x="1" y="1" width="14" height="14" rx="7" fill="#597EFF" stroke="white" stroke-width="2"/>
<g clip-path="url(#clip0_1928_18260)">
<path d="M5.82394 6.80877L5.82424 6.80869C5.99716 6.76282 6.22186 6.78523 6.38539 6.87055C6.40871 6.88272 6.42687 6.89715 6.43036 6.89993C6.43054 6.90007 6.43068 6.90018 6.43078 6.90026C6.43786 6.90584 6.44472 6.91162 6.45048 6.91659C6.46226 6.92674 6.47621 6.93932 6.49111 6.953C6.52124 6.98067 6.56078 7.01795 6.60574 7.06084C6.69593 7.14688 6.81163 7.259 6.9254 7.36985C7.02592 7.4678 7.12536 7.56516 7.20507 7.64335L9.85567 5.18786L9.92756 5.12126H10.0256H11.0256H11.4301L11.2492 5.48307L10.7492 6.48307L10.7276 6.52621L10.6915 6.55823L8.26747 8.70982C8.34488 8.7893 8.43894 8.88605 8.53352 8.98377C8.64645 9.10046 8.76064 9.21906 8.84817 9.31141C8.89181 9.35745 8.92969 9.39787 8.95774 9.4286C8.97161 9.44379 8.98432 9.45798 8.99454 9.46991C8.99954 9.47574 9.00536 9.48267 9.01096 9.48983C9.01102 9.48991 9.01113 9.49004 9.01126 9.49021C9.01387 9.4935 9.02881 9.51235 9.04118 9.53656L9.04122 9.53654L9.04309 9.54037C9.09376 9.64381 9.11028 9.76429 9.10836 9.86888C9.10642 9.97456 9.08511 10.0945 9.03203 10.1987L9.03162 10.1995C8.84236 10.5677 8.40429 10.7175 8.03087 10.5325L8.03003 10.5321C8.00061 10.5174 7.97521 10.4975 7.96581 10.4901L7.96521 10.4896C7.95056 10.4782 7.93434 10.4646 7.91771 10.4503C7.88415 10.4213 7.84224 10.3835 7.79542 10.3401C7.70144 10.2529 7.58256 10.1388 7.46127 10.0187L7.46088 10.0183L7.20045 9.75923L6.76745 10.1922L6.76745 10.1922L6.76694 10.1927C6.56604 10.3925 6.40319 10.5501 6.2826 10.6617C6.22251 10.7173 6.17107 10.7633 6.12966 10.7979C6.09826 10.8241 6.04702 10.8664 5.99717 10.8892L5.99725 10.8894L5.98793 10.8932C5.52905 11.0816 4.99134 10.7791 4.95526 10.2703L5.20463 10.2527L4.95537 10.2718C4.95524 10.2702 4.95511 10.2684 4.95498 10.2667C4.95069 10.2113 4.94474 10.1343 4.9604 10.0528C4.97805 9.96106 5.0182 9.88232 5.07406 9.804C5.1735 9.66459 5.36418 9.47325 5.69047 9.14584L5.69463 9.14166L5.69499 9.1413L6.1364 8.69657L5.87862 8.43602C5.87853 8.43593 5.87845 8.43584 5.87836 8.43575C5.62584 8.18211 5.45755 8.00805 5.36972 7.86042C5.31991 7.7767 5.28848 7.69069 5.28155 7.59441C5.2751 7.50481 5.2915 7.42305 5.30791 7.35533C5.33842 7.22488 5.41593 7.10632 5.4975 7.01867C5.57825 6.93191 5.69249 6.84383 5.82394 6.80877Z" fill="white" stroke="white" stroke-width="0.5"/>
</g>
<defs>
<clipPath id="clip0_1928_18260">
<rect width="8" height="8" fill="white" transform="translate(4.7002 4.2)"/>
</clipPath>
</defs>
</svg>
