<svg width="17" height="16" viewBox="0 0 17 16" fill="none" xmlns="http://www.w3.org/2000/svg">
<g clip-path="url(#clip0_1928_18255)">
<rect x="1.75" y="1" width="14" height="14" rx="7" fill="#597EFF" stroke="white" stroke-width="2"/>
<path d="M7.22209 5.00931L5.75233 5.6628L5.75 6.76977C5.75 7.38605 5.76163 7.98605 5.77558 8.11861C5.87093 9.07442 6.27791 9.92791 6.9593 10.6047C7.41977 11.0651 7.96628 11.414 8.50581 11.5954L8.74535 11.6744L8.9407 11.614C9.19651 11.5349 9.59651 11.3395 9.85465 11.1674C10.7477 10.5721 11.3686 9.71163 11.6198 8.72094C11.7314 8.27907 11.75 8.00233 11.75 6.77907L11.7477 5.6628L10.2663 5.00466C9.45233 4.64419 8.76395 4.34884 8.73837 4.35117C8.71279 4.35117 8.02907 4.64884 7.22209 5.00931Z" fill="white"/>
</g>
<defs>
<clipPath id="clip0_1928_18255">
<rect width="16" height="16" fill="white" transform="translate(0.75)"/>
</clipPath>
</defs>
</svg>
