<svg width="14" height="14" viewBox="0 0 14 14" fill="none" xmlns="http://www.w3.org/2000/svg">
<g filter="url(#filter0_d_1922_14399)">
<path fill-rule="evenodd" clip-rule="evenodd" d="M11.4988 0.57675C11.4955 0.58011 11.3652 0.58329 11.2092 0.58386C11.0533 0.5844 10.924 0.58953 10.9219 0.59529C10.9199 0.60102 10.8361 0.60708 10.7358 0.60873C10.6355 0.61038 10.556 0.61587 10.5591 0.62094C10.5623 0.62601 10.4904 0.63294 10.3995 0.63639C10.3086 0.63981 10.164 0.64818 10.0782 0.65496C9.99238 0.66171 9.87361 0.67044 9.81424 0.67431C9.75487 0.67818 9.7006 0.68607 9.69364 0.69186C9.68668 0.69762 9.62869 0.70326 9.56476 0.70434C9.50083 0.70542 9.45148 0.71103 9.45508 0.71685C9.45865 0.72267 9.40774 0.72741 9.34189 0.72741C9.27604 0.72741 9.22039 0.73251 9.21817 0.73875C9.21598 0.74502 9.17233 0.7512 9.12118 0.75252C9.07003 0.75384 9.02818 0.75954 9.02818 0.76515C9.02818 0.77079 8.99005 0.77541 8.94346 0.77541C8.89006 0.77541 8.8615 0.77985 8.86618 0.78741C8.87086 0.79497 8.8423 0.79941 8.7889 0.79941C8.74231 0.79941 8.70418 0.80427 8.70418 0.81018C8.70418 0.81609 8.65693 0.82383 8.59918 0.82734C8.42746 0.83775 8.18512 0.87285 8.09464 0.90036C8.08339 0.90378 8.04988 0.90765 8.02018 0.90897C7.99048 0.91026 7.96039 0.91572 7.95331 0.92109C7.94623 0.92643 7.91269 0.9318 7.87876 0.933001C7.84486 0.9342 7.81951 0.93909 7.82245 0.943861C7.82542 0.948631 7.79686 0.955891 7.759 0.959941C7.63375 0.973411 7.58812 0.981811 7.5814 0.992671C7.57774 0.998581 7.55455 1.00341 7.52986 1.00341C7.50517 1.00341 7.47985 1.00851 7.47358 1.01475C7.46731 1.02096 7.43653 1.02738 7.40518 1.02897C7.37383 1.03059 7.34818 1.03629 7.34818 1.04166C7.34818 1.04703 7.33102 1.05141 7.31002 1.05141C7.28905 1.05141 7.25395 1.05681 7.23202 1.06341C7.21012 1.07001 7.17463 1.0806 7.15318 1.0869C7.13173 1.09323 7.09156 1.09968 7.0639 1.10121C7.03624 1.10277 7.01632 1.10838 7.01959 1.11372C7.02289 1.11906 7.00369 1.12341 6.9769 1.12341C6.95011 1.12341 6.92818 1.12881 6.92818 1.13541C6.92818 1.14201 6.90625 1.14741 6.87946 1.14741C6.85006 1.14741 6.83371 1.15215 6.83818 1.15941C6.84448 1.16958 6.77956 1.17867 6.74428 1.17252C6.73885 1.17159 6.73783 1.17636 6.742 1.18311C6.74677 1.19082 6.72919 1.19541 6.6949 1.19541C6.66481 1.19541 6.64018 1.20081 6.64018 1.20741C6.64018 1.21401 6.62398 1.21941 6.60418 1.21941C6.58438 1.21941 6.56818 1.22376 6.56818 1.22907C6.56818 1.23438 6.54523 1.24005 6.51718 1.24167C6.48913 1.24329 6.46438 1.24974 6.46219 1.25601C6.45997 1.26228 6.43972 1.26741 6.41719 1.26741C6.39463 1.26741 6.37618 1.27281 6.37618 1.27941C6.37618 1.28601 6.36268 1.29141 6.34618 1.29141C6.32968 1.29141 6.31618 1.29624 6.31618 1.30215C6.31618 1.30806 6.29593 1.31565 6.27118 1.31904C6.18784 1.33038 6.16495 1.33554 6.14281 1.34793C6.13069 1.35471 6.11074 1.35765 6.09847 1.35444C6.0862 1.35123 6.07618 1.35465 6.07618 1.362C6.07618 1.36938 6.06241 1.37541 6.04558 1.37541C6.02875 1.37541 5.99905 1.38366 5.97958 1.39371C5.96011 1.40379 5.94418 1.40853 5.94418 1.40424C5.94418 1.39998 5.93692 1.40247 5.92807 1.40982C5.91922 1.41717 5.89489 1.42506 5.87404 1.42734C5.85316 1.42965 5.83252 1.43508 5.82814 1.43946C5.82376 1.44384 5.81029 1.44741 5.79817 1.44741C5.78608 1.44741 5.77618 1.45281 5.77618 1.45941C5.77618 1.46601 5.76532 1.47141 5.75203 1.47141C5.73874 1.47141 5.71849 1.47654 5.70703 1.48284C5.68318 1.49592 5.5417 1.54473 5.51719 1.54833C5.50822 1.54965 5.49712 1.55448 5.49253 1.55907C5.48794 1.56366 5.47672 1.56741 5.4676 1.56741C5.45848 1.56741 5.42866 1.57821 5.40136 1.59141C5.37403 1.60461 5.3392 1.61541 5.32393 1.61541C5.30866 1.61541 5.29618 1.62081 5.29618 1.62741C5.29618 1.63401 5.28268 1.63941 5.26618 1.63941C5.24968 1.63941 5.23618 1.64481 5.23618 1.65141C5.23618 1.65801 5.22538 1.66341 5.21218 1.66341C5.19898 1.66341 5.18818 1.66881 5.18818 1.67541C5.18818 1.68201 5.17501 1.68741 5.1589 1.68741C5.14279 1.68741 5.12626 1.69281 5.12218 1.69941C5.1181 1.70601 5.10472 1.71141 5.09248 1.71141C5.08021 1.71141 5.06839 1.71675 5.06617 1.72332C5.06398 1.72986 5.04733 1.73643 5.02918 1.73793C5.01103 1.73943 4.99618 1.74486 4.99618 1.75002C4.99618 1.75518 4.98538 1.75941 4.97218 1.75941C4.95898 1.75941 4.94818 1.76481 4.94818 1.77141C4.94818 1.77801 4.93846 1.78341 4.92658 1.78341C4.89976 1.78341 4.84039 1.81023 4.84027 1.82241C4.84021 1.82736 4.82971 1.83141 4.8169 1.83141C4.80409 1.83141 4.79041 1.83657 4.78651 1.8429C4.78261 1.8492 4.77148 1.85133 4.76179 1.84761C4.7521 1.84389 4.74418 1.84683 4.74418 1.85412C4.74418 1.86144 4.73623 1.86741 4.72654 1.86741C4.71685 1.86741 4.68967 1.87821 4.66618 1.89141C4.64269 1.90461 4.61512 1.91541 4.60495 1.91541C4.59478 1.91541 4.57837 1.92351 4.56847 1.93338C4.5586 1.94328 4.53604 1.95492 4.51834 1.95924C4.50064 1.96356 4.48348 1.97031 4.48018 1.97427C4.4686 1.98807 4.42033 2.01141 4.40335 2.01141C4.3939 2.01141 4.3843 2.01705 4.38199 2.02395C4.37971 2.03085 4.36612 2.03736 4.35184 2.03844C4.33753 2.03952 4.3285 2.04468 4.33171 2.0499C4.33495 2.05512 4.32649 2.05941 4.3129 2.05941C4.29931 2.05941 4.28818 2.06481 4.28818 2.07141C4.28818 2.07801 4.28008 2.08341 4.27018 2.08341C4.26028 2.08341 4.25218 2.08881 4.25218 2.09541C4.25218 2.10201 4.24138 2.10741 4.22818 2.10741C4.21498 2.10741 4.20418 2.11281 4.20418 2.11941C4.20418 2.12601 4.19338 2.13141 4.18018 2.13141C4.16698 2.13141 4.15618 2.13681 4.15618 2.14341C4.15618 2.15001 4.14538 2.15541 4.13218 2.15541C4.11898 2.15541 4.10815 2.15946 4.10809 2.16441C4.10797 2.17536 4.04971 2.20341 4.02709 2.20341C4.01812 2.20341 4.0141 2.20881 4.01818 2.21541C4.02451 2.22567 4.009 2.2302 3.98053 2.22639C3.9763 2.22582 3.96955 2.22987 3.96553 2.23539C3.95056 2.25582 3.88054 2.29941 3.86266 2.29941C3.85249 2.29941 3.84418 2.30379 3.84418 2.30916C3.84418 2.3145 3.80368 2.34 3.75418 2.3658C3.70468 2.39163 3.66418 2.41692 3.66418 2.42208C3.66418 2.42721 3.65584 2.43141 3.64567 2.43141C3.63547 2.43141 3.61288 2.44461 3.59548 2.46078C3.57805 2.47692 3.55939 2.48739 3.55399 2.48406C3.54859 2.48073 3.54418 2.4837 3.54418 2.49069C3.54418 2.49768 3.53608 2.50341 3.52618 2.50341C3.51628 2.50341 3.50818 2.50881 3.50818 2.51541C3.50818 2.52201 3.50284 2.52741 3.49633 2.52741C3.48517 2.52741 3.45373 2.55021 3.4177 2.58441C3.409 2.59266 3.3961 2.59941 3.38905 2.59941C3.38197 2.59941 3.37618 2.60481 3.37618 2.61141C3.37618 2.61801 3.36769 2.62341 3.35731 2.62341C3.33496 2.62341 3.30211 2.65332 3.31276 2.66397C3.31684 2.66808 3.30967 2.67141 3.29683 2.67141C3.28399 2.67141 3.26569 2.68221 3.25618 2.69541C3.24667 2.70861 3.23311 2.71941 3.22606 2.71941C3.21898 2.71941 3.18934 2.74101 3.16018 2.76741C3.13102 2.79381 3.10249 2.81541 3.09679 2.81541C3.09112 2.81541 3.07894 2.82216 3.06973 2.83041C3.03064 2.86548 3.01657 2.87541 3.00598 2.87541C2.9998 2.87541 2.99134 2.88429 2.98717 2.89512C2.98303 2.90598 2.97634 2.91156 2.97229 2.90754C2.96827 2.90352 2.95447 2.9136 2.94163 2.92992C2.92876 2.94627 2.91355 2.95674 2.90782 2.9532C2.90209 2.94963 2.89153 2.9577 2.88436 2.97108C2.87719 2.98446 2.86312 2.99541 2.85304 2.99541C2.84299 2.99541 2.8381 3.00081 2.84218 3.00741C2.84626 3.01401 2.84086 3.01941 2.83018 3.01941C2.8195 3.01941 2.8141 3.02481 2.81818 3.03141C2.82226 3.03801 2.81854 3.04344 2.8099 3.04344C2.80126 3.04347 2.78338 3.05964 2.77018 3.07941C2.75698 3.09918 2.73943 3.11535 2.73118 3.11538C2.72293 3.11538 2.71618 3.12081 2.71618 3.12741C2.71618 3.13401 2.71069 3.13941 2.704 3.13941C2.69731 3.13941 2.64637 3.18396 2.59078 3.23841C2.53522 3.29286 2.44144 3.38442 2.38243 3.4419C2.32339 3.49938 2.25898 3.57075 2.23927 3.60051C2.21956 3.6303 2.2 3.65121 2.1958 3.64704C2.1916 3.64284 2.18818 3.64584 2.18818 3.65373C2.18818 3.66159 2.16388 3.69234 2.13418 3.72204C2.10448 3.75174 2.08018 3.78117 2.08018 3.78744C2.08018 3.79371 2.06128 3.81603 2.03818 3.83706C2.01508 3.85806 1.99618 3.88188 1.99618 3.88998C1.99618 3.89808 1.98037 3.91728 1.96108 3.93267C1.94176 3.94803 1.92823 3.96426 1.93102 3.96876C1.93378 3.97323 1.92796 3.97998 1.91812 3.98379C1.90825 3.98757 1.90018 3.99894 1.90018 4.00902C1.90018 4.01913 1.89478 4.02741 1.88818 4.02741C1.88158 4.02741 1.87618 4.03551 1.87618 4.04541C1.87618 4.05531 1.87078 4.06341 1.86418 4.06341C1.85758 4.06341 1.85218 4.07151 1.85218 4.08141C1.85218 4.09131 1.84678 4.09941 1.84018 4.09941C1.83358 4.09941 1.82818 4.10751 1.82818 4.11741C1.82818 4.12731 1.82278 4.13541 1.81618 4.13541C1.80958 4.13541 1.80418 4.14351 1.80418 4.15341C1.80418 4.16331 1.79914 4.17141 1.79299 4.17141C1.78282 4.17141 1.76116 4.22004 1.76722 4.22931C1.7686 4.23147 1.75861 4.2429 1.74496 4.25472C1.73134 4.26654 1.72018 4.28386 1.72018 4.29319C1.72018 4.30249 1.70938 4.3179 1.69618 4.32741C1.68298 4.33692 1.67218 4.35162 1.67218 4.36005C1.67218 4.36852 1.66645 4.37542 1.65946 4.37542C1.65247 4.37542 1.64983 4.38037 1.65358 4.38646C1.65733 4.39252 1.65226 4.40563 1.6423 4.41559C1.63234 4.42555 1.62418 4.4395 1.62418 4.44655C1.62418 4.45363 1.61878 4.45942 1.61218 4.45942C1.60558 4.45942 1.60018 4.47055 1.60018 4.48414C1.60018 4.49773 1.59478 4.5055 1.58818 4.50142C1.58158 4.49734 1.57618 4.50136 1.57618 4.51033C1.57618 4.53295 1.54813 4.59121 1.53718 4.59133C1.53223 4.59139 1.52818 4.60222 1.52818 4.61542C1.52818 4.62862 1.52278 4.63942 1.51618 4.63942C1.50958 4.63942 1.50418 4.65022 1.50418 4.66342C1.50418 4.67662 1.49878 4.68742 1.49218 4.68742C1.48558 4.68742 1.48018 4.69822 1.48018 4.71142C1.48018 4.72462 1.47478 4.73542 1.46818 4.73542C1.46158 4.73542 1.45618 4.74622 1.45618 4.75942C1.45618 4.77262 1.45078 4.78342 1.44418 4.78342C1.43758 4.78342 1.43218 4.79422 1.43218 4.80742C1.43218 4.82062 1.42741 4.83142 1.42159 4.83142C1.41307 4.83142 1.3954 4.87195 1.39927 4.88269C1.39981 4.88419 1.39282 4.89892 1.38379 4.91542C1.37473 4.93192 1.36609 4.95298 1.36456 4.96222C1.36303 4.97146 1.35736 4.98226 1.35199 4.98622C1.34659 4.99018 1.34029 5.00422 1.33798 5.01742C1.33567 5.03062 1.32823 5.04487 1.32145 5.04907C1.31467 5.0533 1.31254 5.0623 1.31674 5.06911C1.32097 5.07592 1.31572 5.09017 1.30513 5.10076C1.29451 5.11135 1.28875 5.12761 1.29229 5.13685C1.29586 5.14609 1.29136 5.1598 1.2823 5.16733C1.27327 5.17483 1.26787 5.19142 1.27033 5.2042C1.27279 5.21698 1.2697 5.22742 1.26349 5.22742C1.25728 5.22742 1.25218 5.24059 1.25218 5.2567C1.25218 5.27281 1.24678 5.28934 1.24018 5.29342C1.23358 5.2975 1.22818 5.31403 1.22818 5.33014C1.22818 5.34625 1.22278 5.35942 1.21618 5.35942C1.20958 5.35942 1.20418 5.37562 1.20418 5.39542C1.20418 5.41522 1.19878 5.43142 1.19218 5.43142C1.18558 5.43142 1.18018 5.44762 1.18018 5.46742C1.18018 5.48722 1.17478 5.50342 1.16818 5.50342C1.16158 5.50342 1.15618 5.52469 1.15618 5.5507C1.15618 5.57671 1.15078 5.60134 1.14418 5.60542C1.13758 5.6095 1.13218 5.63143 1.13218 5.65414C1.13218 5.67685 1.12678 5.69542 1.12018 5.69542C1.11358 5.69542 1.10818 5.71669 1.10818 5.7427C1.10818 5.76871 1.10278 5.79334 1.09618 5.79742C1.08958 5.8015 1.08418 5.82883 1.08418 5.85814C1.08418 5.88745 1.07878 5.91142 1.07218 5.91142C1.06558 5.91142 1.06018 5.93572 1.06018 5.96542C1.06018 5.99512 1.05538 6.01942 1.0495 6.01942C1.04365 6.01942 1.03909 6.02617 1.03939 6.03442C1.04236 6.11365 1.03399 6.22348 1.02541 6.2182C0.99478 6.19924 0.99106 7.4311 1.02166 7.4617C1.02991 7.46995 1.03618 7.5085 1.03618 7.5511C1.03618 7.59229 1.04158 7.62934 1.04818 7.63342C1.05478 7.6375 1.06018 7.66753 1.06018 7.70014C1.06018 7.73275 1.06558 7.75942 1.07218 7.75942C1.07878 7.75942 1.08418 7.77832 1.08418 7.80142C1.08418 7.82452 1.08958 7.84342 1.09618 7.84342C1.10278 7.84342 1.10818 7.86469 1.10818 7.8907C1.10818 7.91671 1.11358 7.94134 1.12018 7.94542C1.12678 7.9495 1.13218 7.97143 1.13218 7.99414C1.13218 8.01685 1.13758 8.03542 1.14418 8.03542C1.15078 8.03542 1.15618 8.05399 1.15618 8.0767C1.15618 8.09941 1.16158 8.12134 1.16818 8.12542C1.17478 8.1295 1.18018 8.14873 1.18018 8.16814C1.18018 8.18755 1.18558 8.20342 1.19218 8.20342C1.19878 8.20342 1.20418 8.21725 1.20418 8.23414C1.20418 8.25154 1.20937 8.26162 1.21618 8.25742C1.22296 8.25322 1.22818 8.26306 1.22818 8.28001C1.22818 8.29651 1.23295 8.31295 1.2388 8.31655C1.24462 8.32018 1.25305 8.34736 1.25749 8.377C1.26193 8.40661 1.27066 8.434 1.27687 8.43784C1.28308 8.44168 1.28818 8.45803 1.28818 8.47414C1.28818 8.49025 1.29295 8.50342 1.29877 8.50342C1.30909 8.50342 1.32808 8.5483 1.32547 8.56642C1.32475 8.57137 1.32916 8.57542 1.33522 8.57542C1.34131 8.57542 1.34983 8.59162 1.35418 8.61142C1.35853 8.63122 1.36705 8.64742 1.37314 8.64742C1.3792 8.64742 1.38418 8.65822 1.38418 8.67142C1.38418 8.68462 1.38958 8.69542 1.39618 8.69542C1.40278 8.69542 1.40818 8.7052 1.40818 8.71717C1.40818 8.72911 1.41793 8.74936 1.42984 8.76217C1.44178 8.77495 1.45171 8.7898 1.45192 8.79517C1.45276 8.81683 1.48531 8.88742 1.49443 8.88742C1.4998 8.88742 1.50418 8.89552 1.50418 8.90542C1.50418 8.91532 1.50958 8.92342 1.51618 8.92342C1.52278 8.92342 1.52818 8.93455 1.52818 8.94814C1.52818 8.96173 1.53358 8.9695 1.54018 8.96542C1.54678 8.96134 1.55218 8.96641 1.55218 8.9767C1.55218 8.98699 1.55758 8.99542 1.56418 8.99542C1.57078 8.99542 1.57618 9.00352 1.57618 9.01342C1.57618 9.02332 1.58158 9.03142 1.58818 9.03142C1.59478 9.03142 1.60018 9.03952 1.60018 9.04942C1.60018 9.05932 1.60558 9.06742 1.61218 9.06742C1.61878 9.06742 1.62418 9.07576 1.62418 9.08596C1.62418 9.09616 1.63741 9.11776 1.65361 9.13393C1.66978 9.1501 1.69201 9.18226 1.70296 9.20539C1.71394 9.22849 1.72771 9.24742 1.73356 9.24742C1.73941 9.24742 1.74418 9.253 1.74418 9.25981C1.74418 9.26665 1.76038 9.28807 1.78018 9.30742C1.79998 9.32677 1.81618 9.34819 1.81618 9.35503C1.81618 9.36184 1.82248 9.36742 1.83019 9.36742C1.83787 9.36742 1.84078 9.37084 1.83661 9.37501C1.83244 9.37918 1.84504 9.39754 1.8646 9.41581C1.88416 9.43408 1.90018 9.45172 1.90018 9.45499C1.90018 9.47122 1.96804 9.53542 1.98517 9.53542C1.99705 9.53542 2.02063 9.50569 2.04466 9.46042C2.08444 9.38548 2.27389 9.06613 2.39044 8.87755C2.4244 8.82259 2.45218 8.77489 2.45218 8.7715C2.45218 8.75554 2.96599 8.00536 3.10426 7.81942C3.19018 7.70392 3.30652 7.54732 3.36286 7.47142C3.44773 7.35703 3.56617 7.20847 3.59248 7.18342C3.59593 7.18012 3.64717 7.11802 3.70633 7.04542C4.11118 6.54853 4.28116 6.36139 4.79161 5.85064C5.30089 5.34103 5.6647 5.01784 6.15499 4.63942C6.19348 4.60972 6.26035 4.55815 6.30358 4.52482C6.62611 4.27623 7.25911 3.85827 7.58818 3.67662C7.61788 3.66021 7.66378 3.63447 7.69018 3.61941C7.91281 3.49236 8.23315 3.33084 8.29318 3.31536C8.59561 3.23742 8.76139 3.63543 8.49676 3.80415C8.46235 3.82608 8.34238 3.89076 8.23018 3.94785C8.11798 4.00494 8.00188 4.06587 7.97218 4.08324C7.88797 4.13247 7.83958 4.15999 7.76818 4.19923C7.56127 4.31293 7.0876 4.61866 6.82747 4.80643C6.55753 5.00128 6.49399 5.0479 6.47833 5.06263C6.46969 5.07076 6.4102 5.11792 6.34609 5.16742C6.22726 5.25922 6.10963 5.35462 5.99293 5.45389C5.84995 5.57554 5.74588 5.66515 5.74018 5.67151C5.73688 5.6752 5.68018 5.72614 5.61418 5.78473C5.35291 6.01672 4.786 6.59005 4.53412 6.87706C4.48795 6.92968 4.42804 6.99718 4.40098 7.02706C4.30246 7.1359 3.84637 7.70008 3.73696 7.84843C3.50131 8.16805 3.46978 8.21065 3.45643 8.22742C3.3613 8.34694 2.95651 8.96212 2.80891 9.21142C2.73661 9.33352 2.66458 9.45355 2.64883 9.47815C2.63308 9.50278 2.62018 9.52516 2.62018 9.52795C2.62018 9.53071 2.59945 9.56728 2.57407 9.60919C2.49154 9.74569 2.40826 9.91366 2.41417 9.93175C2.4205 9.95116 2.44804 9.97753 2.51218 10.0257C2.53528 10.043 2.56291 10.0667 2.57359 10.0783C2.58427 10.0899 2.60182 10.0994 2.61259 10.0994C2.62336 10.0994 2.63218 10.1035 2.63218 10.1085C2.63218 10.1134 2.65648 10.1304 2.68618 10.1461C2.71588 10.1619 2.74018 10.1788 2.74018 10.1837C2.74018 10.1886 2.74963 10.1959 2.76118 10.2C2.77273 10.204 2.80648 10.2234 2.83618 10.2431C2.86588 10.2628 2.91448 10.2912 2.94418 10.3062C2.97388 10.3212 2.99998 10.3375 3.00217 10.3424C3.00439 10.3474 3.01654 10.3514 3.02917 10.3514C3.04183 10.3514 3.05218 10.3568 3.05218 10.3634C3.05218 10.37 3.06298 10.3754 3.07618 10.3754C3.08938 10.3754 3.10018 10.3808 3.10018 10.3874C3.10018 10.394 3.11098 10.3994 3.12418 10.3994C3.13738 10.3994 3.14818 10.4048 3.14818 10.4114C3.14818 10.418 3.15898 10.4234 3.17218 10.4234C3.18538 10.4234 3.19618 10.4288 3.19618 10.4354C3.19618 10.442 3.20698 10.4474 3.22018 10.4474C3.23338 10.4474 3.24418 10.4528 3.24418 10.4594C3.24418 10.466 3.25498 10.4714 3.26818 10.4714C3.28138 10.4714 3.29218 10.4768 3.29218 10.4834C3.29218 10.49 3.30028 10.4954 3.31018 10.4954C3.32008 10.4954 3.32818 10.5008 3.32818 10.5074C3.32818 10.514 3.34174 10.5194 3.35833 10.5194C3.37492 10.5194 3.39787 10.5241 3.40933 10.5299C3.50251 10.5768 3.53755 10.5914 3.55732 10.5914C3.56989 10.5914 3.58018 10.5968 3.58018 10.6034C3.58018 10.61 3.59368 10.6154 3.61018 10.6154C3.62668 10.6154 3.64021 10.6195 3.64024 10.6244C3.64027 10.6294 3.68212 10.646 3.73324 10.6614C3.78436 10.6768 3.83557 10.6944 3.84703 10.7004C3.85849 10.7065 3.87841 10.7114 3.89131 10.7114C3.90421 10.7114 3.91738 10.7157 3.92056 10.7208C3.92374 10.726 3.94423 10.7316 3.96607 10.7332C3.98791 10.7349 4.01101 10.7415 4.01737 10.7478C4.02376 10.7542 4.04032 10.7594 4.05418 10.7594C4.06804 10.7594 4.0846 10.7646 4.09099 10.771C4.09735 10.7774 4.12003 10.7839 4.14139 10.7856C4.16272 10.7872 4.18018 10.7917 4.18018 10.7956C4.18018 10.7994 4.19233 10.8031 4.20718 10.8038C4.26595 10.8062 4.37884 10.8228 4.39018 10.8306C4.39678 10.8352 4.42378 10.8405 4.45018 10.8424C4.47655 10.8442 4.50727 10.8507 4.51837 10.8566C4.5295 10.8626 4.56325 10.8674 4.5934 10.8674C4.62352 10.8674 4.64818 10.8728 4.64818 10.8794C4.64818 10.8864 4.68817 10.8914 4.74418 10.8914C4.80019 10.8914 4.84018 10.8964 4.84018 10.9034C4.84018 10.91 4.84423 10.9148 4.84918 10.914C4.89415 10.9069 5.05618 10.9177 5.05018 10.9274C5.04532 10.9353 5.1283 10.9394 5.29018 10.9394C5.45986 10.9394 5.53516 10.9434 5.52982 10.952C5.52454 10.9605 5.56297 10.964 5.6491 10.9626C5.719 10.9615 5.77618 10.9558 5.77618 10.95C5.77618 10.9442 5.85943 10.9394 5.96119 10.9394C6.06682 10.9394 6.14791 10.9345 6.15019 10.9281C6.15238 10.9218 6.19873 10.9156 6.25318 10.9144C6.30763 10.9131 6.35218 10.9074 6.35218 10.9017C6.35218 10.8961 6.3835 10.8914 6.42178 10.8914C6.46006 10.8914 6.49651 10.8863 6.50278 10.8801C6.50905 10.8739 6.53983 10.8675 6.57118 10.8659C6.60253 10.8642 6.62818 10.8585 6.62818 10.8532C6.62818 10.8478 6.64978 10.8434 6.67618 10.8434C6.70258 10.8434 6.72418 10.838 6.72418 10.8314C6.72418 10.8248 6.73903 10.8195 6.75718 10.8196C6.799 10.8198 6.96811 10.7813 6.97639 10.7697C6.97984 10.7649 6.99718 10.759 7.01494 10.7567C7.03273 10.7543 7.05109 10.7485 7.05574 10.7439C7.06039 10.7392 7.07308 10.7354 7.08394 10.7354C7.0948 10.7354 7.12603 10.7246 7.15336 10.7114C7.18066 10.6982 7.20874 10.6874 7.21573 10.6874C7.22791 10.6874 7.28695 10.6628 7.39018 10.6146C7.41658 10.6023 7.44628 10.5906 7.45618 10.5888C7.46608 10.587 7.47688 10.5827 7.48018 10.5794C7.49452 10.5651 7.54135 10.5434 7.55803 10.5434C7.56802 10.5434 7.57618 10.538 7.57618 10.5314C7.57618 10.5248 7.58731 10.5194 7.6009 10.5194C7.61449 10.5194 7.62226 10.514 7.61818 10.5074C7.6141 10.5008 7.61941 10.4954 7.62997 10.4954C7.64053 10.4954 7.66078 10.4846 7.67494 10.4714C7.6891 10.4582 7.71049 10.4474 7.72243 10.4474C7.7344 10.4474 7.74418 10.442 7.74418 10.4354C7.74418 10.4288 7.75228 10.4234 7.76218 10.4234C7.77208 10.4234 7.78018 10.4187 7.78018 10.4128C7.78018 10.407 7.78963 10.3992 7.80118 10.3956C7.82329 10.3886 7.88995 10.3502 7.90018 10.3386C7.90348 10.3349 7.936 10.3149 7.97245 10.2943C8.0089 10.2737 8.05168 10.243 8.06755 10.2261C8.08339 10.2092 8.10115 10.1954 8.10697 10.1954C8.12176 10.1954 8.20882 10.1263 8.26195 10.0724C8.28634 10.0477 8.31244 10.0274 8.31994 10.0274C8.32744 10.0274 8.33026 10.022 8.32618 10.0154C8.32018 10.0057 8.33503 9.99838 8.34718 10.0051C8.35252 10.008 8.65618 9.70582 8.65618 9.69754C8.65618 9.69313 8.67778 9.66814 8.70418 9.64201C8.73058 9.61588 8.75218 9.58912 8.75218 9.58258C8.75218 9.57604 8.76028 9.56755 8.77018 9.56377C8.78008 9.55996 8.78818 9.5503 8.78818 9.54226C8.78818 9.53422 8.81518 9.49876 8.84818 9.46342C8.88118 9.42808 8.90818 9.39451 8.90818 9.38881C8.90818 9.38308 8.91898 9.36682 8.93218 9.35266C8.94538 9.3385 8.95618 9.31948 8.95618 9.31045C8.95618 9.30139 8.96158 9.29734 8.96818 9.30142C8.97478 9.3055 8.98018 9.30043 8.98018 9.29014C8.98018 9.27985 8.98558 9.27142 8.99218 9.27142C8.99878 9.27142 9.00418 9.26332 9.00418 9.25342C9.00418 9.24352 9.00958 9.23542 9.01618 9.23542C9.02278 9.23542 9.02818 9.22852 9.02818 9.22006C9.02818 9.21163 9.03898 9.19693 9.05218 9.18742C9.06538 9.17791 9.07618 9.1657 9.07618 9.16027C9.07618 9.15094 9.12256 9.08011 9.13702 9.06742C9.14077 9.06412 9.1561 9.03577 9.17107 9.00442C9.18607 8.97307 9.20323 8.94742 9.20926 8.94742C9.21526 8.94742 9.22018 8.93728 9.22018 8.92489C9.22018 8.9125 9.22828 8.89564 9.23818 8.88742C9.24808 8.8792 9.25618 8.86279 9.25618 8.85094C9.25618 8.83912 9.26023 8.82763 9.26518 8.82541C9.27646 8.8204 9.31543 8.7565 9.32431 8.72842C9.32797 8.71687 9.33574 8.70742 9.34159 8.70742C9.34741 8.70742 9.35218 8.69932 9.35218 8.68942C9.35218 8.67952 9.35758 8.67142 9.36418 8.67142C9.37078 8.67142 9.37618 8.65759 9.37618 8.6407C9.37618 8.6233 9.38137 8.61322 9.38818 8.61742C9.39478 8.6215 9.40018 8.61373 9.40018 8.60014C9.40018 8.58655 9.40558 8.57542 9.41218 8.57542C9.41878 8.57542 9.42418 8.56294 9.42418 8.54767C9.42418 8.53243 9.43519 8.50813 9.44866 8.49367C9.4621 8.47924 9.46957 8.46742 9.46528 8.46742C9.46096 8.46742 9.46615 8.4541 9.4768 8.43784C9.48745 8.42158 9.49618 8.39998 9.49618 8.38984C9.49618 8.3797 9.50158 8.37142 9.50818 8.37142C9.51478 8.37142 9.52018 8.3644 9.52018 8.35582C9.52018 8.33374 9.54841 8.27563 9.55918 8.27551C9.56413 8.27545 9.56818 8.26747 9.56818 8.25778C9.56818 8.24809 9.57898 8.22091 9.59218 8.19742C9.60538 8.17393 9.61618 8.14405 9.61618 8.13106C9.61618 8.11807 9.62191 8.10742 9.6289 8.10742C9.63589 8.10742 9.63874 8.10283 9.63526 8.09719C9.63178 8.09155 9.6367 8.0767 9.64618 8.06419C9.65566 8.05168 9.66358 8.03299 9.66379 8.02267C9.664 8.01235 9.67498 7.98157 9.68818 7.95424C9.70138 7.92694 9.71218 7.89622 9.71218 7.88599C9.71218 7.87579 9.7174 7.86742 9.72376 7.86742C9.73015 7.86742 9.73894 7.84042 9.74332 7.80742C9.7477 7.77442 9.75598 7.74742 9.76174 7.74742C9.76747 7.74742 9.77218 7.73425 9.77218 7.71814C9.77218 7.70203 9.77758 7.6855 9.78418 7.68142C9.79078 7.67734 9.79618 7.66081 9.79618 7.6447C9.79618 7.62859 9.80158 7.61542 9.80818 7.61542C9.81478 7.61542 9.82018 7.59922 9.82018 7.57942C9.82018 7.55962 9.82558 7.54342 9.83218 7.54342C9.83878 7.54342 9.84418 7.52722 9.84418 7.50742C9.84418 7.48762 9.84958 7.47142 9.85618 7.47142C9.86278 7.47142 9.86818 7.45825 9.86818 7.44214C9.86818 7.42603 9.87358 7.4095 9.88018 7.40542C9.88678 7.40134 9.89218 7.38211 9.89218 7.3627C9.89218 7.34329 9.89758 7.32742 9.90418 7.32742C9.91078 7.32742 9.91618 7.31155 9.91618 7.29214C9.91618 7.27273 9.92158 7.2535 9.92818 7.24942C9.93478 7.24534 9.94018 7.22644 9.94018 7.20742C9.94018 7.1884 9.94558 7.1695 9.95218 7.16542C9.95878 7.16134 9.96418 7.14481 9.96418 7.1287C9.96418 7.11259 9.96844 7.09942 9.97363 7.09942C9.97882 7.09942 9.9844 7.08187 9.98602 7.06042C9.98761 7.03897 9.99418 7.01962 10.0006 7.01743C10.007 7.01521 10.0122 6.99496 10.0122 6.97243C10.0122 6.94987 10.0176 6.93142 10.0242 6.93142C10.0308 6.93142 10.0362 6.90982 10.0362 6.88342C10.0362 6.85702 10.0416 6.83542 10.0482 6.83542C10.0548 6.83542 10.0602 6.81382 10.0602 6.78742C10.0602 6.76102 10.0656 6.73942 10.0722 6.73942C10.0788 6.73942 10.0842 6.72052 10.0842 6.69742C10.0842 6.67432 10.089 6.65542 10.0949 6.65542C10.1008 6.65542 10.1089 6.63382 10.1129 6.60742C10.1169 6.58102 10.1235 6.53779 10.1274 6.51133C10.1314 6.4849 10.1395 6.46027 10.1454 6.45664C10.1514 6.45298 10.1562 6.43141 10.1562 6.4087C10.1562 6.38599 10.1616 6.36742 10.1682 6.36742C10.1748 6.36742 10.1802 6.34843 10.1802 6.32521C10.1802 6.30199 10.1912 6.2419 10.2047 6.19168C10.2181 6.14146 10.2264 6.09766 10.2231 6.09436C10.2198 6.09106 10.224 6.0742 10.2324 6.05689C10.2408 6.03958 10.2467 6.01315 10.2456 5.99812C10.2444 5.98312 10.2481 5.96794 10.2538 5.96443C10.2595 5.96089 10.2642 5.93704 10.2642 5.91142C10.2642 5.8858 10.2696 5.8615 10.2762 5.85742C10.2828 5.85334 10.2882 5.82871 10.2882 5.8027C10.2882 5.77669 10.2936 5.75542 10.3002 5.75542C10.3068 5.75542 10.3122 5.73079 10.3122 5.7007C10.3122 5.66731 10.3169 5.64889 10.3242 5.65342C10.3315 5.65795 10.3362 5.63953 10.3362 5.60614C10.3362 5.57605 10.3416 5.55142 10.3482 5.55142C10.3548 5.55142 10.3602 5.53015 10.3602 5.50414C10.3602 5.47813 10.3656 5.4535 10.3722 5.44942C10.3788 5.44534 10.3842 5.42644 10.3842 5.40742C10.3842 5.3884 10.3896 5.3695 10.3962 5.36542C10.4028 5.36134 10.4082 5.33941 10.4082 5.3167C10.4082 5.29399 10.4136 5.27542 10.4202 5.27542C10.4268 5.27542 10.4322 5.25922 10.4322 5.23942C10.4322 5.21962 10.4376 5.20342 10.4442 5.20342C10.4508 5.20342 10.4562 5.18452 10.4562 5.16142C10.4562 5.13832 10.4604 5.11942 10.4656 5.11942C10.4708 5.11942 10.4764 5.10196 10.478 5.08063C10.4797 5.05927 10.4862 5.03659 10.4926 5.03023C10.499 5.02384 10.5042 5.00884 10.5042 4.99687C10.5042 4.9849 10.509 4.96573 10.515 4.95427C10.521 4.94281 10.5327 4.90912 10.5412 4.87942C10.5496 4.84972 10.5598 4.82002 10.5639 4.81342C10.5679 4.80682 10.5781 4.77982 10.5865 4.75342C10.5949 4.72702 10.6062 4.69462 10.6116 4.68142C10.617 4.66822 10.6284 4.63312 10.6369 4.60342C10.6454 4.57372 10.6568 4.54429 10.6623 4.53802C10.6677 4.53175 10.6722 4.51705 10.6722 4.50538C10.6722 4.49371 10.6819 4.46644 10.6937 4.44478C10.7055 4.42312 10.7256 4.37302 10.7382 4.33342C10.7508 4.29382 10.7654 4.25629 10.7706 4.25002C10.7759 4.24375 10.7802 4.22889 10.7802 4.21702C10.7802 4.20513 10.7856 4.19542 10.7922 4.19542C10.7988 4.19542 10.8042 4.18225 10.8042 4.16613C10.8042 4.15002 10.8096 4.13349 10.8162 4.12941C10.8228 4.12533 10.8282 4.1115 10.8282 4.09869C10.8282 4.08588 10.8336 4.07541 10.8402 4.07541C10.8468 4.07541 10.8522 4.06725 10.8522 4.05726C10.8522 4.04727 10.8569 4.02972 10.8627 4.01826C10.9076 3.92901 10.9242 3.89082 10.9242 3.87627C10.9242 3.867 10.9296 3.85941 10.9362 3.85941C10.9428 3.85941 10.9482 3.84906 10.9482 3.8364C10.9482 3.82377 10.9523 3.81162 10.9573 3.8094C10.9623 3.80721 10.9897 3.75681 11.0182 3.69741C11.0466 3.63801 11.0745 3.58065 11.0802 3.56991C11.1362 3.46392 11.2242 3.28347 11.2242 3.27447C11.2242 3.26823 11.235 3.25335 11.2482 3.24141C11.2614 3.22947 11.2722 3.21243 11.2722 3.20355C11.2722 3.19467 11.2776 3.18741 11.2842 3.18741C11.2908 3.18741 11.2962 3.17661 11.2962 3.16341C11.2962 3.15021 11.3005 3.13941 11.3058 3.13941C11.3111 3.13941 11.3287 3.1125 11.3448 3.07959C11.361 3.04671 11.3782 3.01971 11.3832 3.01959C11.3881 3.0195 11.3922 3.00981 11.3922 2.99805C11.3922 2.98632 11.403 2.96892 11.4162 2.95941C11.4294 2.9499 11.4402 2.9325 11.4402 2.92077C11.4402 2.90901 11.4456 2.89941 11.4522 2.89941C11.4588 2.89941 11.4642 2.89233 11.4642 2.88366C11.4642 2.87502 11.475 2.85633 11.4882 2.84217C11.5014 2.82801 11.5122 2.8131 11.5122 2.80908C11.5122 2.80503 11.5272 2.77917 11.5455 2.75157C11.5639 2.72397 11.586 2.68737 11.5946 2.67024C11.6032 2.65308 11.622 2.62524 11.6362 2.60835C11.6505 2.59146 11.6703 2.56572 11.6802 2.55114C11.6901 2.53656 11.7076 2.51226 11.7192 2.49714C11.7307 2.48199 11.7402 2.46102 11.7402 2.45052C11.7402 2.44002 11.7456 2.43141 11.7522 2.43141C11.7588 2.43141 11.7642 2.42331 11.7642 2.41341C11.7642 2.40351 11.7696 2.39541 11.7762 2.39541C11.7828 2.39541 11.7882 2.38851 11.7882 2.38005C11.7882 2.37162 11.799 2.35692 11.8122 2.34741C11.8254 2.3379 11.8362 2.32368 11.8362 2.31582C11.8362 2.30796 11.8524 2.28792 11.8722 2.27124C11.892 2.25459 11.9082 2.23521 11.9082 2.22819C11.9082 2.22117 11.9136 2.21541 11.9202 2.21541C11.9268 2.21541 11.9322 2.20737 11.9322 2.1975C11.9322 2.18766 11.943 2.17287 11.9562 2.16462C11.9694 2.15637 11.9802 2.142 11.9802 2.13267C11.9802 2.12334 12.0018 2.09514 12.0282 2.07003C12.0546 2.04492 12.0762 2.0199 12.0762 2.01447C12.0762 2.00901 12.0977 1.98045 12.1239 1.95099C12.1502 1.9215 12.1752 1.88685 12.1795 1.87398C12.1889 1.84602 12.2138 1.81941 12.2305 1.81941C12.2371 1.81941 12.2457 1.80969 12.2494 1.79784C12.2532 1.78599 12.294 1.73664 12.3402 1.68822C12.3864 1.6398 12.4242 1.5954 12.4242 1.58958C12.4242 1.58379 12.4633 1.53972 12.5112 1.49169C12.559 1.44369 12.6117 1.38711 12.6282 1.36599C12.6447 1.3449 12.6653 1.32759 12.6739 1.32753C12.6825 1.32747 12.6867 1.32276 12.6832 1.31706C12.6772 1.30734 12.7632 1.22292 12.819 1.18377C12.8329 1.17405 12.8442 1.1583 12.8442 1.14876C12.8442 1.13922 12.8473 1.13454 12.8511 1.13838C12.8586 1.14585 12.9402 1.06062 12.9402 1.04535C12.9402 1.04034 12.9523 1.0257 12.9672 1.0128C12.9924 0.990901 12.9942 0.979921 12.9942 0.84204V0.69468L12.9347 0.63603L12.8752 0.57741L12.1901 0.57405C11.8133 0.57219 11.5022 0.57342 11.4988 0.57675Z" fill="#41BC4A"/>
<path fill-rule="evenodd" clip-rule="evenodd" d="M12.6994 1.2884L12.6703 1.3214L12.7063 1.2914C12.7261 1.2749 12.7446 1.26005 12.7473 1.2584C12.7501 1.25675 12.747 1.2554 12.7404 1.2554C12.7339 1.2554 12.7154 1.27025 12.6994 1.2884ZM8.29424 3.31487C8.2352 3.32984 7.91315 3.49223 7.69034 3.6194C7.66394 3.63446 7.61804 3.6602 7.58834 3.67661C7.25927 3.85826 6.62627 4.27622 6.30374 4.5248C6.26051 4.55813 6.19364 4.6097 6.15515 4.63941C5.66486 5.01783 5.30105 5.34102 4.79177 5.85063C4.28132 6.36138 4.11135 6.54852 3.7065 7.04541C3.64734 7.11801 3.5961 7.18011 3.59265 7.18341C3.56634 7.20846 3.4479 7.35702 3.36303 7.47141C3.30669 7.54731 3.19035 7.70391 3.10443 7.81941C2.96616 8.00535 2.45235 8.75553 2.45235 8.77149C2.45235 8.77488 2.42457 8.82258 2.39061 8.87754C2.27406 9.06612 2.08461 9.38547 2.04483 9.46041C2.02293 9.50166 1.99965 9.53541 1.99308 9.53541C1.97709 9.53541 1.92438 9.59754 1.92435 9.61641C1.92435 9.62466 1.91895 9.63141 1.91235 9.63141C1.90575 9.63141 1.90035 9.63843 1.90035 9.64701C1.90035 9.66909 1.87212 9.7272 1.86135 9.72732C1.8564 9.72738 1.85235 9.73821 1.85235 9.75141C1.85235 9.76461 1.84695 9.77541 1.84035 9.77541C1.83375 9.77541 1.82835 9.78621 1.82835 9.79941C1.82835 9.81261 1.82238 9.82341 1.81506 9.82341C1.80777 9.82341 1.80489 9.83151 1.8087 9.84141C1.81248 9.85131 1.8105 9.85941 1.80429 9.85941C1.79073 9.85941 1.75164 9.93132 1.76505 9.93159C1.77015 9.93168 1.76895 9.93573 1.76235 9.94059C1.74471 9.95355 1.72035 10.0003 1.72035 10.0213C1.72035 10.0312 1.71495 10.0394 1.70835 10.0394C1.70175 10.0394 1.69635 10.0529 1.69635 10.0694C1.69635 10.0859 1.69095 10.0994 1.68435 10.0994C1.67775 10.0994 1.67235 10.1102 1.67235 10.1234C1.67235 10.1366 1.66695 10.1474 1.66035 10.1474C1.65375 10.1474 1.64835 10.1582 1.64835 10.1714C1.64835 10.1846 1.64295 10.1954 1.63635 10.1954C1.62975 10.1954 1.62435 10.2062 1.62435 10.2194C1.62435 10.2326 1.61895 10.2434 1.61235 10.2434C1.60575 10.2434 1.60035 10.2542 1.60035 10.2674C1.60035 10.2806 1.59495 10.2914 1.58835 10.2914C1.58175 10.2914 1.57635 10.3022 1.57635 10.3154C1.57635 10.3286 1.57221 10.3394 1.56717 10.3394C1.55997 10.3394 1.51818 10.4187 1.51029 10.4474C1.50939 10.4507 1.50267 10.4669 1.49538 10.4834C1.48809 10.4999 1.47501 10.531 1.46631 10.5524C1.45761 10.5739 1.44642 10.5914 1.44141 10.5914C1.43643 10.5914 1.43235 10.6076 1.43235 10.6274C1.43235 10.6472 1.42695 10.6634 1.42035 10.6634C1.41375 10.6634 1.40835 10.6742 1.40835 10.6874C1.40835 10.7006 1.40295 10.7114 1.39635 10.7114C1.38975 10.7114 1.38435 10.7276 1.38435 10.7474C1.38435 10.7672 1.37895 10.7834 1.37235 10.7834C1.36575 10.7834 1.36035 10.7942 1.36035 10.8074C1.36035 10.8206 1.35495 10.8314 1.34835 10.8314C1.34175 10.8314 1.33635 10.8419 1.33635 10.8547C1.33635 10.8675 1.33203 10.8807 1.32672 10.8839C1.32144 10.8872 1.30965 10.9172 1.30056 10.9507C1.29147 10.9841 1.2801 11.0114 1.2753 11.0114C1.27053 11.0114 1.26942 11.0222 1.27287 11.0354C1.27638 11.0488 1.27323 11.0594 1.26576 11.0594C1.25838 11.0594 1.25235 11.0756 1.25235 11.0954C1.25235 11.1152 1.24695 11.1314 1.24035 11.1314C1.23375 11.1314 1.22835 11.1476 1.22835 11.1674C1.22835 11.1872 1.22295 11.2034 1.21635 11.2034C1.20975 11.2034 1.20435 11.2196 1.20435 11.2394C1.20435 11.2592 1.19895 11.2754 1.19235 11.2754C1.18575 11.2754 1.18035 11.2916 1.18035 11.3114C1.18035 11.3312 1.17495 11.3474 1.16835 11.3474C1.16175 11.3474 1.15635 11.3639 1.15635 11.3841C1.15635 11.4055 1.15134 11.4177 1.14435 11.4134C1.13736 11.4091 1.13235 11.4213 1.13235 11.4427C1.13235 11.4629 1.12695 11.4794 1.12035 11.4794C1.11375 11.4794 1.10835 11.501 1.10835 11.5274C1.10835 11.5538 1.10295 11.5754 1.09635 11.5754C1.08975 11.5754 1.08435 11.5967 1.08435 11.6227C1.08435 11.6487 1.07895 11.6733 1.07235 11.6774C1.06575 11.6815 1.06035 11.7088 1.06035 11.7381C1.06035 11.7674 1.05495 11.7914 1.04835 11.7914C1.04175 11.7914 1.03635 11.8126 1.03635 11.8384C1.03635 11.8649 1.02993 11.8876 1.02159 11.8903C1.01052 11.894 1.0068 11.9636 1.00659 12.1706L1.00635 12.4459L1.06602 12.5057L1.12572 12.5654L1.26498 12.5696C1.3701 12.5728 1.40841 12.5699 1.42128 12.5576C1.43067 12.5487 1.4532 12.5338 1.47135 12.5244C1.4895 12.515 1.50435 12.5 1.50435 12.4909C1.50435 12.4818 1.51515 12.4628 1.52835 12.4487C1.54233 12.4337 1.55235 12.4063 1.55235 12.3832C1.55235 12.3613 1.55775 12.3434 1.56435 12.3434C1.57149 12.3434 1.57635 12.2977 1.57635 12.2301C1.57635 12.1675 1.58172 12.1135 1.58835 12.1094C1.59495 12.1053 1.60035 12.0726 1.60035 12.0367C1.60035 12.0008 1.60575 11.9714 1.61235 11.9714C1.61895 11.9714 1.62435 11.9498 1.62435 11.9234C1.62435 11.897 1.62975 11.8754 1.63635 11.8754C1.64295 11.8754 1.64835 11.8538 1.64835 11.8274C1.64835 11.801 1.65375 11.7794 1.66035 11.7794C1.66695 11.7794 1.67235 11.7659 1.67235 11.7493C1.67235 11.7327 1.69125 11.6614 1.71435 11.5909C1.73745 11.5204 1.75635 11.4503 1.75635 11.435C1.75635 11.4199 1.76175 11.4074 1.76835 11.4074C1.77495 11.4074 1.78035 11.3912 1.78035 11.3714C1.78035 11.3516 1.78575 11.3354 1.79235 11.3354C1.79895 11.3354 1.80435 11.3192 1.80435 11.2994C1.80435 11.2796 1.80975 11.2634 1.81635 11.2634C1.82295 11.2634 1.82835 11.2499 1.82835 11.2334C1.82835 11.2169 1.83375 11.2034 1.84035 11.2034C1.84695 11.2034 1.85235 11.1929 1.85235 11.1801C1.85235 11.1673 1.85775 11.1535 1.86435 11.1494C1.87095 11.1453 1.87635 11.1288 1.87635 11.1127C1.87635 11.0966 1.88175 11.0834 1.88835 11.0834C1.89495 11.0834 1.90035 11.0726 1.90035 11.0594C1.90035 11.0462 1.90575 11.0354 1.91235 11.0354C1.91895 11.0354 1.92435 11.0192 1.92435 10.9994C1.92435 10.9796 1.92975 10.9634 1.93635 10.9634C1.94295 10.9634 1.94835 10.9526 1.94835 10.9394C1.94835 10.9262 1.95375 10.9154 1.96035 10.9154C1.96695 10.9154 1.97235 10.8992 1.97235 10.8794C1.97235 10.8596 1.97775 10.8434 1.98435 10.8434C1.99095 10.8434 1.99635 10.8326 1.99635 10.8194C1.99635 10.8062 2.00175 10.7954 2.00835 10.7954C2.01495 10.7954 2.02035 10.7819 2.02035 10.7654C2.02035 10.7489 2.02575 10.7354 2.03235 10.7354C2.03895 10.7354 2.04435 10.7246 2.04435 10.7114C2.04435 10.6982 2.04975 10.6874 2.05635 10.6874C2.06295 10.6874 2.06835 10.6766 2.06835 10.6634C2.06835 10.6502 2.07375 10.6394 2.08035 10.6394C2.08695 10.6394 2.09235 10.6286 2.09235 10.6154C2.09235 10.6022 2.09775 10.5914 2.10435 10.5914C2.11095 10.5914 2.11635 10.5806 2.11635 10.5674C2.11635 10.5542 2.12175 10.5434 2.12835 10.5434C2.13495 10.5434 2.14035 10.5326 2.14035 10.5194C2.14035 10.5062 2.14665 10.4954 2.15436 10.4954C2.16204 10.4954 2.16513 10.4922 2.16117 10.4882C2.15721 10.4843 2.16396 10.4613 2.17614 10.4372C2.21778 10.3549 2.24835 10.2807 2.24835 10.2621C2.24835 10.2518 2.25375 10.2434 2.26035 10.2434C2.26695 10.2434 2.27235 10.2326 2.27235 10.2194C2.27235 10.2062 2.27775 10.1954 2.28435 10.1954C2.29095 10.1954 2.29635 10.1846 2.29635 10.1714C2.29635 10.1582 2.30109 10.1474 2.30688 10.1474C2.3127 10.1474 2.32416 10.1312 2.33235 10.1114C2.34054 10.0916 2.352 10.0754 2.35782 10.0754C2.36361 10.0754 2.36835 10.0646 2.36835 10.0514C2.36835 10.0382 2.37375 10.0274 2.38035 10.0274C2.38695 10.0274 2.39235 10.0166 2.39235 10.0034C2.39235 9.99021 2.39817 9.97941 2.40525 9.97941C2.41236 9.97941 2.41656 9.9642 2.41461 9.94563C2.41098 9.91086 2.48235 9.76026 2.57406 9.60918C2.59953 9.56727 2.62035 9.5307 2.62035 9.52794C2.62035 9.52515 2.63325 9.50277 2.649 9.47814C2.66475 9.45354 2.73678 9.33351 2.80908 9.21141C2.95668 8.96211 3.36147 8.34693 3.4566 8.22741C3.46995 8.21064 3.50148 8.16804 3.73713 7.84842C3.84654 7.70007 4.30262 7.13589 4.40114 7.02705C4.4282 6.99717 4.48811 6.92967 4.53428 6.87705C4.78616 6.59004 5.35307 6.01671 5.61434 5.78472C5.68034 5.72613 5.73704 5.67519 5.74034 5.6715C5.74604 5.66514 5.85011 5.57553 5.99309 5.45388C6.10979 5.35461 6.22742 5.25921 6.34625 5.16741C6.41036 5.11791 6.46985 5.07075 6.47849 5.06262C6.49415 5.04789 6.55769 5.00127 6.82763 4.80642C7.08776 4.61864 7.56143 4.31291 7.76834 4.19921C7.83974 4.15997 7.88813 4.13246 7.97234 4.08323C8.00204 4.06586 8.11814 4.00493 8.23034 3.94784C8.5901 3.76478 8.62517 3.73136 8.62562 3.5714C8.62613 3.39002 8.47112 3.27002 8.29424 3.31487ZM8.80313 9.51141C8.79488 9.52461 8.79227 9.53541 8.79734 9.53541C8.80241 9.53541 8.8133 9.52461 8.82155 9.51141C8.8298 9.49821 8.83241 9.48741 8.82734 9.48741C8.82227 9.48741 8.81138 9.49821 8.80313 9.51141Z" fill="#308830"/>
</g>
<defs>
<filter id="filter0_d_1922_14399" x="1.00049" y="0.573181" width="11.9937" height="12.9976" filterUnits="userSpaceOnUse" color-interpolation-filters="sRGB">
<feFlood flood-opacity="0" result="BackgroundImageFix"/>
<feColorMatrix in="SourceAlpha" type="matrix" values="0 0 0 0 0 0 0 0 0 0 0 0 0 0 0 0 0 0 127 0" result="hardAlpha"/>
<feOffset dy="1"/>
<feComposite in2="hardAlpha" operator="out"/>
<feColorMatrix type="matrix" values="0 0 0 0 0 0 0 0 0 0 0 0 0 0 0 0 0 0 0.5 0"/>
<feBlend mode="normal" in2="BackgroundImageFix" result="effect1_dropShadow_1922_14399"/>
<feBlend mode="normal" in="SourceGraphic" in2="effect1_dropShadow_1922_14399" result="shape"/>
</filter>
</defs>
</svg>
