<svg width="77" height="66" viewBox="0 0 77 66" fill="none" xmlns="http://www.w3.org/2000/svg">
<g id="Rectangle 36474" filter="url(#filter0_di_6041_101208)">
<path d="M0.739441 12.0834C0.739441 5.4099 6.14935 0 12.8228 0H64.1772C70.8506 0 76.2605 5.40991 76.2605 12.0834V45.942C76.2605 51.1557 72.034 55.3821 66.8204 55.3821H61.5621C61.1178 55.3821 60.7066 55.617 60.481 55.9998L57.7469 60.6362C57.0185 61.8714 55.2317 61.8714 54.5033 60.6362L51.7692 55.9998C51.5435 55.617 51.1323 55.3821 50.688 55.3821H46.685H38.5H12.8228C6.14936 55.3821 0.739441 49.9722 0.739441 43.2988V12.0834Z" fill="white" fill-opacity="0.95" shape-rendering="crispEdges"/>
<path d="M1.24291 12.0834C1.24291 5.68796 6.42741 0.503474 12.8228 0.503474H64.1772C70.5726 0.503474 75.7571 5.68798 75.7571 12.0834V45.942C75.7571 50.8776 71.756 54.8787 66.8204 54.8787H61.5621C60.9396 54.8787 60.3635 55.2078 60.0473 55.744L57.3132 60.3805C56.7796 61.2854 55.4706 61.2854 54.937 60.3805L52.2029 55.744C51.8867 55.2078 51.3106 54.8787 50.688 54.8787H46.685H38.5H12.8228C6.42742 54.8787 1.24291 49.6942 1.24291 43.2988V12.0834Z" stroke="url(#paint0_linear_6041_101208)" stroke-width="1.00695" shape-rendering="crispEdges"/>
</g>
<defs>
<filter id="filter0_di_6041_101208" x="0.739441" y="0" width="75.5211" height="65.5904" filterUnits="userSpaceOnUse" color-interpolation-filters="sRGB">
<feFlood flood-opacity="0" result="BackgroundImageFix"/>
<feColorMatrix in="SourceAlpha" type="matrix" values="0 0 0 0 0 0 0 0 0 0 0 0 0 0 0 0 0 0 127 0" result="hardAlpha"/>
<feOffset dy="4.02779"/>
<feComposite in2="hardAlpha" operator="out"/>
<feColorMatrix type="matrix" values="0 0 0 0 0 0 0 0 0 0 0 0 0 0 0 0 0 0 0.15 0"/>
<feBlend mode="normal" in2="BackgroundImageFix" result="effect1_dropShadow_6041_101208"/>
<feBlend mode="normal" in="SourceGraphic" in2="effect1_dropShadow_6041_101208" result="shape"/>
<feColorMatrix in="SourceAlpha" type="matrix" values="0 0 0 0 0 0 0 0 0 0 0 0 0 0 0 0 0 0 127 0" result="hardAlpha"/>
<feOffset/>
<feGaussianBlur stdDeviation="1.56897"/>
<feComposite in2="hardAlpha" operator="arithmetic" k2="-1" k3="1"/>
<feColorMatrix type="matrix" values="0 0 0 0 0 0 0 0 0 0 0 0 0 0 0 0 0 0 0.1 0"/>
<feBlend mode="normal" in2="shape" result="effect2_innerShadow_6041_101208"/>
</filter>
<linearGradient id="paint0_linear_6041_101208" x1="5.14484" y1="2.08427" x2="24.089" y2="69.069" gradientUnits="userSpaceOnUse">
<stop stop-color="white"/>
<stop offset="1" stop-color="white" stop-opacity="0.8"/>
</linearGradient>
</defs>
</svg>
