<svg width="18" height="15" viewBox="0 0 18 15" fill="none" xmlns="http://www.w3.org/2000/svg">
<g filter="url(#filter0_d_3249_18554)">
<path fill-rule="evenodd" clip-rule="evenodd" d="M6.39267 1H11.6073H11.6073H11.6074C12.3769 0.999992 13.0063 0.999985 13.5178 1.03655C14.0472 1.0744 14.5254 1.15514 14.972 1.35423C15.6709 1.66582 16.2391 2.163 16.5952 2.77453C16.8227 3.16527 16.915 3.58367 16.9582 4.04693C17 4.49448 17 5.04518 17 5.71853V5.71856V8.28144V8.28147C17 8.95483 17 9.50552 16.9582 9.95307C16.915 10.4163 16.8227 10.8347 16.5952 11.2255C16.2391 11.837 15.6709 12.3342 14.972 12.6458C14.5254 12.8449 14.0472 12.9256 13.5178 12.9634C13.0063 13 12.3769 13 11.6074 13H11.6074H6.39264H6.39261C5.62306 13 4.9937 13 4.48221 12.9634C3.95277 12.9256 3.4746 12.8449 3.02804 12.6458C2.32915 12.3342 1.76094 11.837 1.40483 11.2255C1.1773 10.8347 1.08503 10.4163 1.04177 9.95307C0.999983 9.50551 0.999991 8.95481 1 8.28144V8.28143V8.28142V5.71858V5.71857V5.71856C0.999991 5.04519 0.999983 4.49449 1.04177 4.04693C1.08503 3.58367 1.1773 3.16527 1.40483 2.77453C1.76094 2.163 2.32915 1.66582 3.02804 1.35423C3.4746 1.15514 3.95277 1.0744 4.48221 1.03655C4.9937 0.999985 5.62308 0.999992 6.39264 1H6.39265H6.39267ZM11.0675 7.33521C11.3584 7.18476 11.3584 6.81524 11.0675 6.66478L7.95351 5.0544C7.6582 4.90168 7.28571 5.08865 7.28571 5.38961V8.61038C7.28571 8.91135 7.6582 9.09832 7.95351 8.9456L11.0675 7.33521ZM2.71429 3.75C2.71429 3.47386 2.97012 3.25 3.28571 3.25H3.85714C4.17273 3.25 4.42857 3.47386 4.42857 3.75V4.25C4.42857 4.52614 4.17273 4.75 3.85714 4.75H3.28571C2.97012 4.75 2.71429 4.52614 2.71429 4.25V3.75ZM14.1429 3.25C13.8273 3.25 13.5714 3.47386 13.5714 3.75V4.25C13.5714 4.52614 13.8273 4.75 14.1429 4.75H14.7143C15.0299 4.75 15.2857 4.52614 15.2857 4.25V3.75C15.2857 3.47386 15.0299 3.25 14.7143 3.25H14.1429ZM2.71429 6.75C2.71429 6.47386 2.97012 6.25 3.28571 6.25H3.85714C4.17273 6.25 4.42857 6.47386 4.42857 6.75V7.25C4.42857 7.52614 4.17273 7.75 3.85714 7.75H3.28571C2.97012 7.75 2.71429 7.52614 2.71429 7.25V6.75ZM14.1429 6.25C13.8273 6.25 13.5714 6.47386 13.5714 6.75V7.25C13.5714 7.52614 13.8273 7.75 14.1429 7.75H14.7143C15.0299 7.75 15.2857 7.52614 15.2857 7.25V6.75C15.2857 6.47386 15.0299 6.25 14.7143 6.25H14.1429ZM2.71429 9.75C2.71429 9.47386 2.97012 9.25 3.28571 9.25H3.85714C4.17273 9.25 4.42857 9.47386 4.42857 9.75V10.25C4.42857 10.5261 4.17273 10.75 3.85714 10.75H3.28571C2.97012 10.75 2.71429 10.5261 2.71429 10.25V9.75ZM14.1429 9.25C13.8273 9.25 13.5714 9.47386 13.5714 9.75V10.25C13.5714 10.5261 13.8273 10.75 14.1429 10.75H14.7143C15.0299 10.75 15.2857 10.5261 15.2857 10.25V9.75C15.2857 9.47386 15.0299 9.25 14.7143 9.25H14.1429Z" fill="white"/>
<path fill-rule="evenodd" clip-rule="evenodd" d="M6.39267 1H11.6073H11.6073H11.6074C12.3769 0.999992 13.0063 0.999985 13.5178 1.03655C14.0472 1.0744 14.5254 1.15514 14.972 1.35423C15.6709 1.66582 16.2391 2.163 16.5952 2.77453C16.8227 3.16527 16.915 3.58367 16.9582 4.04693C17 4.49448 17 5.04518 17 5.71853V5.71856V8.28144V8.28147C17 8.95483 17 9.50552 16.9582 9.95307C16.915 10.4163 16.8227 10.8347 16.5952 11.2255C16.2391 11.837 15.6709 12.3342 14.972 12.6458C14.5254 12.8449 14.0472 12.9256 13.5178 12.9634C13.0063 13 12.3769 13 11.6074 13H11.6074H6.39264H6.39261C5.62306 13 4.9937 13 4.48221 12.9634C3.95277 12.9256 3.4746 12.8449 3.02804 12.6458C2.32915 12.3342 1.76094 11.837 1.40483 11.2255C1.1773 10.8347 1.08503 10.4163 1.04177 9.95307C0.999983 9.50551 0.999991 8.95481 1 8.28144V8.28143V8.28142V5.71858V5.71857V5.71856C0.999991 5.04519 0.999983 4.49449 1.04177 4.04693C1.08503 3.58367 1.1773 3.16527 1.40483 2.77453C1.76094 2.163 2.32915 1.66582 3.02804 1.35423C3.4746 1.15514 3.95277 1.0744 4.48221 1.03655C4.9937 0.999985 5.62308 0.999992 6.39264 1H6.39265H6.39267ZM11.0675 7.33521C11.3584 7.18476 11.3584 6.81524 11.0675 6.66478L7.95351 5.0544C7.6582 4.90168 7.28571 5.08865 7.28571 5.38961V8.61038C7.28571 8.91135 7.6582 9.09832 7.95351 8.9456L11.0675 7.33521ZM2.71429 3.75C2.71429 3.47386 2.97012 3.25 3.28571 3.25H3.85714C4.17273 3.25 4.42857 3.47386 4.42857 3.75V4.25C4.42857 4.52614 4.17273 4.75 3.85714 4.75H3.28571C2.97012 4.75 2.71429 4.52614 2.71429 4.25V3.75ZM14.1429 3.25C13.8273 3.25 13.5714 3.47386 13.5714 3.75V4.25C13.5714 4.52614 13.8273 4.75 14.1429 4.75H14.7143C15.0299 4.75 15.2857 4.52614 15.2857 4.25V3.75C15.2857 3.47386 15.0299 3.25 14.7143 3.25H14.1429ZM2.71429 6.75C2.71429 6.47386 2.97012 6.25 3.28571 6.25H3.85714C4.17273 6.25 4.42857 6.47386 4.42857 6.75V7.25C4.42857 7.52614 4.17273 7.75 3.85714 7.75H3.28571C2.97012 7.75 2.71429 7.52614 2.71429 7.25V6.75ZM14.1429 6.25C13.8273 6.25 13.5714 6.47386 13.5714 6.75V7.25C13.5714 7.52614 13.8273 7.75 14.1429 7.75H14.7143C15.0299 7.75 15.2857 7.52614 15.2857 7.25V6.75C15.2857 6.47386 15.0299 6.25 14.7143 6.25H14.1429ZM2.71429 9.75C2.71429 9.47386 2.97012 9.25 3.28571 9.25H3.85714C4.17273 9.25 4.42857 9.47386 4.42857 9.75V10.25C4.42857 10.5261 4.17273 10.75 3.85714 10.75H3.28571C2.97012 10.75 2.71429 10.5261 2.71429 10.25V9.75ZM14.1429 9.25C13.8273 9.25 13.5714 9.47386 13.5714 9.75V10.25C13.5714 10.5261 13.8273 10.75 14.1429 10.75H14.7143C15.0299 10.75 15.2857 10.5261 15.2857 10.25V9.75C15.2857 9.47386 15.0299 9.25 14.7143 9.25H14.1429Z" stroke="black" stroke-width="0.5"/>
</g>
<defs>
<filter id="filter0_d_3249_18554" x="0.75" y="0.75" width="16.5" height="13.5" filterUnits="userSpaceOnUse" color-interpolation-filters="sRGB">
<feFlood flood-opacity="0" result="BackgroundImageFix"/>
<feColorMatrix in="SourceAlpha" type="matrix" values="0 0 0 0 0 0 0 0 0 0 0 0 0 0 0 0 0 0 127 0" result="hardAlpha"/>
<feOffset dy="1"/>
<feComposite in2="hardAlpha" operator="out"/>
<feColorMatrix type="matrix" values="0 0 0 0 0 0 0 0 0 0 0 0 0 0 0 0 0 0 1 0"/>
<feBlend mode="normal" in2="BackgroundImageFix" result="effect1_dropShadow_3249_18554"/>
<feBlend mode="normal" in="SourceGraphic" in2="effect1_dropShadow_3249_18554" result="shape"/>
</filter>
</defs>
</svg>
