<svg xmlns="http://www.w3.org/2000/svg" width="351" height="155" fill="none"><mask id="a" width="351" height="155" x="0" y="0" maskUnits="userSpaceOnUse" style="mask-type:alpha"><path fill="red" d="M0 12C0 5.373 5.373 0 12 0h327c6.627 0 12 5.373 12 12v131c0 6.627-5.373 12-12 12H12c-6.627 0-12-5.373-12-12V12Z"/></mask><g mask="url(#a)"><path fill="#B4B4B4" d="M-1.967-41.261h355.034V173.96H-1.967z"/><path fill="#A7A7A7" d="m-1.128-37.542 33.723 2.886-17.872 207.89L-19 170.348z"/><path fill="#A5A5A5" d="M87.008-38.506h35.463v218.961H87.008z"/><path fill="#AFAFAF" d="m325.891-32.003 35.028.39-2.451 218.948-35.028-.39z"/><path fill="#B7B7B7" d="m52.017-37.079 34.69-1.997 12.5 216.126-34.69 1.997z"/><path fill="#A6A6A6" d="m174.595-40.02 34.972-2.014 12.981 224.455-34.972 2.014z"/><path fill="#AFAFAF" d="m270.699-29.194 34.932-2.62L321.9 184.06l-34.932 2.62z"/><path fill="#9C9C9C" d="m247.526-41.26 39.192 2.529-14.697 226.735-39.192-2.529z"/><path fill="#fff" fill-opacity=".08" d="m247.526-41.26 39.192 2.529-14.697 226.735-39.192-2.529z"/><path fill="#ADADAD" d="m121.832-31.815 34.901 2.987-17.762 206.617-34.902-2.987z"/><path fill="#000" fill-opacity=".03" d="M7.809-39.783c-.885.192-.933-.134-.933-6.322v-5.748H8.32l-.097 11.98-.414.09ZM20.885-51.853v136h1.617v-136h-1.617ZM27.351-51.853v6.313c0 5.374.042 6.38.283 6.749.358.549.693.549 1.052 0 .24-.369.282-1.375.282-6.749v-6.313H27.35ZM34.176-51.853v1.339c0 1.925-.478 5.861-1.005 8.267-.249 1.138-1.125 4.431-1.947 7.317-2.31 8.113-2.973 12.045-2.973 17.643 0 5.303.561 8.814 2.815 17.628.736 2.878 1.618 6.462 1.96 7.964 1.148 5.053 1.15 5.115 1.15 28.8 0 19.43.057 22.1-.709 24.508-.182.574-.411 1.132-.699 1.9-1.324 3.529-1.557 4.822-1.544 8.58.012 3.501.11 4.027 1.761 9.434l.8 2.62h4.764l-3.122-.072-1.178-3.856c-1.46-4.776-1.77-6.51-1.627-9.1.134-2.44.446-3.796 1.465-6.369.445-1.124.99-2.814 1.213-3.754.403-1.71.403-1.727.458-22.92.037-14.61-.008-21.894-.147-23.412-.337-3.69-.845-6.27-2.541-12.913-2.954-11.566-3.202-13.045-3.212-19.176-.01-5.626.474-8.468 2.88-16.928 2.092-7.35 2.68-10.403 2.964-15.367l.122-2.133h-1.648ZM40.642-51.853l.003 6.677c.001 3.674.051 6.96.111 7.303.13.737.855 1.098 1.236.613.224-.285.267-1.495.267-7.467v-7.126h-1.617ZM55.011-51.853v136h1.437v-136h-1.437ZM67.943-51.853v5.351c0 5.804.11 6.766.768 6.766.806 0 .849-.322.849-6.39v-5.727h-1.617ZM77.642 84.147V69.22c0-9.075-.069-15.272-.175-15.7-.19-.768-.84-.967-1.226-.376-.162.25-.215 4.113-.215 15.7v15.304h1.616ZM69.532 84.147l.077-14.326c.083-15.596.098-15.878 1.212-23.344 1.437-9.63 1.703-13.297 1.7-23.412-.004-9.42-.08-10.59-1.45-22.002-1.312-10.945-1.364-11.708-1.488-21.902-.103-8.479-.142-9.363-.427-9.639-.23-.22-.4-.22-.629 0-.287.278-.319 1.082-.368 9.227C68.1-11.245 68.14-10.57 69.468.754c1.462 12.47 1.83 18.306 1.627 25.754-.186 6.846-.585 11.237-1.736 19.128-1.186 8.136-1.254 9.368-1.362 24.736l-.097 13.775h1.633ZM49.901 84.147c-.407-.062-.433-.183-.374-.416.346-1.371 1.344-8.276 1.523-10.536.25-3.156.263-9.856.023-12.67-.218-2.567-.57-5.137-1.268-9.258-1.06-6.256-1.08-6.947-1.08-35.736 0-20.038-.05-26.313-.216-26.566-.33-.506-1.007-.393-1.215.202-.245.705-.247 48.763-.001 53.316.21 3.902.486 6.252 1.334 11.367.91 5.487 1.238 9.801 1.115 14.663-.115 4.54-.226 5.652-1.147 11.5l-.65 4.134H49.9Z"/><path fill="#000" fill-opacity=".03" d="M43.853 84.147c-.32-.073-.3-.227-.252-.554 1.085-7.364 1.373-9.715 1.378-11.282.008-2.435-.115-3.239-.897-5.864l-.656-2.204-.107-29.334c-.094-25.95-.141-29.573-.405-31.4-.475-3.28-.585-9.525-.225-12.76 1.139-10.247.34-17.736-2.33-21.856-4.089-6.31-8.812 3.072-8.13 16.152.248 4.771 1.294 8.948 2.83 11.303 1.252 1.922 3.05 2.498 3.344 1.074.154-.747-.18-1.29-1.006-1.631-1.022-.422-1.702-1.455-2.414-3.665-2.01-6.239-1.658-16.132.75-21.051 1.942-3.97 4.666-.898 5.643 6.363.459 3.406.43 6.526-.105 11.526-.575 5.378-.575 8.679 0 14.662l.45 4.663.004 27.426c.002 17.891.069 27.857.19 28.666.102.682.48 2.231.84 3.443.997 3.353.927 4.8-.767 15.775-.051.33-.075.485-.557.548h2.422ZM28.968 84.147V79.31c0-3.446-.064-5.001-.216-5.234-.33-.505-1.007-.393-1.215.203-.107.307-.186 2.52-.186 5.233v4.635h1.617ZM8.313 84.147V73.504c0-9.275-.037-10.755-.275-11.058-.21-.267-.38-.277-.719-.04l-.443.31v21.431h1.437ZM1.131-41.444c-.003-8.552.022-9.304.312-9.563.196-.175.287-.263.379-.265.093-.003.188.082.396.253.333.273.347.674.347 9.768 0 8.754-.024 9.503-.314 9.732-.349.274-.783.125-.985-.34-.073-.166-.133-4.48-.135-9.584ZM47.222-33.191c-.18-1.035-.127-13.893.062-14.652.19-.768.84-.967 1.225-.376.157.24.216 2.361.216 7.816 0 6.289-.043 7.54-.267 7.826-.38.484-1.107.124-1.236-.614ZM62.148-27.754c.059-15.84.11-18.826.332-19.35.299-.704.585-.777 1.042-.264.3.336.313 1.401.241 18.661-.084 20.29-.102 20.672-1.457 31.527-1.22 9.775-1.542 14.202-1.545 21.248-.003 6.795.247 10.552 1.629 24.475 1.131 11.406 1.673 20.328 1.352 22.288-.105.642-.201.733-.697.66-.517-.078-.589-.198-.702-1.188-.07-.606-.132-2.28-.139-3.718-.014-3.202-.322-7.296-1.355-18.042-1.41-14.664-1.707-19.017-1.704-24.927.002-5.566.57-12.963 1.63-21.21.464-3.617.762-5.87.957-8.134.366-4.259.366-8.55.416-22.026ZM14.779-37.887c0-4.95.07-8.146.185-8.477.208-.596.886-.709 1.216-.203.158.243.215 2.548.215 8.657 0 7.202-.038 8.385-.282 8.76-.39.597-.726.54-1.055-.18-.237-.52-.28-1.812-.28-8.557ZM76.026-25.861c0-17.469.03-19.667.282-20.053.37-.566.542-.545.975.119.352.54.36.918.36 19.676 0 11.76-.068 19.397-.176 19.831-.19.768-.84.967-1.226.376-.163-.25-.215-5.057-.215-19.95ZM6.93-27.727c-.102-5.385-.087-5.782.222-6.129.945-1.06 1.102-.375 1.24 5.413.152 6.437.417 9.697 1.622 19.97 1.283 10.939 1.435 13.153 1.422 20.658-.013 8.012-.31 11.608-1.747 21.209-.34 2.272-.707 4.937-.814 5.922-.231 2.11-.56 9.651-.562 12.843 0 2.604-.22 3.168-1.018 2.611l-.468-.327.097-6.255c.105-6.82.321-9.276 1.482-16.847 1.053-6.868 1.363-10.65 1.468-17.917.113-7.75-.07-10.58-1.387-21.545-1.211-10.072-1.43-12.835-1.558-19.606ZM47.108-22.046c0-2.99.06-3.925.28-4.407.154-.337.427-.613.607-.613.657 0 .741.606.69 4.962-.047 3.965-.072 4.222-.44 4.597-.353.358-.43.34-.764-.173-.34-.523-.373-.894-.373-4.366Z"/><path fill="#000" fill-opacity=".03" fill-rule="evenodd" d="M35.869-15.222c-.437-3.196-.019-6.899.946-8.377.952-1.46 2.116-.624 2.755 1.98.327 1.33.376 2.008.317 4.332-.09 3.493-.524 5.183-1.49 5.802-1.233.79-2.081-.463-2.528-3.737Zm2.063 1.255c.296-.28.607-3.054.516-4.597-.048-.813-.206-1.912-.352-2.442l-.265-.964-.245.689c-.384 1.082-.454 5.166-.11 6.428.157.576.362.975.456.886Z" clip-rule="evenodd"/><path fill="#000" fill-opacity=".03" d="M.53-19.078c.08-3.174.16-4.064.384-4.338.375-.457.66-.434.935.074.172.316.203 1.54.128 5.027-.08 3.75-.217 5.532-.739 9.566C-.135 1.88-.59 8.616-.428 15.903c.126 5.682.379 9.143 1.556 21.347 1.064 11.029 1.228 14.344 1.378 27.928.11 9.783.095 10.601-.19 10.92-.38.427-.966.22-1.085-.385-.05-.249-.175-5.658-.28-12.02C.724 49.778.648 48.34-.483 36.56-1.76 23.248-1.97 19.953-1.957 13.358c.015-7.571.265-10.892 1.738-23.07.468-3.87.677-6.488.75-9.366ZM14.779 13.896c0-23.177.06-34.56.185-34.92.208-.595.886-.708 1.216-.202.165.254.215 8.424.215 35.099 0 31.24-.028 34.813-.282 35.201-.39.599-.726.542-1.055-.18-.25-.545-.28-4.321-.28-34.998Z"/><path fill="#000" fill-opacity=".03" d="M3.654-3.928c.117-.985.326-2.07.464-2.41.29-.715.573-.778 1.056-.237.332.373.333.454.036 2.835C5.04-2.393 4.537.487 4.09 2.659 3.643 4.83 3.158 7.662 3.011 8.95c-.473 4.158-.294 11.281.384 15.328.357 2.134.944 4.02 1.25 4.02.443 0 1.106-2.538 1.52-5.82.294-2.322.506-8.446.366-10.569l-.127-1.928-.48 1.515c-.265.833-.482 1.831-.483 2.218-.001.386-.1.85-.218 1.032-.32.49-1.004.4-1.2-.157-.354-1.017.396-4.56 1.279-6.04.453-.757 1.184-1.018 1.82-.647.793.462 1.011 1.71 1.011 5.778 0 10.066-1.444 17.097-3.51 17.097-1.57 0-2.852-4.564-3.33-11.844-.387-5.91-.036-10.336 1.363-17.215.431-2.12.88-4.662.998-5.646ZM27.351 5.023c0-1.762.084-3.443.186-3.736.208-.596.885-.708 1.215-.202.146.223.216 1.5.216 3.938 0 3.819-.089 4.27-.838 4.27-.631 0-.779-.81-.779-4.27ZM76.241 46.698c-.312-.479-.312-39.626 0-40.105.386-.59 1.036-.392 1.226.376.108.435.175 8.05.175 19.771 0 16.808-.033 19.136-.28 19.676-.307.674-.787.794-1.12.282Z"/><path fill="#000" fill-opacity=".03" fill-rule="evenodd" d="M63.092 18.715c.284-5.467.817-8.512 1.758-10.042 1.058-1.72 2.392-.58 3.071 2.625.566 2.673.753 4.679.866 9.288.285 11.71-1.661 19.373-3.966 15.612-1.354-2.21-2.12-9.956-1.729-17.483Zm3.967 9.996c.475-4.665.142-13.32-.655-16.998-.435-2.006-.72-1.7-1.216 1.305-1.019 6.168-.818 15.931.43 20.966.37 1.492.978-.734 1.44-5.273Z" clip-rule="evenodd"/><path fill="#000" fill-opacity=".03" d="M27.351 40.713c0-21.9.03-24.54.283-24.928.358-.55.693-.55 1.053.002.254.39.278 2.948.237 25.1l-.046 24.666-.391.398c-.352.359-.428.342-.763-.173-.371-.569-.373-.65-.373-25.065ZM14.779 66.092c0-4.285.072-7.186.185-7.514.208-.595.886-.708 1.216-.202.156.24.215 2.334.215 7.693 0 6.326-.04 7.423-.282 7.795-.39.598-.726.541-1.055-.18-.235-.514-.28-1.72-.28-7.592ZM151.476 72.078c.885-.192.933.134.933 6.321v5.748h-1.444l.097-11.979.414-.09ZM138.399 84.147v-136h-1.616v136h1.616ZM131.933 84.147v-6.313c0-5.374-.042-6.38-.282-6.748-.358-.55-.694-.55-1.052 0-.24.368-.282 1.374-.282 6.748v6.313h1.616ZM125.108 84.147V82.81c0-1.925.479-5.862 1.005-8.268.249-1.138 1.126-4.43 1.947-7.317 2.31-8.112 2.973-12.044 2.973-17.642 0-5.303-.561-8.814-2.815-17.628-.736-2.879-1.618-6.463-1.959-7.964-1.149-5.054-1.151-5.115-1.151-28.8 0-19.43-.057-22.1.709-24.508.182-.574.412-1.133.699-1.9 1.325-3.53 1.557-4.823 1.545-8.58-.012-3.502-.11-4.027-1.762-9.434l-.8-2.62h-4.763l3.122.072 1.178 3.856c1.458 4.776 1.769 6.51 1.626 9.1-.134 2.439-.446 3.795-1.464 6.369-.446 1.124-.991 2.813-1.213 3.754-.403 1.709-.404 1.726-.458 22.92-.038 14.61.008 21.894.146 23.412.338 3.69.845 6.27 2.542 12.913 2.954 11.565 3.201 13.045 3.211 19.176.01 5.625-.474 8.467-2.881 16.927-2.091 7.351-2.679 10.404-2.963 15.368l-.121 2.132h1.647ZM118.642 84.147l-.003-6.677c-.001-3.673-.051-6.96-.111-7.302-.129-.738-.855-1.098-1.235-.614-.224.285-.268 1.496-.268 7.468v7.125h1.617ZM104.273 84.147v-136h-1.437v136h1.437ZM91.341 84.147v-5.35c0-5.804-.109-6.767-.768-6.767-.806 0-.848.322-.848 6.39v5.727h1.616ZM81.642-51.853v14.929c0 9.075.07 15.272.175 15.7.19.768.84.967 1.226.376.163-.25.216-4.113.216-15.7v-15.305h-1.617ZM89.752-51.853l-.076 14.327c-.084 15.595-.098 15.878-1.212 23.343-1.437 9.631-1.703 13.298-1.7 23.413.003 9.42.08 10.59 1.449 22.001 1.313 10.946 1.365 11.709 1.488 21.902.103 8.48.142 9.364.428 9.64.229.22.4.22.628-.001.287-.278.32-1.081.368-9.226.06-10.006.02-10.683-1.308-22.005-1.461-12.47-1.83-18.306-1.627-25.754.187-6.846.585-11.238 1.736-19.128 1.187-8.136 1.255-9.369 1.363-24.736l.097-13.776h-1.634ZM109.383-51.853c.408.063.434.184.375.417-.346 1.371-1.345 8.276-1.524 10.536-.25 3.156-.262 9.856-.023 12.67.219 2.567.571 5.137 1.268 9.258 1.06 6.255 1.08 6.947 1.08 35.736 0 20.037.051 26.313.216 26.566.33.506 1.007.393 1.215-.203.246-.705.248-48.763.002-53.316-.211-3.902-.487-6.25-1.335-11.366-.91-5.487-1.238-9.801-1.114-14.663.115-4.54.226-5.653 1.146-11.5l.651-4.135h-1.957Z"/><path fill="#000" fill-opacity=".03" d="M115.431-51.853c.321.073.301.228.253.555-1.086 7.364-1.373 9.715-1.378 11.282-.008 2.434.115 3.238.896 5.864l.656 2.204.107 29.334c.094 25.95.141 29.573.406 31.4.474 3.28.584 9.525.224 12.76-1.138 10.247-.34 17.736 2.33 21.856 4.089 6.31 8.813-3.072 8.131-16.153-.248-4.77-1.294-8.947-2.83-11.302-1.253-1.922-3.05-2.499-3.345-1.074-.154.747.181 1.29 1.007 1.63 1.021.422 1.701 1.455 2.413 3.665 2.01 6.24 1.658 16.132-.749 21.052-1.943 3.969-4.667.898-5.644-6.363-.458-3.407-.43-6.527.105-11.527.576-5.377.576-8.678 0-14.662l-.449-4.662-.004-27.427c-.003-17.89-.069-27.857-.19-28.665-.103-.682-.481-2.231-.841-3.443-.997-3.353-.926-4.8.768-15.775.051-.33.075-.486.557-.549h-2.423ZM130.317-51.853v4.838c0 3.446.064 5.001.215 5.233.33.506 1.007.394 1.215-.202.107-.308.186-2.52.186-5.233v-4.636h-1.616ZM150.972-51.853v10.644c0 9.274.037 10.755.275 11.058.21.267.379.276.718.04l.444-.31v-21.432h-1.437ZM158.153 73.738c.003 8.553-.022 9.305-.311 9.564-.197.175-.287.263-.38.265-.093.002-.188-.083-.395-.253-.334-.274-.348-.675-.348-9.769 0-8.753.025-9.502.315-9.731.348-.275.783-.126.985.339.072.166.133 4.48.134 9.585ZM112.062 65.486c.181 1.034.127 13.892-.061 14.652-.191.768-.841.967-1.226.376-.157-.24-.216-2.361-.216-7.816 0-6.29.043-7.54.268-7.826.38-.485 1.106-.124 1.235.614ZM97.136 60.049c-.058 15.84-.11 18.825-.332 19.35-.298.704-.584.776-1.042.263-.299-.335-.313-1.4-.24-18.66.084-20.29.101-20.672 1.456-31.527C98.2 19.7 98.521 15.272 98.524 8.226c.002-6.794-.248-10.55-1.63-24.474-1.131-11.406-1.672-20.329-1.352-22.288.105-.642.202-.733.698-.66.517.077.588.198.702 1.188.07.606.131 2.279.138 3.718.015 3.201.322 7.296 1.355 18.042 1.41 14.663 1.708 19.017 1.705 24.927-.003 5.566-.571 12.962-1.63 21.209-.464 3.617-.763 5.871-.957 8.134-.367 4.26-.367 8.55-.417 22.027ZM144.506 70.182c0 4.95-.07 8.145-.186 8.477-.208.596-.885.708-1.215.202-.158-.242-.216-2.548-.216-8.657 0-7.201.038-8.384.282-8.758.391-.599.726-.542 1.055.18.238.519.28 1.811.28 8.556ZM83.259 58.156c0 17.468-.031 19.667-.282 20.052-.37.567-.543.546-.976-.118-.352-.54-.359-.918-.359-19.676 0-11.76.068-19.397.175-19.832.19-.768.84-.967 1.226-.376.164.251.216 5.058.216 19.95ZM152.355 60.022c.101 5.384.087 5.781-.223 6.128-.945 1.06-1.101.375-1.239-5.413-.153-6.436-.417-9.697-1.622-19.97-1.283-10.938-1.436-13.152-1.423-20.657.013-8.012.31-11.609 1.747-21.21.341-2.272.707-4.936.815-5.921.231-2.11.56-9.652.561-12.843.001-2.604.221-3.168 1.018-2.611l.468.327-.096 6.255c-.106 6.82-.322 9.276-1.482 16.847-1.053 6.868-1.363 10.65-1.469 17.916-.112 7.75.07 10.58 1.388 21.546 1.21 10.072 1.43 12.835 1.557 19.606ZM112.176 54.34c0 2.99-.059 3.926-.28 4.408-.153.337-.426.612-.606.612-.658 0-.742-.605-.69-4.962.047-3.964.071-4.221.44-4.597.352-.357.428-.34.764.174.34.523.372.894.372 4.366Z"/><path fill="#000" fill-opacity=".03" fill-rule="evenodd" d="M123.416 47.516c.436 3.196.018 6.9-.946 8.378-.953 1.46-2.117.624-2.756-1.98-.326-1.331-.376-2.008-.316-4.332.089-3.494.523-5.183 1.49-5.802 1.233-.79 2.081.463 2.528 3.736Zm-2.064-1.254c-.295.28-.606 3.054-.516 4.597.048.813.206 1.911.352 2.441l.266.965.244-.69c.384-1.081.455-5.165.111-6.427-.157-.577-.363-.976-.457-.886Z" clip-rule="evenodd"/><path fill="#000" fill-opacity=".03" d="M158.754 51.372c-.08 3.175-.159 4.065-.384 4.339-.375.456-.66.434-.935-.074-.171-.317-.202-1.54-.128-5.027.08-3.75.218-5.533.739-9.567 1.374-10.628 1.829-17.365 1.667-24.652-.127-5.682-.379-9.142-1.556-21.346-1.064-11.03-1.228-14.344-1.379-27.928-.109-9.783-.094-10.602.19-10.92.381-.427.967-.22 1.086.384.049.25.174 5.659.279 12.021.228 13.914.305 15.352 1.435 27.131 1.278 13.313 1.487 16.608 1.474 23.203-.015 7.572-.265 10.892-1.738 23.071-.468 3.87-.678 6.488-.75 9.365ZM144.506 18.399c0 23.177-.061 34.56-.186 34.92-.208.595-.885.708-1.215.202-.166-.254-.216-8.424-.216-35.1 0-31.24.029-34.812.282-35.2.391-.599.726-.542 1.055.179.25.546.28 4.322.28 34.999Z"/><path fill="#000" fill-opacity=".03" d="M155.631 36.223c-.118.985-.327 2.07-.465 2.41-.29.715-.572.778-1.055.236-.333-.373-.334-.453-.036-2.834.168-1.348.672-4.227 1.119-6.4.447-2.17.933-5.002 1.079-6.29.473-4.159.295-11.282-.383-15.328-.358-2.135-.945-4.02-1.251-4.02-.443 0-1.106 2.538-1.52 5.82-.293 2.322-.505 8.445-.366 10.568l.127 1.928.481-1.515c.265-.833.482-1.83.483-2.217.001-.386.099-.851.217-1.033.32-.49 1.005-.4 1.199.158.355 1.017-.394 4.56-1.278 6.04-.452.757-1.184 1.017-1.82.646-.792-.462-1.011-1.71-1.011-5.778 0-10.065 1.444-17.096 3.511-17.096 1.569 0 2.852 4.563 3.329 11.843.387 5.912.037 10.337-1.362 17.216-.432 2.12-.881 4.661-.998 5.646ZM131.933 27.271c0 1.762-.084 3.444-.186 3.737-.208.595-.885.708-1.215.202-.146-.223-.215-1.5-.215-3.939 0-3.818.088-4.27.837-4.27.632 0 .779.81.779 4.27ZM83.043-14.403c.312.478.312 39.626 0 40.104-.385.591-1.035.392-1.226-.376-.107-.434-.175-8.05-.175-19.77 0-16.809.033-19.137.28-19.676.307-.674.787-.794 1.121-.282Z"/><path fill="#000" fill-opacity=".03" fill-rule="evenodd" d="M96.192 13.58c-.283 5.467-.817 8.511-1.758 10.042-1.058 1.72-2.392.58-3.07-2.625-.567-2.673-.754-4.68-.866-9.288-.286-11.71 1.66-19.374 3.965-15.613 1.354 2.21 2.12 9.957 1.73 17.484Zm-3.966-9.997c-.476 4.665-.142 13.32.655 17 .434 2.005.72 1.699 1.216-1.306 1.018-6.168.818-15.932-.43-20.967-.37-1.492-.979.735-1.441 5.273Z" clip-rule="evenodd"/><path fill="#000" fill-opacity=".03" d="M131.933-8.418c0 21.9-.03 24.54-.282 24.927-.359.55-.694.55-1.053-.001-.254-.39-.279-2.948-.237-25.1l.045-24.666.391-.399c.352-.358.428-.34.764.173.371.57.372.65.372 25.066ZM144.506-33.797c0 4.285-.072 7.186-.186 7.513-.208.596-.885.708-1.215.202-.157-.24-.216-2.334-.216-7.692 0-6.326.04-7.423.282-7.795.391-.599.726-.542 1.055.18.235.514.28 1.72.28 7.592ZM175.009-39.783c-.885.192-.933-.134-.933-6.322v-5.748h1.444l-.097 11.98-.414.09ZM188.086-51.853v136h1.616v-136h-1.616ZM194.552-51.853v6.313c0 5.374.042 6.38.282 6.749.358.549.694.549 1.052 0 .24-.369.282-1.375.282-6.749v-6.313h-1.616ZM201.377-51.853v1.339c0 1.925-.479 5.861-1.005 8.267-.249 1.138-1.126 4.431-1.947 7.317-2.311 8.113-2.973 12.045-2.973 17.643 0 5.303.561 8.814 2.815 17.628.736 2.878 1.617 6.462 1.959 7.964 1.148 5.053 1.151 5.115 1.151 28.8 0 19.43.057 22.1-.709 24.508-.183.574-.412 1.132-.699 1.9-1.325 3.529-1.558 4.822-1.545 8.58.012 3.501.11 4.027 1.762 9.434l.8 2.62h4.763l-3.122-.072-1.178-3.856c-1.459-4.776-1.769-6.51-1.627-9.1.135-2.44.447-3.796 1.465-6.369.445-1.124.991-2.814 1.213-3.754.403-1.71.404-1.727.458-22.92.038-14.61-.008-21.894-.146-23.412-.338-3.69-.846-6.27-2.542-12.913-2.954-11.566-3.202-13.045-3.212-19.176-.009-5.626.475-8.468 2.881-16.928 2.092-7.35 2.68-10.403 2.963-15.367l.122-2.133h-1.647ZM207.843-51.853l.002 6.677c.002 3.674.052 6.96.112 7.303.129.737.855 1.098 1.235.613.224-.285.267-1.495.267-7.467v-7.126h-1.616ZM222.212-51.853v136h1.437v-136h-1.437ZM235.144-51.853v5.351c0 5.804.109 6.766.768 6.766.805 0 .848-.322.848-6.39v-5.727h-1.616ZM244.843 84.147V69.22c0-9.075-.07-15.272-.175-15.7-.191-.768-.841-.967-1.226-.376-.163.25-.216 4.113-.216 15.7v15.304h1.617ZM236.732 84.147l.077-14.326c.083-15.596.098-15.878 1.212-23.344 1.437-9.63 1.703-13.297 1.7-23.412-.003-9.42-.08-10.59-1.449-22.002-1.313-10.945-1.365-11.708-1.488-21.902-.103-8.479-.143-9.363-.428-9.639-.229-.22-.4-.22-.629 0-.287.278-.319 1.082-.367 9.227-.06 10.006-.019 10.682 1.308 22.005 1.461 12.47 1.83 18.306 1.627 25.754-.187 6.846-.586 11.237-1.736 19.128-1.187 8.136-1.255 9.368-1.363 24.736l-.097 13.775h1.633ZM217.101 84.147c-.407-.062-.433-.183-.374-.416.346-1.371 1.345-8.276 1.524-10.536.25-3.156.262-9.856.023-12.67-.219-2.567-.571-5.137-1.269-9.258-1.059-6.256-1.08-6.947-1.08-35.736 0-20.038-.05-26.313-.215-26.566-.33-.506-1.007-.393-1.215.202-.246.705-.248 48.763-.002 53.316.211 3.902.487 6.252 1.335 11.367.91 5.487 1.238 9.801 1.114 14.663-.115 4.54-.226 5.652-1.146 11.5l-.651 4.134h1.956Z"/><path fill="#000" fill-opacity=".03" d="M211.053 84.147c-.32-.073-.3-.227-.252-.554 1.086-7.364 1.373-9.715 1.378-11.282.008-2.435-.115-3.239-.896-5.864l-.656-2.204-.107-29.334c-.095-25.95-.142-29.573-.406-31.4-.474-3.28-.584-9.525-.225-12.76 1.139-10.247.341-17.736-2.329-21.856-4.09-6.31-8.813 3.072-8.131 16.152.248 4.771 1.294 8.948 2.829 11.303 1.253 1.922 3.051 2.498 3.345 1.074.155-.747-.18-1.29-1.006-1.631-1.021-.422-1.701-1.455-2.413-3.665-2.011-6.239-1.658-16.132.749-21.051 1.942-3.97 4.667-.898 5.644 6.363.458 3.406.43 6.526-.105 11.526-.576 5.378-.576 8.679 0 14.662l.449 4.663.004 27.426c.003 17.891.069 27.857.19 28.666.102.682.481 2.231.841 3.443.997 3.353.926 4.8-.768 15.775-.051.33-.075.485-.557.548h2.422ZM196.168 84.147V79.31c0-3.446-.064-5.001-.215-5.234-.33-.505-1.008-.393-1.215.203-.108.307-.186 2.52-.186 5.233v4.635h1.616ZM175.513 84.147V73.504c0-9.275-.037-10.755-.275-11.058-.21-.267-.379-.277-.718-.04l-.444.31v21.431h1.437ZM168.331-41.444c-.002-8.552.022-9.304.312-9.563.196-.175.287-.263.379-.265.094-.003.189.082.396.253.333.273.348.674.348 9.768 0 8.754-.025 9.503-.315 9.732-.348.274-.783.125-.985-.34-.072-.166-.133-4.48-.135-9.584ZM214.423-33.191c-.181-1.035-.127-13.893.061-14.652.19-.768.84-.967 1.226-.376.157.24.215 2.361.215 7.816 0 6.289-.042 7.54-.267 7.826-.38.484-1.106.124-1.235-.614ZM229.349-27.754c.058-15.84.109-18.826.332-19.35.298-.704.584-.777 1.042-.264.299.336.312 1.401.241 18.661-.085 20.29-.102 20.672-1.458 31.527-1.22 9.775-1.542 14.202-1.545 21.248-.002 6.795.248 10.552 1.629 24.475 1.132 11.406 1.673 20.328 1.353 22.288-.105.642-.202.733-.698.66-.517-.078-.588-.198-.702-1.188-.069-.606-.132-2.28-.138-3.718-.015-3.202-.322-7.296-1.355-18.042-1.41-14.664-1.708-19.017-1.705-24.927.003-5.566.571-12.963 1.63-21.21.464-3.617.762-5.87.957-8.134.367-4.259.367-8.55.417-22.026ZM181.979-37.887c0-4.95.07-8.146.186-8.477.208-.596.885-.709 1.215-.203.158.243.216 2.548.216 8.657 0 7.202-.039 8.385-.283 8.76-.39.597-.725.54-1.054-.18-.238-.52-.28-1.812-.28-8.557ZM243.226-25.861c0-17.469.031-19.667.282-20.053.37-.566.542-.545.975.119.353.54.36.918.36 19.676 0 11.76-.068 19.397-.175 19.831-.191.768-.841.967-1.226.376-.164-.25-.216-5.057-.216-19.95ZM174.13-27.727c-.101-5.385-.087-5.782.223-6.129.945-1.06 1.101-.375 1.239 5.413.152 6.437.417 9.697 1.622 19.97 1.283 10.939 1.435 13.153 1.423 20.658-.014 8.012-.31 11.608-1.747 21.209-.341 2.272-.707 4.937-.815 5.922-.231 2.11-.56 9.651-.561 12.843-.001 2.604-.221 3.168-1.018 2.611l-.468-.327.096-6.255c.106-6.82.322-9.276 1.482-16.847 1.053-6.868 1.363-10.65 1.469-17.917.112-7.75-.07-10.58-1.388-21.545-1.211-10.072-1.43-12.835-1.557-19.606ZM214.309-22.046c0-2.99.059-3.925.28-4.407.153-.337.426-.613.606-.613.658 0 .742.606.69 4.962-.047 3.965-.071 4.222-.44 4.597-.352.358-.429.34-.764-.173-.34-.523-.372-.894-.372-4.366Z"/><path fill="#000" fill-opacity=".03" fill-rule="evenodd" d="M203.069-15.222c-.436-3.196-.018-6.899.946-8.377.952-1.46 2.116-.624 2.755 1.98.327 1.33.377 2.008.317 4.332-.089 3.493-.523 5.183-1.49 5.802-1.233.79-2.081-.463-2.528-3.737Zm2.064 1.255c.295-.28.606-3.054.516-4.597-.048-.813-.207-1.912-.352-2.442l-.266-.964-.244.689c-.385 1.082-.455 5.166-.111 6.428.157.576.363.975.457.886Z" clip-rule="evenodd"/><path fill="#000" fill-opacity=".03" d="M167.731-19.078c.08-3.174.159-4.064.383-4.338.376-.457.661-.434.936.074.171.316.202 1.54.128 5.027-.08 3.75-.218 5.532-.739 9.566-1.374 10.628-1.83 17.365-1.667 24.652.127 5.682.379 9.143 1.556 21.347 1.064 11.029 1.228 14.344 1.379 27.928.109 9.783.094 10.601-.19 10.92-.381.427-.967.22-1.086-.385-.049-.249-.175-5.658-.279-12.02-.229-13.914-.305-15.352-1.435-27.132-1.278-13.313-1.487-16.608-1.474-23.203.015-7.571.265-10.892 1.738-23.07.468-3.87.678-6.488.75-9.366ZM181.979 13.896c0-23.177.061-34.56.186-34.92.208-.595.885-.708 1.215-.202.165.254.216 8.424.216 35.099 0 31.24-.029 34.813-.283 35.201-.39.599-.725.542-1.054-.18-.25-.545-.28-4.321-.28-34.998Z"/><path fill="#000" fill-opacity=".03" d="M170.854-3.928c.117-.985.327-2.07.465-2.41.289-.715.572-.778 1.055-.237.333.373.334.454.036 2.835-.168 1.347-.672 4.227-1.119 6.399-.447 2.172-.933 5.003-1.079 6.291-.473 4.158-.295 11.281.383 15.328.358 2.134.945 4.02 1.251 4.02.443 0 1.106-2.538 1.52-5.82.293-2.322.505-8.446.366-10.569l-.127-1.928-.481 1.515c-.265.833-.482 1.831-.483 2.218-.001.386-.099.85-.217 1.032-.32.49-1.005.4-1.2-.157-.355-1.017.395-4.56 1.278-6.04.453-.757 1.185-1.018 1.821-.647.792.462 1.01 1.71 1.01 5.778 0 10.066-1.443 17.097-3.51 17.097-1.569 0-2.852-4.564-3.329-11.844-.387-5.91-.037-10.336 1.362-17.215.432-2.12.881-4.662.998-5.646ZM194.552 5.023c0-1.762.083-3.443.186-3.736.207-.596.885-.708 1.215-.202.145.223.215 1.5.215 3.938 0 3.819-.088 4.27-.838 4.27-.631 0-.778-.81-.778-4.27ZM243.442 46.698c-.312-.479-.312-39.626 0-40.105.385-.59 1.035-.392 1.226.376.107.435.175 8.05.175 19.771 0 16.808-.033 19.136-.28 19.676-.308.674-.787.794-1.121.282Z"/><path fill="#000" fill-opacity=".03" fill-rule="evenodd" d="M230.292 18.715c.284-5.467.817-8.512 1.759-10.042 1.058-1.72 2.392-.58 3.071 2.625.566 2.673.753 4.679.865 9.288.286 11.71-1.661 19.373-3.965 15.612-1.355-2.21-2.121-9.956-1.73-17.483Zm3.967 9.996c.476-4.665.142-13.32-.655-16.998-.434-2.006-.72-1.7-1.216 1.305-1.018 6.168-.818 15.931.431 20.966.369 1.492.978-.734 1.44-5.273Z" clip-rule="evenodd"/><path fill="#000" fill-opacity=".03" d="M194.552 40.713c0-21.9.03-24.54.282-24.928.359-.55.694-.55 1.053.002.254.39.279 2.948.237 25.1l-.046 24.666-.391.398c-.351.359-.428.342-.763-.173-.371-.569-.372-.65-.372-25.065ZM181.979 66.092c0-4.285.072-7.186.186-7.514.208-.595.885-.708 1.215-.202.157.24.216 2.334.216 7.693 0 6.326-.04 7.423-.283 7.795-.39.598-.725.541-1.054-.18-.236-.514-.28-1.72-.28-7.592ZM318.676 72.078c.885-.192.933.134.933 6.321v5.748h-1.444l.097-11.979.414-.09ZM305.599 84.147v-136h-1.616v136h1.616ZM299.134 84.147v-6.313c0-5.374-.043-6.38-.283-6.748-.358-.55-.693-.55-1.052 0-.24.368-.282 1.374-.282 6.748v6.313h1.617ZM292.308 84.147V82.81c0-1.925.479-5.862 1.006-8.268.249-1.138 1.125-4.43 1.947-7.317 2.31-8.112 2.972-12.044 2.972-17.642 0-5.303-.56-8.814-2.814-17.628-.736-2.879-1.618-6.463-1.96-7.964-1.148-5.054-1.151-5.115-1.151-28.8 0-19.43-.057-22.1.709-24.508.183-.574.412-1.133.7-1.9 1.324-3.53 1.557-4.823 1.544-8.58-.012-3.502-.11-4.027-1.761-9.434l-.801-2.62h-4.763l3.122.072 1.178 3.856c1.459 4.776 1.769 6.51 1.627 9.1-.134 2.439-.446 3.795-1.465 6.369-.445 1.124-.991 2.813-1.213 3.754-.403 1.709-.403 1.726-.458 22.92-.037 14.61.008 21.894.147 23.412.337 3.69.845 6.27 2.541 12.913 2.954 11.565 3.202 13.045 3.212 19.176.009 5.625-.474 8.467-2.881 16.927-2.091 7.351-2.68 10.404-2.963 15.368l-.122 2.132h1.647ZM285.842 84.147l-.002-6.677c-.001-3.673-.052-6.96-.111-7.302-.129-.738-.855-1.098-1.236-.614-.224.285-.267 1.496-.267 7.468v7.125h1.616ZM271.474 84.147v-136h-1.437v136h1.437ZM258.542 84.147v-5.35c0-5.804-.11-6.767-.768-6.767-.806 0-.849.322-.849 6.39v5.727h1.617ZM248.843-51.853v14.929c0 9.075.069 15.272.175 15.7.19.768.84.967 1.226.376.162-.25.215-4.113.215-15.7v-15.305h-1.616ZM256.953-51.853l-.077 14.327c-.083 15.595-.098 15.878-1.212 23.343-1.437 9.631-1.703 13.298-1.7 23.413.003 9.42.081 10.59 1.449 22.001 1.313 10.946 1.365 11.709 1.489 21.902.103 8.48.142 9.364.427 9.64.229.22.4.22.629-.001.287-.278.319-1.081.367-9.226.06-10.006.02-10.683-1.307-22.005-1.462-12.47-1.83-18.306-1.627-25.754.186-6.846.585-11.238 1.736-19.128 1.186-8.136 1.254-9.369 1.362-24.736l.097-13.776h-1.633ZM276.584-51.853c.407.063.433.184.374.417-.346 1.371-1.344 8.276-1.523 10.536-.251 3.156-.263 9.856-.023 12.67.218 2.567.57 5.137 1.268 9.258 1.059 6.255 1.08 6.947 1.08 35.736 0 20.037.051 26.313.215 26.566.33.506 1.008.393 1.216-.203.245-.705.247-48.763.001-53.316-.21-3.902-.486-6.25-1.335-11.366-.909-5.487-1.237-9.801-1.114-14.663.115-4.54.226-5.653 1.146-11.5l.651-4.135h-1.956Z"/><path fill="#000" fill-opacity=".03" d="M282.632-51.853c.32.073.3.228.252.555-1.086 7.364-1.373 9.715-1.378 11.282-.008 2.434.115 3.238.896 5.864l.656 2.204.107 29.334c.095 25.95.142 29.573.406 31.4.475 3.28.584 9.525.225 12.76-1.139 10.247-.341 17.736 2.329 21.856 4.09 6.31 8.813-3.072 8.132-16.153-.249-4.77-1.295-8.947-2.83-11.302-1.253-1.922-3.05-2.499-3.345-1.074-.155.747.181 1.29 1.006 1.63 1.022.422 1.702 1.455 2.414 3.665 2.01 6.24 1.658 16.132-.75 21.052-1.942 3.969-4.666.898-5.643-6.363-.459-3.407-.43-6.527.105-11.527.575-5.377.575-8.678-.001-14.662l-.448-4.662-.005-27.427c-.002-17.89-.069-27.857-.19-28.665-.102-.682-.48-2.231-.841-3.443-.996-3.353-.926-4.8.768-15.775.051-.33.075-.486.557-.549h-2.422ZM297.517-51.853v4.838c0 3.446.064 5.001.216 5.233.33.506 1.007.394 1.215-.202.107-.308.186-2.52.186-5.233v-4.636h-1.617ZM318.172-51.853v10.644c0 9.274.037 10.755.275 11.058.21.267.379.276.718.04l.444-.31v-21.432h-1.437ZM325.354 73.738c.002 8.553-.022 9.305-.312 9.564-.196.175-.287.263-.379.265-.093.002-.188-.083-.396-.253-.333-.274-.347-.675-.347-9.769 0-8.753.024-9.502.314-9.731.349-.275.783-.126.985.339.073.166.133 4.48.135 9.585ZM279.263 65.486c.181 1.034.127 13.892-.062 14.652-.19.768-.84.967-1.226.376-.157-.24-.215-2.361-.215-7.816 0-6.29.043-7.54.267-7.826.381-.485 1.107-.124 1.236.614ZM264.337 60.049c-.059 15.84-.11 18.825-.332 19.35-.299.704-.585.776-1.042.263-.3-.335-.313-1.4-.241-18.66.084-20.29.102-20.672 1.457-31.527 1.22-9.775 1.542-14.203 1.545-21.249.003-6.794-.247-10.55-1.629-24.474-1.132-11.406-1.673-20.329-1.352-22.288.105-.642.201-.733.697-.66.517.077.589.198.702 1.188.07.606.132 2.279.138 3.718.015 3.201.323 7.296 1.356 18.042 1.409 14.663 1.707 19.017 1.704 24.927-.002 5.566-.571 12.962-1.629 21.209-.465 3.617-.763 5.871-.958 8.134-.366 4.26-.366 8.55-.416 22.027ZM311.706 70.182c0 4.95-.07 8.145-.186 8.477-.207.596-.885.708-1.215.202-.158-.242-.215-2.548-.215-8.657 0-7.201.038-8.384.282-8.758.39-.599.725-.542 1.055.18.237.519.279 1.811.279 8.556ZM250.459 58.156c0 17.468-.031 19.667-.282 20.052-.37.567-.542.546-.975-.118-.352-.54-.359-.918-.359-19.676 0-11.76.067-19.397.175-19.832.19-.768.84-.967 1.226-.376.163.251.215 5.058.215 19.95ZM319.556 60.022c.101 5.384.086 5.781-.223 6.128-.945 1.06-1.102.375-1.239-5.413-.153-6.436-.418-9.697-1.623-19.97-1.283-10.938-1.435-13.152-1.423-20.657.014-8.012.31-11.609 1.748-21.21.34-2.272.706-4.936.814-5.921.231-2.11.561-9.652.561-12.843.001-2.604.221-3.168 1.019-2.611l.468.327-.097 6.255c-.105 6.82-.321 9.276-1.482 16.847-1.053 6.868-1.363 10.65-1.468 17.916-.113 7.75.07 10.58 1.387 21.546 1.211 10.072 1.43 12.835 1.558 19.606ZM279.376 54.34c0 2.99-.059 3.926-.279 4.408-.154.337-.427.612-.607.612-.657 0-.742-.605-.69-4.962.047-3.964.072-4.221.441-4.597.352-.357.428-.34.763.174.341.523.372.894.372 4.366Z"/><path fill="#000" fill-opacity=".03" fill-rule="evenodd" d="M290.616 47.516c.437 3.196.018 6.9-.946 8.378-.952 1.46-2.116.624-2.755-1.98-.327-1.331-.376-2.008-.317-4.332.09-3.494.524-5.183 1.49-5.802 1.233-.79 2.081.463 2.528 3.736Zm-2.063-1.254c-.296.28-.607 3.054-.516 4.597.047.813.206 1.911.352 2.441l.265.965.245-.69c.384-1.081.454-5.165.11-6.427-.157-.577-.362-.976-.456-.886Z" clip-rule="evenodd"/><path fill="#000" fill-opacity=".03" d="M325.954 51.372c-.08 3.175-.158 4.065-.383 4.339-.376.456-.661.434-.936-.074-.171-.317-.202-1.54-.128-5.027.081-3.75.218-5.533.74-9.567 1.373-10.628 1.829-17.365 1.666-24.652-.126-5.682-.379-9.142-1.556-21.346-1.064-11.03-1.228-14.344-1.379-27.928-.108-9.783-.094-10.602.19-10.92.381-.427.967-.22 1.086.384.049.25.175 5.659.279 12.021.229 13.914.305 15.352 1.435 27.131 1.278 13.313 1.487 16.608 1.474 23.203-.015 7.572-.265 10.892-1.738 23.071-.468 3.87-.677 6.488-.75 9.365ZM311.706 18.399c0 23.177-.06 34.56-.186 34.92-.207.595-.885.708-1.215.202-.165-.254-.215-8.424-.215-35.1 0-31.24.028-34.812.282-35.2.39-.599.725-.542 1.055.179.249.546.279 4.322.279 34.999Z"/><path fill="#000" fill-opacity=".03" d="M322.831 36.223c-.117.985-.326 2.07-.464 2.41-.29.715-.573.778-1.056.236-.332-.373-.333-.453-.036-2.834.169-1.348.672-4.227 1.119-6.4.448-2.17.933-5.002 1.08-6.29.472-4.159.294-11.282-.384-15.328-.357-2.135-.944-4.02-1.251-4.02-.443 0-1.105 2.538-1.52 5.82-.293 2.322-.505 8.445-.365 10.568l.127 1.928.481-1.515c.264-.833.481-1.83.482-2.217.001-.386.099-.851.217-1.033.32-.49 1.005-.4 1.2.158.355 1.017-.395 4.56-1.278 6.04-.453.757-1.185 1.017-1.821.646-.792-.462-1.01-1.71-1.01-5.778 0-10.065 1.444-17.096 3.51-17.096 1.57 0 2.852 4.563 3.329 11.843.388 5.912.037 10.337-1.362 17.216-.431 2.12-.88 4.661-.998 5.646ZM299.134 27.271c0 1.762-.084 3.444-.186 3.737-.208.595-.885.708-1.215.202-.146-.223-.216-1.5-.216-3.939 0-3.818.089-4.27.838-4.27.631 0 .779.81.779 4.27ZM250.244-14.403c.311.478.311 39.626 0 40.104-.386.591-1.036.392-1.226-.376-.108-.434-.175-8.05-.175-19.77 0-16.809.033-19.137.279-19.676.308-.674.788-.794 1.122-.282Z"/><path fill="#000" fill-opacity=".03" fill-rule="evenodd" d="M263.393 13.58c-.284 5.467-.817 8.511-1.758 10.042-1.059 1.72-2.392.58-3.071-2.625-.566-2.673-.753-4.68-.866-9.288-.285-11.71 1.661-19.374 3.966-15.613 1.354 2.21 2.12 9.957 1.729 17.484Zm-3.967-9.997c-.475 4.665-.142 13.32.655 17 .435 2.005.72 1.699 1.216-1.306 1.018-6.168.818-15.932-.43-20.967-.37-1.492-.978.735-1.441 5.273Z" clip-rule="evenodd"/><path fill="#000" fill-opacity=".03" d="M299.134-8.418c0 21.9-.03 24.54-.283 24.927-.358.55-.693.55-1.053-.001-.254-.39-.278-2.948-.237-25.1l.046-24.666.391-.399c.352-.358.428-.34.763.173.371.57.373.65.373 25.066ZM311.706-33.797c0 4.285-.072 7.186-.186 7.513-.207.596-.885.708-1.215.202-.157-.24-.215-2.334-.215-7.692 0-6.326.039-7.423.282-7.795.39-.599.725-.542 1.055.18.235.514.279 1.72.279 7.592ZM342.21-39.783c-.885.192-.933-.134-.933-6.322v-5.748h1.444l-.097 11.98-.414.09ZM355.286-51.853v136h1.617v-136h-1.617ZM361.752-51.853v6.313c0 5.374.042 6.38.282 6.749.359.549.694.549 1.053 0 .24-.369.282-1.375.282-6.749v-6.313h-1.617ZM368.577-51.853v1.339c0 1.925-.478 5.861-1.005 8.267-.249 1.138-1.125 4.431-1.947 7.317-2.31 8.113-2.973 12.045-2.973 17.643 0 5.303.561 8.814 2.815 17.628.736 2.878 1.618 6.462 1.959 7.964 1.149 5.053 1.151 5.115 1.151 28.8 0 19.43.057 22.1-.709 24.508-.182.574-.411 1.132-.699 1.9-1.324 3.529-1.557 4.822-1.544 8.58.011 3.501.11 4.027 1.761 9.434l.8 2.62h4.764l-3.123-.072-1.177-3.856c-1.459-4.776-1.769-6.51-1.627-9.1.134-2.44.446-3.796 1.465-6.369.445-1.124.991-2.814 1.213-3.754.403-1.71.403-1.727.458-22.92.037-14.61-.008-21.894-.147-23.412-.337-3.69-.845-6.27-2.542-12.913-2.953-11.566-3.201-13.045-3.211-19.176-.01-5.626.474-8.468 2.881-16.928 2.091-7.35 2.68-10.403 2.963-15.367l.121-2.133h-1.647ZM375.043-51.853l.003 6.677c.001 3.674.051 6.96.111 7.303.129.737.855 1.098 1.236.613.224-.285.267-1.495.267-7.467v-7.126h-1.617ZM389.412-51.853v136h1.437v-136h-1.437ZM402.344-51.853v5.351c0 5.804.109 6.766.768 6.766.806 0 .849-.322.849-6.39v-5.727h-1.617ZM412.043 84.147V69.22c0-9.075-.069-15.272-.175-15.7-.19-.768-.84-.967-1.226-.376-.162.25-.215 4.113-.215 15.7v15.304h1.616ZM403.933 84.147l.076-14.326c.084-15.596.099-15.878 1.212-23.344 1.438-9.63 1.704-13.297 1.7-23.412-.003-9.42-.08-10.59-1.449-22.002-1.312-10.945-1.364-11.708-1.488-21.902-.103-8.479-.142-9.363-.428-9.639-.229-.22-.399-.22-.628 0-.287.278-.319 1.082-.368 9.227-.059 10.006-.019 10.682 1.308 22.005 1.461 12.47 1.83 18.306 1.627 25.754-.187 6.846-.585 11.237-1.736 19.128-1.186 8.136-1.254 9.368-1.363 24.736l-.097 13.775h1.634ZM384.302 84.147c-.408-.062-.433-.183-.375-.416.346-1.371 1.345-8.276 1.524-10.536.25-3.156.262-9.856.023-12.67-.218-2.567-.57-5.137-1.268-9.258-1.059-6.256-1.08-6.947-1.08-35.736 0-20.038-.051-26.313-.216-26.566-.33-.506-1.007-.393-1.215.202-.246.705-.247 48.763-.002 53.316.211 3.902.487 6.252 1.335 11.367.91 5.487 1.238 9.801 1.115 14.663-.115 4.54-.226 5.652-1.147 11.5l-.651 4.134h1.957Z"/><path fill="#000" fill-opacity=".03" d="M378.254 84.147c-.32-.073-.301-.227-.252-.554 1.085-7.364 1.372-9.715 1.378-11.282.008-2.435-.115-3.239-.897-5.864l-.656-2.204-.107-29.334c-.094-25.95-.141-29.573-.405-31.4-.475-3.28-.585-9.525-.225-12.76 1.139-10.247.341-17.736-2.329-21.856-4.09-6.31-8.813 3.072-8.132 16.152.249 4.771 1.294 8.948 2.83 11.303 1.253 1.922 3.05 2.498 3.345 1.074.154-.747-.181-1.29-1.006-1.631-1.022-.422-1.702-1.455-2.414-3.665-2.01-6.239-1.658-16.132.75-21.051 1.942-3.97 4.666-.898 5.643 6.363.459 3.406.43 6.526-.105 11.526-.575 5.378-.575 8.679 0 14.662l.449 4.663.004 27.426c.003 17.891.069 27.857.191 28.666.102.682.48 2.231.84 3.443.997 3.353.927 4.8-.768 15.775-.05.33-.075.485-.556.548h2.422ZM363.369 84.147V79.31c0-3.446-.064-5.001-.216-5.234-.33-.505-1.007-.393-1.215.203-.107.307-.186 2.52-.186 5.233v4.635h1.617ZM342.714 84.147V73.504c0-9.275-.037-10.755-.275-11.058-.21-.267-.379-.277-.719-.04l-.443.31v21.431h1.437ZM335.532-41.444c-.003-8.552.022-9.304.311-9.563.197-.175.287-.263.38-.265.093-.003.188.082.396.253.333.273.347.674.347 9.768 0 8.754-.024 9.503-.314 9.732-.349.274-.783.125-.985-.34-.073-.166-.134-4.48-.135-9.584ZM381.623-33.191c-.181-1.035-.127-13.893.061-14.652.191-.768.841-.967 1.226-.376.157.24.216 2.361.216 7.816 0 6.289-.043 7.54-.267 7.826-.381.484-1.107.124-1.236-.614ZM396.549-27.754c.059-15.84.11-18.826.332-19.35.299-.704.584-.777 1.042-.264.299.336.313 1.401.241 18.661-.084 20.29-.102 20.672-1.457 31.527-1.221 9.775-1.543 14.202-1.545 21.248-.003 6.795.247 10.552 1.629 24.475 1.131 11.406 1.673 20.328 1.352 22.288-.105.642-.201.733-.697.66-.517-.078-.589-.198-.702-1.188-.07-.606-.132-2.28-.139-3.718-.014-3.202-.322-7.296-1.355-18.042-1.41-14.664-1.707-19.017-1.704-24.927.002-5.566.571-12.963 1.629-21.21.465-3.617.763-5.87.958-8.134.366-4.259.366-8.55.416-22.026ZM349.18-37.887c0-4.95.07-8.146.185-8.477.208-.596.886-.709 1.215-.203.159.243.216 2.548.216 8.657 0 7.202-.038 8.385-.282 8.76-.39.597-.726.54-1.055-.18-.237-.52-.279-1.812-.279-8.557ZM410.427-25.861c0-17.469.03-19.667.282-20.053.37-.566.542-.545.975.119.352.54.359.918.359 19.676 0 11.76-.067 19.397-.175 19.831-.19.768-.84.967-1.226.376-.164-.25-.215-5.057-.215-19.95ZM341.33-27.727c-.101-5.385-.087-5.782.223-6.129.945-1.06 1.102-.375 1.239 5.413.153 6.437.418 9.697 1.622 19.97 1.283 10.939 1.436 13.153 1.423 20.658-.013 8.012-.309 11.608-1.747 21.209-.34 2.272-.707 4.937-.814 5.922-.231 2.11-.561 9.651-.562 12.843-.001 2.604-.22 3.168-1.018 2.611l-.468-.327.097-6.255c.105-6.82.321-9.276 1.482-16.847 1.053-6.868 1.362-10.65 1.468-17.917.113-7.75-.07-10.58-1.388-21.545-1.21-10.072-1.429-12.835-1.557-19.606ZM381.509-22.046c0-2.99.06-3.925.28-4.407.154-.337.427-.613.607-.613.657 0 .741.606.69 4.962-.047 3.965-.072 4.222-.441 4.597-.352.358-.428.34-.763-.173-.341-.523-.373-.894-.373-4.366Z"/><path fill="#000" fill-opacity=".03" fill-rule="evenodd" d="M370.27-15.222c-.437-3.196-.019-6.899.946-8.377.952-1.46 2.116-.624 2.755 1.98.327 1.33.376 2.008.317 4.332-.09 3.493-.524 5.183-1.491 5.802-1.233.79-2.081-.463-2.527-3.737Zm2.063 1.255c.296-.28.607-3.054.516-4.597-.048-.813-.206-1.912-.352-2.442l-.265-.964-.245.689c-.384 1.082-.454 5.166-.111 6.428.158.576.363.975.457.886Z" clip-rule="evenodd"/><path fill="#000" fill-opacity=".03" d="M334.932-19.078c.079-3.174.158-4.064.383-4.338.375-.457.66-.434.935.074.172.316.203 1.54.128 5.027-.08 3.75-.218 5.532-.739 9.566-1.374 10.628-1.829 17.365-1.667 24.652.127 5.682.379 9.143 1.557 21.347 1.064 11.029 1.227 14.344 1.378 27.928.109 9.783.095 10.601-.189 10.92-.381.427-.967.22-1.086-.385-.05-.249-.175-5.658-.28-12.02-.228-13.914-.304-15.352-1.435-27.132-1.277-13.313-1.487-16.608-1.474-23.203.016-7.571.266-10.892 1.739-23.07.467-3.87.677-6.488.75-9.366ZM349.18 13.896c0-23.177.06-34.56.185-34.92.208-.595.886-.708 1.215-.202.166.254.216 8.424.216 35.099 0 31.24-.029 34.813-.282 35.201-.39.599-.726.542-1.055-.18-.249-.545-.279-4.321-.279-34.998Z"/><path fill="#000" fill-opacity=".03" d="M338.054-3.928c.118-.985.327-2.07.465-2.41.29-.715.573-.778 1.055-.237.333.373.334.454.036 2.835-.168 1.347-.672 4.227-1.119 6.399-.447 2.172-.932 5.003-1.079 6.291-.473 4.158-.295 11.281.383 15.328.358 2.134.945 4.02 1.252 4.02.442 0 1.105-2.538 1.519-5.82.294-2.322.506-8.446.366-10.569l-.127-1.928-.481 1.515c-.264.833-.482 1.831-.482 2.218-.002.386-.099.85-.218 1.032-.319.49-1.004.4-1.199-.157-.355-1.017.395-4.56 1.278-6.04.453-.757 1.184-1.018 1.821-.647.792.462 1.01 1.71 1.01 5.778 0 10.066-1.444 17.097-3.511 17.097-1.569 0-2.852-4.564-3.329-11.844-.387-5.91-.037-10.336 1.363-17.215.431-2.12.88-4.662.997-5.646ZM361.752 5.023c0-1.762.084-3.443.186-3.736.208-.596.885-.708 1.215-.202.146.223.216 1.5.216 3.938 0 3.819-.089 4.27-.838 4.27-.631 0-.779-.81-.779-4.27ZM410.642 46.698c-.312-.479-.312-39.626 0-40.105.386-.59 1.036-.392 1.226.376.108.435.175 8.05.175 19.771 0 16.808-.033 19.136-.28 19.676-.307.674-.787.794-1.121.282Z"/><path fill="#000" fill-opacity=".03" fill-rule="evenodd" d="M397.493 18.715c.284-5.467.817-8.512 1.758-10.042 1.058-1.72 2.392-.58 3.071 2.625.566 2.673.753 4.679.866 9.288.285 11.71-1.661 19.373-3.966 15.612-1.354-2.21-2.12-9.956-1.729-17.483Zm3.967 9.996c.475-4.665.142-13.32-.655-16.998-.435-2.006-.72-1.7-1.216 1.305-1.019 6.168-.818 15.931.43 20.966.37 1.492.978-.734 1.441-5.273Z" clip-rule="evenodd"/><path fill="#000" fill-opacity=".03" d="M361.752 40.713c0-21.9.03-24.54.282-24.928.359-.55.694-.55 1.053.002.255.39.279 2.948.238 25.1l-.046 24.666-.391.398c-.352.359-.428.342-.763-.173-.372-.569-.373-.65-.373-25.065ZM349.18 66.092c0-4.285.071-7.186.185-7.514.208-.595.886-.708 1.215-.202.157.24.216 2.334.216 7.693 0 6.326-.04 7.423-.282 7.795-.39.598-.726.541-1.055-.18-.235-.514-.279-1.72-.279-7.592ZM7.809 96.217c-.885.192-.933-.135-.933-6.322v-5.748H8.32l-.097 11.98-.414.09ZM20.885 84.147v136h1.617v-136h-1.617ZM27.351 84.147v6.313c0 5.374.042 6.38.283 6.749.358.549.693.549 1.052 0 .24-.369.282-1.375.282-6.749v-6.313H27.35ZM34.176 84.147v1.339c0 1.925-.478 5.861-1.005 8.267-.249 1.138-1.125 4.431-1.947 7.317-2.31 8.113-2.973 12.045-2.973 17.643 0 5.303.561 8.814 2.815 17.628.736 2.878 1.618 6.462 1.96 7.964 1.148 5.053 1.15 5.115 1.15 28.8 0 19.43.057 22.1-.709 24.508-.182.574-.411 1.132-.699 1.899-1.324 3.53-1.557 4.823-1.544 8.581.012 3.501.11 4.027 1.761 9.434l.8 2.62h4.764l-3.122-.072-1.178-3.856c-1.46-4.776-1.77-6.511-1.627-9.1.134-2.439.446-3.796 1.465-6.369.445-1.124.99-2.814 1.213-3.754.403-1.709.403-1.727.458-22.92.037-14.611-.008-21.894-.147-23.412-.337-3.69-.845-6.269-2.541-12.913-2.954-11.566-3.202-13.045-3.212-19.176-.01-5.626.474-8.468 2.88-16.928 2.092-7.35 2.68-10.403 2.964-15.368l.122-2.132h-1.648ZM40.642 84.147l.003 6.677c.001 3.674.051 6.96.111 7.302.13.738.855 1.099 1.236.614.224-.285.267-1.495.267-7.467v-7.126h-1.617ZM55.011 84.147v136h1.437v-136h-1.437ZM67.943 84.147v5.351c0 5.804.11 6.766.768 6.766.806 0 .849-.322.849-6.39v-5.727h-1.617ZM77.642 220.147v-14.928c0-9.075-.069-15.272-.175-15.7-.19-.768-.84-.967-1.226-.376-.162.249-.215 4.113-.215 15.7v15.304h1.616ZM69.532 220.147l.077-14.326c.083-15.596.098-15.878 1.212-23.344 1.437-9.631 1.703-13.297 1.7-23.412-.004-9.419-.08-10.591-1.45-22.002-1.312-10.945-1.364-11.708-1.488-21.902-.103-8.478-.142-9.363-.427-9.639-.23-.221-.4-.221-.629.001-.287.277-.319 1.081-.368 9.226-.059 10.005-.019 10.682 1.308 22.005 1.462 12.47 1.83 18.306 1.627 25.754-.186 6.846-.585 11.237-1.736 19.128-1.186 8.136-1.254 9.368-1.362 24.736l-.097 13.775h1.633ZM49.901 220.147c-.407-.062-.433-.183-.374-.416.346-1.371 1.344-8.276 1.523-10.536.25-3.157.263-9.856.023-12.67-.218-2.567-.57-5.137-1.268-9.258-1.06-6.256-1.08-6.947-1.08-35.736 0-20.038-.05-26.313-.216-26.566-.33-.506-1.007-.393-1.215.202-.245.705-.247 48.763-.001 53.316.21 3.902.486 6.252 1.334 11.367.91 5.487 1.238 9.801 1.115 14.663-.115 4.539-.226 5.652-1.147 11.499l-.65 4.135H49.9Z"/><path fill="#000" fill-opacity=".03" d="M43.853 220.147c-.32-.073-.3-.227-.252-.554 1.085-7.364 1.373-9.715 1.378-11.282.008-2.435-.115-3.238-.897-5.864l-.656-2.204-.107-29.334c-.094-25.951-.141-29.573-.405-31.401-.475-3.279-.585-9.524-.225-12.759 1.139-10.247.34-17.737-2.33-21.856-4.089-6.31-8.812 3.072-8.13 16.152.248 4.771 1.294 8.948 2.83 11.303 1.252 1.922 3.05 2.498 3.344 1.074.154-.747-.18-1.29-1.006-1.631-1.022-.422-1.702-1.455-2.414-3.665-2.01-6.239-1.658-16.132.75-21.051 1.942-3.969 4.666-.898 5.643 6.363.459 3.406.43 6.526-.105 11.526-.575 5.378-.575 8.679 0 14.662l.45 4.663.004 27.426c.002 17.892.069 27.857.19 28.666.102.682.48 2.231.84 3.443.997 3.353.927 4.8-.767 15.775-.051.329-.075.485-.557.548h2.422ZM28.968 220.147v-4.837c0-3.446-.064-5.001-.216-5.234-.33-.506-1.007-.393-1.215.203-.107.307-.186 2.52-.186 5.233v4.635h1.617ZM8.313 220.147v-10.643c0-9.275-.037-10.755-.275-11.058-.21-.267-.38-.277-.719-.039l-.443.309v21.431h1.437ZM1.131 94.556c-.003-8.552.022-9.304.312-9.563.196-.175.287-.263.379-.265.093-.002.188.083.396.253.333.273.347.674.347 9.768 0 8.754-.024 9.503-.314 9.732-.349.275-.783.125-.985-.339-.073-.167-.133-4.48-.135-9.585ZM47.222 102.809c-.18-1.035-.127-13.893.062-14.652.19-.768.84-.967 1.225-.376.157.24.216 2.361.216 7.816 0 6.289-.043 7.54-.267 7.826-.38.484-1.107.124-1.236-.614ZM62.148 108.246c.059-15.84.11-18.826.332-19.35.299-.704.585-.777 1.042-.264.3.336.313 1.401.241 18.661-.084 20.29-.102 20.672-1.457 31.527-1.22 9.775-1.542 14.202-1.545 21.249-.003 6.794.247 10.551 1.629 24.474 1.131 11.406 1.673 20.328 1.352 22.288-.105.642-.201.733-.697.659-.517-.077-.589-.197-.702-1.187-.07-.606-.132-2.279-.139-3.719-.014-3.201-.322-7.295-1.355-18.041-1.41-14.664-1.707-19.017-1.704-24.927.002-5.566.57-12.963 1.63-21.209.464-3.618.762-5.872.957-8.135.366-4.259.366-8.55.416-22.026ZM14.779 98.113c0-4.95.07-8.146.185-8.478.208-.595.886-.708 1.216-.202.158.243.215 2.548.215 8.657 0 7.202-.038 8.385-.282 8.759-.39.598-.726.541-1.055-.179-.237-.52-.28-1.812-.28-8.557ZM76.026 110.138c0-17.468.03-19.666.282-20.052.37-.567.542-.546.975.118.352.541.36.919.36 19.677 0 11.76-.068 19.397-.176 19.831-.19.768-.84.967-1.226.376-.163-.251-.215-5.057-.215-19.95ZM6.93 108.273c-.102-5.385-.087-5.782.222-6.129.945-1.059 1.102-.375 1.24 5.413.152 6.437.417 9.697 1.622 19.97 1.283 10.939 1.435 13.153 1.422 20.658-.013 8.012-.31 11.608-1.747 21.209-.34 2.272-.707 4.937-.814 5.922-.231 2.11-.56 9.651-.562 12.843 0 2.604-.22 3.168-1.018 2.611l-.468-.327.097-6.255c.105-6.82.321-9.276 1.482-16.847 1.053-6.868 1.363-10.65 1.468-17.917.113-7.749-.07-10.579-1.387-21.545-1.211-10.072-1.43-12.835-1.558-19.606ZM47.108 113.954c0-2.989.06-3.925.28-4.407.154-.337.427-.612.607-.612.657 0 .741.605.69 4.961-.047 3.965-.072 4.222-.44 4.597-.353.358-.43.341-.764-.173-.34-.523-.373-.894-.373-4.366Z"/><path fill="#000" fill-opacity=".03" fill-rule="evenodd" d="M35.869 120.778c-.437-3.195-.019-6.898.946-8.377.952-1.46 2.116-.624 2.755 1.98.327 1.331.376 2.008.317 4.332-.09 3.493-.524 5.183-1.49 5.802-1.233.79-2.081-.463-2.528-3.737Zm2.063 1.255c.296-.28.607-3.054.516-4.597-.048-.813-.206-1.912-.352-2.442l-.265-.964-.245.689c-.384 1.082-.454 5.166-.11 6.428.157.577.362.975.456.886Z" clip-rule="evenodd"/><path fill="#000" fill-opacity=".03" d="M.53 116.922c.08-3.174.16-4.064.384-4.338.375-.457.66-.434.935.074.172.316.203 1.54.128 5.027-.08 3.75-.217 5.532-.739 9.566-1.373 10.628-1.829 17.365-1.666 24.652.126 5.682.379 9.143 1.556 21.347 1.064 11.029 1.228 14.344 1.378 27.928.11 9.783.095 10.601-.19 10.92-.38.427-.966.219-1.085-.385-.05-.249-.175-5.658-.28-12.021-.228-13.913-.304-15.351-1.435-27.131-1.277-13.313-1.487-16.608-1.473-23.203.015-7.571.265-10.892 1.738-23.071.468-3.869.677-6.487.75-9.365ZM14.779 149.896c0-23.177.06-34.561.185-34.92.208-.595.886-.708 1.216-.202.165.254.215 8.424.215 35.099 0 31.24-.028 34.812-.282 35.201-.39.599-.726.542-1.055-.179-.25-.546-.28-4.322-.28-34.999Z"/><path fill="#000" fill-opacity=".03" d="M3.654 132.072c.117-.985.326-2.07.464-2.411.29-.714.573-.777 1.056-.236.332.373.333.454.036 2.835-.169 1.347-.673 4.227-1.12 6.399-.447 2.172-.932 5.003-1.079 6.291-.473 4.158-.294 11.281.384 15.328.357 2.134.944 4.02 1.25 4.02.443 0 1.106-2.538 1.52-5.82.294-2.322.506-8.445.366-10.569l-.127-1.928-.48 1.515c-.265.833-.482 1.831-.483 2.218-.001.386-.1.851-.218 1.032-.32.491-1.004.401-1.2-.157-.354-1.017.396-4.56 1.279-6.039.453-.758 1.184-1.019 1.82-.648.793.462 1.011 1.71 1.011 5.778 0 10.066-1.444 17.097-3.51 17.097-1.57 0-2.852-4.564-3.33-11.844-.387-5.911-.036-10.336 1.363-17.215.431-2.121.88-4.662.998-5.646ZM27.351 141.023c0-1.762.084-3.443.186-3.736.208-.596.885-.708 1.215-.202.146.223.216 1.499.216 3.938 0 3.819-.089 4.27-.838 4.27-.631 0-.779-.809-.779-4.27ZM76.241 182.698c-.312-.479-.312-39.626 0-40.105.386-.591 1.036-.392 1.226.376.108.435.175 8.051.175 19.771 0 16.809-.033 19.136-.28 19.676-.307.674-.787.794-1.12.282Z"/><path fill="#000" fill-opacity=".03" fill-rule="evenodd" d="M63.092 154.715c.284-5.467.817-8.512 1.758-10.042 1.058-1.72 2.392-.58 3.071 2.625.566 2.673.753 4.679.866 9.288.285 11.71-1.661 19.373-3.966 15.612-1.354-2.21-2.12-9.956-1.729-17.483Zm3.967 9.996c.475-4.665.142-13.319-.655-16.999-.435-2.005-.72-1.699-1.216 1.306-1.019 6.168-.818 15.931.43 20.966.37 1.492.978-.734 1.44-5.273Z" clip-rule="evenodd"/><path fill="#000" fill-opacity=".03" d="M27.351 176.713c0-21.901.03-24.541.283-24.928.358-.55.693-.549 1.053.002.254.39.278 2.948.237 25.1l-.046 24.666-.391.398c-.352.359-.428.341-.763-.173-.371-.569-.373-.649-.373-25.065ZM14.779 202.092c0-4.285.072-7.186.185-7.514.208-.595.886-.708 1.216-.202.156.241.215 2.334.215 7.693 0 6.326-.04 7.423-.282 7.795-.39.598-.726.541-1.055-.179-.235-.515-.28-1.721-.28-7.593ZM151.476 208.078c.885-.192.933.134.933 6.321v5.748h-1.444l.097-11.979.414-.09ZM138.399 220.147v-136h-1.616v136h1.616ZM131.933 220.147v-6.313c0-5.374-.042-6.38-.282-6.748-.358-.549-.694-.549-1.052 0-.24.368-.282 1.374-.282 6.748v6.313h1.616ZM125.108 220.147v-1.338c0-1.925.479-5.862 1.005-8.268.249-1.138 1.126-4.431 1.947-7.317 2.31-8.112 2.973-12.044 2.973-17.642 0-5.303-.561-8.814-2.815-17.628-.736-2.879-1.618-6.463-1.959-7.964-1.149-5.054-1.151-5.115-1.151-28.8 0-19.43-.057-22.1.709-24.508.182-.574.412-1.133.699-1.9 1.325-3.529 1.557-4.822 1.545-8.58-.012-3.502-.11-4.027-1.762-9.434l-.8-2.62h-4.763l3.122.072 1.178 3.856c1.458 4.776 1.769 6.51 1.626 9.1-.134 2.439-.446 3.795-1.464 6.369-.446 1.124-.991 2.813-1.213 3.754-.403 1.709-.404 1.726-.458 22.919-.038 14.611.008 21.895.146 23.413.338 3.69.845 6.269 2.542 12.913 2.954 11.565 3.201 13.045 3.211 19.176.01 5.625-.474 8.467-2.881 16.927-2.091 7.351-2.679 10.404-2.963 15.368l-.121 2.132h1.647ZM118.642 220.147l-.003-6.677c-.001-3.673-.051-6.959-.111-7.302-.129-.737-.855-1.098-1.235-.614-.224.285-.268 1.496-.268 7.468v7.125h1.617ZM104.273 220.147v-136h-1.437v136h1.437ZM91.341 220.147v-5.35c0-5.804-.109-6.767-.768-6.767-.806 0-.848.322-.848 6.391v5.726h1.616ZM81.642 84.147v14.929c0 9.075.07 15.272.175 15.7.19.768.84.967 1.226.376.163-.25.216-4.113.216-15.7V84.147h-1.617ZM89.752 84.147l-.076 14.327c-.084 15.595-.098 15.878-1.212 23.343-1.437 9.631-1.703 13.298-1.7 23.413.003 9.419.08 10.591 1.449 22.001 1.313 10.946 1.365 11.709 1.488 21.902.103 8.479.142 9.364.428 9.639.229.221.4.221.628 0 .287-.278.32-1.081.368-9.226.06-10.006.02-10.683-1.308-22.005-1.461-12.47-1.83-18.306-1.627-25.754.187-6.846.585-11.238 1.736-19.128 1.187-8.136 1.255-9.369 1.363-24.736l.097-13.776h-1.634ZM109.383 84.147c.408.063.434.184.375.417-.346 1.371-1.345 8.276-1.524 10.536-.25 3.156-.262 9.856-.023 12.67.219 2.567.571 5.137 1.268 9.258 1.06 6.255 1.08 6.947 1.08 35.735 0 20.039.051 26.314.216 26.566.33.506 1.007.394 1.215-.202.246-.705.248-48.763.002-53.316-.211-3.902-.487-6.251-1.335-11.366-.91-5.487-1.238-9.801-1.114-14.663.115-4.54.226-5.653 1.146-11.5l.651-4.135h-1.957Z"/><path fill="#000" fill-opacity=".03" d="M115.431 84.147c.321.073.301.228.253.555-1.086 7.364-1.373 9.715-1.378 11.282-.008 2.434.115 3.238.896 5.864l.656 2.203.107 29.335c.094 25.95.141 29.573.406 31.4.474 3.279.584 9.525.224 12.76-1.138 10.247-.34 17.736 2.33 21.856 4.089 6.31 8.813-3.072 8.131-16.153-.248-4.77-1.294-8.947-2.83-11.302-1.253-1.922-3.05-2.499-3.345-1.074-.154.747.181 1.29 1.007 1.631 1.021.421 1.701 1.454 2.413 3.664 2.01 6.239 1.658 16.132-.749 21.052-1.943 3.969-4.667.898-5.644-6.363-.458-3.407-.43-6.527.105-11.527.576-5.377.576-8.678 0-14.662l-.449-4.662-.004-27.427c-.003-17.891-.069-27.857-.19-28.665-.103-.682-.481-2.231-.841-3.443-.997-3.353-.926-4.8.768-15.775.051-.33.075-.486.557-.549h-2.423ZM130.317 84.147v4.838c0 3.446.064 5.001.215 5.233.33.506 1.007.394 1.215-.202.107-.308.186-2.52.186-5.233v-4.636h-1.616ZM150.972 84.147v10.644c0 9.274.037 10.755.275 11.058.21.267.379.276.718.039l.444-.31v-21.43h-1.437ZM158.153 209.738c.003 8.553-.022 9.305-.311 9.563-.197.176-.287.264-.38.266-.093.002-.188-.083-.395-.253-.334-.274-.348-.675-.348-9.769 0-8.753.025-9.502.315-9.731.348-.275.783-.126.985.339.072.166.133 4.48.134 9.585ZM112.062 201.486c.181 1.035.127 13.892-.061 14.652-.191.768-.841.967-1.226.376-.157-.241-.216-2.361-.216-7.816 0-6.289.043-7.54.268-7.826.38-.485 1.106-.124 1.235.614ZM97.136 196.049c-.058 15.839-.11 18.825-.332 19.349-.298.705-.584.778-1.042.264-.299-.335-.313-1.401-.24-18.661.084-20.29.101-20.671 1.456-31.526 1.221-9.775 1.543-14.203 1.546-21.249.002-6.794-.248-10.551-1.63-24.474-1.131-11.406-1.672-20.328-1.352-22.288.105-.642.202-.733.698-.66.517.077.588.198.702 1.188.07.606.131 2.279.138 3.718.015 3.201.322 7.296 1.355 18.042 1.41 14.663 1.708 19.017 1.705 24.927-.003 5.566-.571 12.962-1.63 21.209-.464 3.617-.763 5.871-.957 8.134-.367 4.26-.367 8.551-.417 22.027ZM144.506 206.182c0 4.949-.07 8.145-.186 8.477-.208.596-.885.708-1.215.202-.158-.242-.216-2.548-.216-8.656 0-7.202.038-8.385.282-8.759.391-.599.726-.542 1.055.179.238.52.28 1.812.28 8.557ZM83.259 194.156c0 17.468-.031 19.667-.282 20.052-.37.567-.543.546-.976-.118-.352-.54-.359-.918-.359-19.676 0-11.76.068-19.397.175-19.832.19-.768.84-.967 1.226-.376.164.251.216 5.058.216 19.95ZM152.355 196.022c.101 5.384.087 5.781-.223 6.128-.945 1.06-1.101.375-1.239-5.413-.153-6.436-.417-9.697-1.622-19.969-1.283-10.939-1.436-13.153-1.423-20.658.013-8.012.31-11.609 1.747-21.209.341-2.273.707-4.937.815-5.922.231-2.111.56-9.652.561-12.843.001-2.604.221-3.169 1.018-2.611l.468.327-.096 6.255c-.106 6.819-.322 9.276-1.482 16.847-1.053 6.868-1.363 10.649-1.469 17.916-.112 7.75.07 10.58 1.388 21.546 1.21 10.072 1.43 12.835 1.557 19.606ZM112.176 190.341c0 2.989-.059 3.925-.28 4.407-.153.337-.426.612-.606.612-.658 0-.742-.605-.69-4.962.047-3.964.071-4.221.44-4.596.352-.358.428-.341.764.173.34.523.372.894.372 4.366Z"/><path fill="#000" fill-opacity=".03" fill-rule="evenodd" d="M123.416 183.516c.436 3.196.018 6.899-.946 8.378-.953 1.46-2.117.624-2.756-1.98-.326-1.331-.376-2.008-.316-4.332.089-3.494.523-5.183 1.49-5.802 1.233-.791 2.081.463 2.528 3.736Zm-2.064-1.254c-.295.279-.606 3.054-.516 4.597.048.812.206 1.911.352 2.441l.266.964.244-.688c.384-1.082.455-5.166.111-6.428-.157-.577-.363-.976-.457-.886Z" clip-rule="evenodd"/><path fill="#000" fill-opacity=".03" d="M158.754 187.372c-.08 3.175-.159 4.065-.384 4.339-.375.457-.66.434-.935-.074-.171-.317-.202-1.541-.128-5.027.08-3.75.218-5.533.739-9.567 1.374-10.628 1.829-17.365 1.667-24.652-.127-5.682-.379-9.142-1.556-21.346-1.064-11.029-1.228-14.344-1.379-27.928-.109-9.784-.094-10.602.19-10.92.381-.427.967-.22 1.086.385.049.248.174 5.658.279 12.02.228 13.914.305 15.352 1.435 27.131 1.278 13.313 1.487 16.608 1.474 23.203-.015 7.572-.265 10.892-1.738 23.071-.468 3.87-.678 6.488-.75 9.365ZM144.506 154.399c0 23.177-.061 34.56-.186 34.92-.208.595-.885.708-1.215.202-.166-.254-.216-8.424-.216-35.099 0-31.241.029-34.813.282-35.202.391-.598.726-.541 1.055.18.25.546.28 4.322.28 34.999Z"/><path fill="#000" fill-opacity=".03" d="M155.631 172.223c-.118.985-.327 2.069-.465 2.41-.29.715-.572.778-1.055.236-.333-.373-.334-.453-.036-2.834.168-1.348.672-4.227 1.119-6.399.447-2.172.933-5.003 1.079-6.292.473-4.157.295-11.281-.383-15.327-.358-2.135-.945-4.02-1.251-4.02-.443 0-1.106 2.538-1.52 5.82-.293 2.322-.505 8.445-.366 10.568l.127 1.928.481-1.515c.265-.833.482-1.831.483-2.217.001-.386.099-.851.217-1.033.32-.49 1.005-.4 1.199.158.355 1.017-.394 4.56-1.278 6.039-.452.758-1.184 1.018-1.82.647-.792-.462-1.011-1.709-1.011-5.778 0-10.065 1.444-17.096 3.511-17.096 1.569 0 2.852 4.563 3.329 11.843.387 5.911.037 10.337-1.362 17.216-.432 2.12-.881 4.661-.998 5.646ZM131.933 163.271c0 1.762-.084 3.444-.186 3.737-.208.595-.885.708-1.215.202-.146-.223-.215-1.499-.215-3.939 0-3.818.088-4.269.837-4.269.632 0 .779.809.779 4.269ZM83.043 121.597c.312.478.312 39.626 0 40.104-.385.591-1.035.392-1.226-.376-.107-.434-.175-8.05-.175-19.77 0-16.809.033-19.137.28-19.676.307-.674.787-.794 1.121-.282Z"/><path fill="#000" fill-opacity=".03" fill-rule="evenodd" d="M96.192 149.58c-.283 5.467-.817 8.511-1.758 10.042-1.058 1.72-2.392.58-3.07-2.625-.567-2.673-.754-4.679-.866-9.288-.286-11.71 1.66-19.374 3.965-15.613 1.354 2.21 2.12 9.957 1.73 17.484Zm-3.966-9.997c-.476 4.665-.142 13.32.655 16.999.434 2.006.72 1.7 1.216-1.305 1.018-6.168.818-15.932-.43-20.967-.37-1.492-.979.735-1.441 5.273Z" clip-rule="evenodd"/><path fill="#000" fill-opacity=".03" d="M131.933 127.582c0 21.9-.03 24.541-.282 24.928-.359.549-.694.549-1.053-.002-.254-.39-.279-2.948-.237-25.101l.045-24.666.391-.398c.352-.358.428-.341.764.173.371.569.372.65.372 25.066ZM144.506 102.203c0 4.285-.072 7.186-.186 7.513-.208.596-.885.708-1.215.202-.157-.24-.216-2.333-.216-7.692 0-6.326.04-7.423.282-7.795.391-.599.726-.542 1.055.18.235.514.28 1.72.28 7.592ZM175.009 96.217c-.885.192-.933-.135-.933-6.322v-5.748h1.444l-.097 11.98-.414.09ZM188.086 84.147v136h1.616v-136h-1.616ZM194.552 84.147v6.313c0 5.374.042 6.38.282 6.749.358.549.694.549 1.052 0 .24-.369.282-1.375.282-6.749v-6.313h-1.616ZM201.377 84.147v1.339c0 1.925-.479 5.861-1.005 8.267-.249 1.138-1.126 4.431-1.947 7.317-2.311 8.113-2.973 12.045-2.973 17.643 0 5.303.561 8.814 2.815 17.628.736 2.878 1.617 6.462 1.959 7.964 1.148 5.053 1.151 5.115 1.151 28.8 0 19.43.057 22.1-.709 24.508-.183.574-.412 1.132-.699 1.899-1.325 3.53-1.558 4.823-1.545 8.581.012 3.501.11 4.027 1.762 9.434l.8 2.62h4.763l-3.122-.072-1.178-3.856c-1.459-4.776-1.769-6.511-1.627-9.1.135-2.439.447-3.796 1.465-6.369.445-1.124.991-2.814 1.213-3.754.403-1.709.404-1.727.458-22.92.038-14.611-.008-21.894-.146-23.412-.338-3.69-.846-6.269-2.542-12.913-2.954-11.566-3.202-13.045-3.212-19.176-.009-5.626.475-8.468 2.881-16.928 2.092-7.35 2.68-10.403 2.963-15.368l.122-2.132h-1.647ZM207.843 84.147l.002 6.677c.002 3.674.052 6.96.112 7.302.129.738.855 1.099 1.235.614.224-.285.267-1.495.267-7.467v-7.126h-1.616ZM222.212 84.147v136h1.437v-136h-1.437ZM235.144 84.147v5.351c0 5.804.109 6.766.768 6.766.805 0 .848-.322.848-6.39v-5.727h-1.616ZM244.843 220.147v-14.928c0-9.075-.07-15.272-.175-15.7-.191-.768-.841-.967-1.226-.376-.163.249-.216 4.113-.216 15.7v15.304h1.617ZM236.732 220.147l.077-14.326c.083-15.596.098-15.878 1.212-23.344 1.437-9.631 1.703-13.297 1.7-23.412-.003-9.419-.08-10.591-1.449-22.002-1.313-10.945-1.365-11.708-1.488-21.902-.103-8.478-.143-9.363-.428-9.639-.229-.221-.4-.221-.629.001-.287.277-.319 1.081-.367 9.226-.06 10.005-.019 10.682 1.308 22.005 1.461 12.47 1.83 18.306 1.627 25.754-.187 6.846-.586 11.237-1.736 19.128-1.187 8.136-1.255 9.368-1.363 24.736l-.097 13.775h1.633ZM217.101 220.147c-.407-.062-.433-.183-.374-.416.346-1.371 1.345-8.276 1.524-10.536.25-3.157.262-9.856.023-12.67-.219-2.567-.571-5.137-1.269-9.258-1.059-6.256-1.08-6.947-1.08-35.736 0-20.038-.05-26.313-.215-26.566-.33-.506-1.007-.393-1.215.202-.246.705-.248 48.763-.002 53.316.211 3.902.487 6.252 1.335 11.367.91 5.487 1.238 9.801 1.114 14.663-.115 4.539-.226 5.652-1.146 11.499l-.651 4.135h1.956Z"/><path fill="#000" fill-opacity=".03" d="M211.053 220.147c-.32-.073-.3-.227-.252-.554 1.086-7.364 1.373-9.715 1.378-11.282.008-2.435-.115-3.238-.896-5.864l-.656-2.204-.107-29.334c-.095-25.951-.142-29.573-.406-31.401-.474-3.279-.584-9.524-.225-12.759 1.139-10.247.341-17.737-2.329-21.856-4.09-6.31-8.813 3.072-8.131 16.152.248 4.771 1.294 8.948 2.829 11.303 1.253 1.922 3.051 2.498 3.345 1.074.155-.747-.18-1.29-1.006-1.631-1.021-.422-1.701-1.455-2.413-3.665-2.011-6.239-1.658-16.132.749-21.051 1.942-3.969 4.667-.898 5.644 6.363.458 3.406.43 6.526-.105 11.526-.576 5.378-.576 8.679 0 14.662l.449 4.663.004 27.426c.003 17.892.069 27.857.19 28.666.102.682.481 2.231.841 3.443.997 3.353.926 4.8-.768 15.775-.051.329-.075.485-.557.548h2.422ZM196.168 220.147v-4.837c0-3.446-.064-5.001-.215-5.234-.33-.506-1.008-.393-1.215.203-.108.307-.186 2.52-.186 5.233v4.635h1.616ZM175.513 220.147v-10.643c0-9.275-.037-10.755-.275-11.058-.21-.267-.379-.277-.718-.039l-.444.309v21.431h1.437ZM168.331 94.556c-.002-8.552.022-9.304.312-9.563.196-.175.287-.263.379-.265.094-.002.189.083.396.253.333.273.348.674.348 9.768 0 8.754-.025 9.503-.315 9.732-.348.275-.783.125-.985-.339-.072-.167-.133-4.48-.135-9.585ZM214.423 102.809c-.181-1.035-.127-13.893.061-14.652.19-.768.84-.967 1.226-.376.157.24.215 2.361.215 7.816 0 6.289-.042 7.54-.267 7.826-.38.484-1.106.124-1.235-.614ZM229.349 108.246c.058-15.84.109-18.826.332-19.35.298-.704.584-.777 1.042-.264.299.336.312 1.401.241 18.661-.085 20.29-.102 20.672-1.458 31.527-1.22 9.775-1.542 14.202-1.545 21.249-.002 6.794.248 10.551 1.629 24.474 1.132 11.406 1.673 20.328 1.353 22.288-.105.642-.202.733-.698.659-.517-.077-.588-.197-.702-1.187-.069-.606-.132-2.279-.138-3.719-.015-3.201-.322-7.295-1.355-18.041-1.41-14.664-1.708-19.017-1.705-24.927.003-5.566.571-12.963 1.63-21.209.464-3.618.762-5.872.957-8.135.367-4.259.367-8.55.417-22.026ZM181.979 98.113c0-4.95.07-8.146.186-8.478.208-.595.885-.708 1.215-.202.158.243.216 2.548.216 8.657 0 7.202-.039 8.385-.283 8.759-.39.598-.725.541-1.054-.179-.238-.52-.28-1.812-.28-8.557ZM243.226 110.138c0-17.468.031-19.666.282-20.052.37-.567.542-.546.975.118.353.541.36.919.36 19.677 0 11.76-.068 19.397-.175 19.831-.191.768-.841.967-1.226.376-.164-.251-.216-5.057-.216-19.95ZM174.13 108.273c-.101-5.385-.087-5.782.223-6.129.945-1.059 1.101-.375 1.239 5.413.152 6.437.417 9.697 1.622 19.97 1.283 10.939 1.435 13.153 1.423 20.658-.014 8.012-.31 11.608-1.747 21.209-.341 2.272-.707 4.937-.815 5.922-.231 2.11-.56 9.651-.561 12.843-.001 2.604-.221 3.168-1.018 2.611l-.468-.327.096-6.255c.106-6.82.322-9.276 1.482-16.847 1.053-6.868 1.363-10.65 1.469-17.917.112-7.749-.07-10.579-1.388-21.545-1.211-10.072-1.43-12.835-1.557-19.606ZM214.309 113.954c0-2.989.059-3.925.28-4.407.153-.337.426-.612.606-.612.658 0 .742.605.69 4.961-.047 3.965-.071 4.222-.44 4.597-.352.358-.429.341-.764-.173-.34-.523-.372-.894-.372-4.366Z"/><path fill="#000" fill-opacity=".03" fill-rule="evenodd" d="M203.069 120.778c-.436-3.195-.018-6.898.946-8.377.952-1.46 2.116-.624 2.755 1.98.327 1.331.377 2.008.317 4.332-.089 3.493-.523 5.183-1.49 5.802-1.233.79-2.081-.463-2.528-3.737Zm2.064 1.255c.295-.28.606-3.054.516-4.597-.048-.813-.207-1.912-.352-2.442l-.266-.964-.244.689c-.385 1.082-.455 5.166-.111 6.428.157.577.363.975.457.886Z" clip-rule="evenodd"/><path fill="#000" fill-opacity=".03" d="M167.731 116.922c.08-3.174.159-4.064.383-4.338.376-.457.661-.434.936.074.171.316.202 1.54.128 5.027-.08 3.75-.218 5.532-.739 9.566-1.374 10.628-1.83 17.365-1.667 24.652.127 5.682.379 9.143 1.556 21.347 1.064 11.029 1.228 14.344 1.379 27.928.109 9.783.094 10.601-.19 10.92-.381.427-.967.219-1.086-.385-.049-.249-.175-5.658-.279-12.021-.229-13.913-.305-15.351-1.435-27.131-1.278-13.313-1.487-16.608-1.474-23.203.015-7.571.265-10.892 1.738-23.071.468-3.869.678-6.487.75-9.365ZM181.979 149.896c0-23.177.061-34.561.186-34.92.208-.595.885-.708 1.215-.202.165.254.216 8.424.216 35.099 0 31.24-.029 34.812-.283 35.201-.39.599-.725.542-1.054-.179-.25-.546-.28-4.322-.28-34.999Z"/><path fill="#000" fill-opacity=".03" d="M170.854 132.072c.117-.985.327-2.07.465-2.411.289-.714.572-.777 1.055-.236.333.373.334.454.036 2.835-.168 1.347-.672 4.227-1.119 6.399-.447 2.172-.933 5.003-1.079 6.291-.473 4.158-.295 11.281.383 15.328.358 2.134.945 4.02 1.251 4.02.443 0 1.106-2.538 1.52-5.82.293-2.322.505-8.445.366-10.569l-.127-1.928-.481 1.515c-.265.833-.482 1.831-.483 2.218-.001.386-.099.851-.217 1.032-.32.491-1.005.401-1.2-.157-.355-1.017.395-4.56 1.278-6.039.453-.758 1.185-1.019 1.821-.648.792.462 1.01 1.71 1.01 5.778 0 10.066-1.443 17.097-3.51 17.097-1.569 0-2.852-4.564-3.329-11.844-.387-5.911-.037-10.336 1.362-17.215.432-2.121.881-4.662.998-5.646ZM194.552 141.023c0-1.762.083-3.443.186-3.736.207-.596.885-.708 1.215-.202.145.223.215 1.499.215 3.938 0 3.819-.088 4.27-.838 4.27-.631 0-.778-.809-.778-4.27ZM243.442 182.698c-.312-.479-.312-39.626 0-40.105.385-.591 1.035-.392 1.226.376.107.435.175 8.051.175 19.771 0 16.809-.033 19.136-.28 19.676-.308.674-.787.794-1.121.282Z"/><path fill="#000" fill-opacity=".03" fill-rule="evenodd" d="M230.292 154.715c.284-5.467.817-8.512 1.759-10.042 1.058-1.72 2.392-.58 3.071 2.625.566 2.673.753 4.679.865 9.288.286 11.71-1.661 19.373-3.965 15.612-1.355-2.21-2.121-9.956-1.73-17.483Zm3.967 9.996c.476-4.665.142-13.319-.655-16.999-.434-2.005-.72-1.699-1.216 1.306-1.018 6.168-.818 15.931.431 20.966.369 1.492.978-.734 1.44-5.273Z" clip-rule="evenodd"/><path fill="#000" fill-opacity=".03" d="M194.552 176.713c0-21.901.03-24.541.282-24.928.359-.55.694-.549 1.053.002.254.39.279 2.948.237 25.1l-.046 24.666-.391.398c-.351.359-.428.341-.763-.173-.371-.569-.372-.649-.372-25.065ZM181.979 202.092c0-4.285.072-7.186.186-7.514.208-.595.885-.708 1.215-.202.157.241.216 2.334.216 7.693 0 6.326-.04 7.423-.283 7.795-.39.598-.725.541-1.054-.179-.236-.515-.28-1.721-.28-7.593ZM318.676 208.078c.885-.192.933.134.933 6.321v5.748h-1.444l.097-11.979.414-.09ZM305.599 220.147v-136h-1.616v136h1.616ZM299.134 220.147v-6.313c0-5.374-.043-6.38-.283-6.748-.358-.549-.693-.549-1.052 0-.24.368-.282 1.374-.282 6.748v6.313h1.617ZM292.308 220.147v-1.338c0-1.925.479-5.862 1.006-8.268.249-1.138 1.125-4.431 1.947-7.317 2.31-8.112 2.972-12.044 2.972-17.642 0-5.303-.56-8.814-2.814-17.628-.736-2.879-1.618-6.463-1.96-7.964-1.148-5.054-1.151-5.115-1.151-28.8 0-19.43-.057-22.1.709-24.508.183-.574.412-1.133.7-1.9 1.324-3.529 1.557-4.822 1.544-8.58-.012-3.502-.11-4.027-1.761-9.434l-.801-2.62h-4.763l3.122.072 1.178 3.856c1.459 4.776 1.769 6.51 1.627 9.1-.134 2.439-.446 3.795-1.465 6.369-.445 1.124-.991 2.813-1.213 3.754-.403 1.709-.403 1.726-.458 22.919-.037 14.611.008 21.895.147 23.413.337 3.69.845 6.269 2.541 12.913 2.954 11.565 3.202 13.045 3.212 19.176.009 5.625-.474 8.467-2.881 16.927-2.091 7.351-2.68 10.404-2.963 15.368l-.122 2.132h1.647ZM285.842 220.147l-.002-6.677c-.001-3.673-.052-6.959-.111-7.302-.129-.737-.855-1.098-1.236-.614-.224.285-.267 1.496-.267 7.468v7.125h1.616ZM271.474 220.147v-136h-1.437v136h1.437ZM258.542 220.147v-5.35c0-5.804-.11-6.767-.768-6.767-.806 0-.849.322-.849 6.391v5.726h1.617ZM248.843 84.147v14.929c0 9.075.069 15.272.175 15.7.19.768.84.967 1.226.376.162-.25.215-4.113.215-15.7V84.147h-1.616ZM256.953 84.147l-.077 14.327c-.083 15.595-.098 15.878-1.212 23.343-1.437 9.631-1.703 13.298-1.7 23.413.003 9.419.081 10.591 1.449 22.001 1.313 10.946 1.365 11.709 1.489 21.902.103 8.479.142 9.364.427 9.639.229.221.4.221.629 0 .287-.278.319-1.081.367-9.226.06-10.006.02-10.683-1.307-22.005-1.462-12.47-1.83-18.306-1.627-25.754.186-6.846.585-11.238 1.736-19.128 1.186-8.136 1.254-9.369 1.362-24.736l.097-13.776h-1.633ZM276.584 84.147c.407.063.433.184.374.417-.346 1.371-1.344 8.276-1.523 10.536-.251 3.156-.263 9.856-.023 12.67.218 2.567.57 5.137 1.268 9.258 1.059 6.255 1.08 6.947 1.08 35.735 0 20.039.051 26.314.215 26.566.33.506 1.008.394 1.216-.202.245-.705.247-48.763.001-53.316-.21-3.902-.486-6.251-1.335-11.366-.909-5.487-1.237-9.801-1.114-14.663.115-4.54.226-5.653 1.146-11.5l.651-4.135h-1.956Z"/><path fill="#000" fill-opacity=".03" d="M282.632 84.147c.32.073.3.228.252.555-1.086 7.364-1.373 9.715-1.378 11.282-.008 2.434.115 3.238.896 5.864l.656 2.203.107 29.335c.095 25.95.142 29.573.406 31.4.475 3.279.584 9.525.225 12.76-1.139 10.247-.341 17.736 2.329 21.856 4.09 6.31 8.813-3.072 8.132-16.153-.249-4.77-1.295-8.947-2.83-11.302-1.253-1.922-3.05-2.499-3.345-1.074-.155.747.181 1.29 1.006 1.631 1.022.421 1.702 1.454 2.414 3.664 2.01 6.239 1.658 16.132-.75 21.052-1.942 3.969-4.666.898-5.643-6.363-.459-3.407-.43-6.527.105-11.527.575-5.377.575-8.678-.001-14.662l-.448-4.662-.005-27.427c-.002-17.891-.069-27.857-.19-28.665-.102-.682-.48-2.231-.841-3.443-.996-3.353-.926-4.8.768-15.775.051-.33.075-.486.557-.549h-2.422ZM297.517 84.147v4.838c0 3.446.064 5.001.216 5.233.33.506 1.007.394 1.215-.202.107-.308.186-2.52.186-5.233v-4.636h-1.617ZM318.172 84.147v10.644c0 9.274.037 10.755.275 11.058.21.267.379.276.718.039l.444-.31v-21.43h-1.437ZM325.354 209.738c.002 8.553-.022 9.305-.312 9.563-.196.176-.287.264-.379.266-.093.002-.188-.083-.396-.253-.333-.274-.347-.675-.347-9.769 0-8.753.024-9.502.314-9.731.349-.275.783-.126.985.339.073.166.133 4.48.135 9.585ZM279.263 201.486c.181 1.035.127 13.892-.062 14.652-.19.768-.84.967-1.226.376-.157-.241-.215-2.361-.215-7.816 0-6.289.043-7.54.267-7.826.381-.485 1.107-.124 1.236.614ZM264.337 196.049c-.059 15.839-.11 18.825-.332 19.349-.299.705-.585.778-1.042.264-.3-.335-.313-1.401-.241-18.661.084-20.29.102-20.671 1.457-31.526 1.22-9.775 1.542-14.203 1.545-21.249.003-6.794-.247-10.551-1.629-24.474-1.132-11.406-1.673-20.328-1.352-22.288.105-.642.201-.733.697-.66.517.077.589.198.702 1.188.07.606.132 2.279.138 3.718.015 3.201.323 7.296 1.356 18.042 1.409 14.663 1.707 19.017 1.704 24.927-.002 5.566-.571 12.962-1.629 21.209-.465 3.617-.763 5.871-.958 8.134-.366 4.26-.366 8.551-.416 22.027ZM311.706 206.182c0 4.949-.07 8.145-.186 8.477-.207.596-.885.708-1.215.202-.158-.242-.215-2.548-.215-8.656 0-7.202.038-8.385.282-8.759.39-.599.725-.542 1.055.179.237.52.279 1.812.279 8.557ZM250.459 194.156c0 17.468-.031 19.667-.282 20.052-.37.567-.542.546-.975-.118-.352-.54-.359-.918-.359-19.676 0-11.76.067-19.397.175-19.832.19-.768.84-.967 1.226-.376.163.251.215 5.058.215 19.95ZM319.556 196.022c.101 5.384.086 5.781-.223 6.128-.945 1.06-1.102.375-1.239-5.413-.153-6.436-.418-9.697-1.623-19.969-1.283-10.939-1.435-13.153-1.423-20.658.014-8.012.31-11.609 1.748-21.209.34-2.273.706-4.937.814-5.922.231-2.111.561-9.652.561-12.843.001-2.604.221-3.169 1.019-2.611l.468.327-.097 6.255c-.105 6.819-.321 9.276-1.482 16.847-1.053 6.868-1.363 10.649-1.468 17.916-.113 7.75.07 10.58 1.387 21.546 1.211 10.072 1.43 12.835 1.558 19.606ZM279.376 190.341c0 2.989-.059 3.925-.279 4.407-.154.337-.427.612-.607.612-.657 0-.742-.605-.69-4.962.047-3.964.072-4.221.441-4.596.352-.358.428-.341.763.173.341.523.372.894.372 4.366Z"/><path fill="#000" fill-opacity=".03" fill-rule="evenodd" d="M290.616 183.516c.437 3.196.018 6.899-.946 8.378-.952 1.46-2.116.624-2.755-1.98-.327-1.331-.376-2.008-.317-4.332.09-3.494.524-5.183 1.49-5.802 1.233-.791 2.081.463 2.528 3.736Zm-2.063-1.254c-.296.279-.607 3.054-.516 4.597.047.812.206 1.911.352 2.441l.265.964.245-.688c.384-1.082.454-5.166.11-6.428-.157-.577-.362-.976-.456-.886Z" clip-rule="evenodd"/><path fill="#000" fill-opacity=".03" d="M325.954 187.372c-.08 3.175-.158 4.065-.383 4.339-.376.457-.661.434-.936-.074-.171-.317-.202-1.541-.128-5.027.081-3.75.218-5.533.74-9.567 1.373-10.628 1.829-17.365 1.666-24.652-.126-5.682-.379-9.142-1.556-21.346-1.064-11.029-1.228-14.344-1.379-27.928-.108-9.784-.094-10.602.19-10.92.381-.427.967-.22 1.086.385.049.248.175 5.658.279 12.02.229 13.914.305 15.352 1.435 27.131 1.278 13.313 1.487 16.608 1.474 23.203-.015 7.572-.265 10.892-1.738 23.071-.468 3.87-.677 6.488-.75 9.365ZM311.706 154.399c0 23.177-.06 34.56-.186 34.92-.207.595-.885.708-1.215.202-.165-.254-.215-8.424-.215-35.099 0-31.241.028-34.813.282-35.202.39-.598.725-.541 1.055.18.249.546.279 4.322.279 34.999Z"/><path fill="#000" fill-opacity=".03" d="M322.831 172.223c-.117.985-.326 2.069-.464 2.41-.29.715-.573.778-1.056.236-.332-.373-.333-.453-.036-2.834.169-1.348.672-4.227 1.119-6.399.448-2.172.933-5.003 1.08-6.292.472-4.157.294-11.281-.384-15.327-.357-2.135-.944-4.02-1.251-4.02-.443 0-1.105 2.538-1.52 5.82-.293 2.322-.505 8.445-.365 10.568l.127 1.928.481-1.515c.264-.833.481-1.831.482-2.217.001-.386.099-.851.217-1.033.32-.49 1.005-.4 1.2.158.355 1.017-.395 4.56-1.278 6.039-.453.758-1.185 1.018-1.821.647-.792-.462-1.01-1.709-1.01-5.778 0-10.065 1.444-17.096 3.51-17.096 1.57 0 2.852 4.563 3.329 11.843.388 5.911.037 10.337-1.362 17.216-.431 2.12-.88 4.661-.998 5.646ZM299.134 163.271c0 1.762-.084 3.444-.186 3.737-.208.595-.885.708-1.215.202-.146-.223-.216-1.499-.216-3.939 0-3.818.089-4.269.838-4.269.631 0 .779.809.779 4.269ZM250.244 121.597c.311.478.311 39.626 0 40.104-.386.591-1.036.392-1.226-.376-.108-.434-.175-8.05-.175-19.77 0-16.809.033-19.137.279-19.676.308-.674.788-.794 1.122-.282Z"/><path fill="#000" fill-opacity=".03" fill-rule="evenodd" d="M263.393 149.58c-.284 5.467-.817 8.511-1.758 10.042-1.059 1.72-2.392.58-3.071-2.625-.566-2.673-.753-4.679-.866-9.288-.285-11.71 1.661-19.374 3.966-15.613 1.354 2.21 2.12 9.957 1.729 17.484Zm-3.967-9.997c-.475 4.665-.142 13.32.655 16.999.435 2.006.72 1.7 1.216-1.305 1.018-6.168.818-15.932-.43-20.967-.37-1.492-.978.735-1.441 5.273Z" clip-rule="evenodd"/><path fill="#000" fill-opacity=".03" d="M299.134 127.582c0 21.9-.03 24.541-.283 24.928-.358.549-.693.549-1.053-.002-.254-.39-.278-2.948-.237-25.101l.046-24.666.391-.398c.352-.358.428-.341.763.173.371.569.373.65.373 25.066ZM311.706 102.203c0 4.285-.072 7.186-.186 7.513-.207.596-.885.708-1.215.202-.157-.24-.215-2.333-.215-7.692 0-6.326.039-7.423.282-7.795.39-.599.725-.542 1.055.18.235.514.279 1.72.279 7.592ZM342.21 96.217c-.885.192-.933-.135-.933-6.322v-5.748h1.444l-.097 11.98-.414.09ZM355.286 84.147v136h1.617v-136h-1.617ZM361.752 84.147v6.313c0 5.374.042 6.38.282 6.749.359.549.694.549 1.053 0 .24-.369.282-1.375.282-6.749v-6.313h-1.617ZM368.577 84.147v1.339c0 1.925-.478 5.861-1.005 8.267-.249 1.138-1.125 4.431-1.947 7.317-2.31 8.113-2.973 12.045-2.973 17.643 0 5.303.561 8.814 2.815 17.628.736 2.878 1.618 6.462 1.959 7.964 1.149 5.053 1.151 5.115 1.151 28.8 0 19.43.057 22.1-.709 24.508-.182.574-.411 1.132-.699 1.899-1.324 3.53-1.557 4.823-1.544 8.581.011 3.501.11 4.027 1.761 9.434l.8 2.62h4.764l-3.123-.072-1.177-3.856c-1.459-4.776-1.769-6.511-1.627-9.1.134-2.439.446-3.796 1.465-6.369.445-1.124.991-2.814 1.213-3.754.403-1.709.403-1.727.458-22.92.037-14.611-.008-21.894-.147-23.412-.337-3.69-.845-6.269-2.542-12.913-2.953-11.566-3.201-13.045-3.211-19.176-.01-5.626.474-8.468 2.881-16.928 2.091-7.35 2.68-10.403 2.963-15.368l.121-2.132h-1.647ZM375.043 84.147l.003 6.677c.001 3.674.051 6.96.111 7.302.129.738.855 1.099 1.236.614.224-.285.267-1.495.267-7.467v-7.126h-1.617ZM389.412 84.147v136h1.437v-136h-1.437ZM402.344 84.147v5.351c0 5.804.109 6.766.768 6.766.806 0 .849-.322.849-6.39v-5.727h-1.617ZM412.043 220.147v-14.928c0-9.075-.069-15.272-.175-15.7-.19-.768-.84-.967-1.226-.376-.162.249-.215 4.113-.215 15.7v15.304h1.616ZM403.933 220.147l.076-14.326c.084-15.596.099-15.878 1.212-23.344 1.438-9.631 1.704-13.297 1.7-23.412-.003-9.419-.08-10.591-1.449-22.002-1.312-10.945-1.364-11.708-1.488-21.902-.103-8.478-.142-9.363-.428-9.639-.229-.221-.399-.221-.628.001-.287.277-.319 1.081-.368 9.226-.059 10.005-.019 10.682 1.308 22.005 1.461 12.47 1.83 18.306 1.627 25.754-.187 6.846-.585 11.237-1.736 19.128-1.186 8.136-1.254 9.368-1.363 24.736l-.097 13.775h1.634ZM384.302 220.147c-.408-.062-.433-.183-.375-.416.346-1.371 1.345-8.276 1.524-10.536.25-3.157.262-9.856.023-12.67-.218-2.567-.57-5.137-1.268-9.258-1.059-6.256-1.08-6.947-1.08-35.736 0-20.038-.051-26.313-.216-26.566-.33-.506-1.007-.393-1.215.202-.246.705-.247 48.763-.002 53.316.211 3.902.487 6.252 1.335 11.367.91 5.487 1.238 9.801 1.115 14.663-.115 4.539-.226 5.652-1.147 11.499l-.651 4.135h1.957Z"/><path fill="#000" fill-opacity=".03" d="M378.254 220.147c-.32-.073-.301-.227-.252-.554 1.085-7.364 1.372-9.715 1.378-11.282.008-2.435-.115-3.238-.897-5.864l-.656-2.204-.107-29.334c-.094-25.951-.141-29.573-.405-31.401-.475-3.279-.585-9.524-.225-12.759 1.139-10.247.341-17.737-2.329-21.856-4.09-6.31-8.813 3.072-8.132 16.152.249 4.771 1.294 8.948 2.83 11.303 1.253 1.922 3.05 2.498 3.345 1.074.154-.747-.181-1.29-1.006-1.631-1.022-.422-1.702-1.455-2.414-3.665-2.01-6.239-1.658-16.132.75-21.051 1.942-3.969 4.666-.898 5.643 6.363.459 3.406.43 6.526-.105 11.526-.575 5.378-.575 8.679 0 14.662l.449 4.663.004 27.426c.003 17.892.069 27.857.191 28.666.102.682.48 2.231.84 3.443.997 3.353.927 4.8-.768 15.775-.05.329-.075.485-.556.548h2.422ZM363.369 220.147v-4.837c0-3.446-.064-5.001-.216-5.234-.33-.506-1.007-.393-1.215.203-.107.307-.186 2.52-.186 5.233v4.635h1.617ZM342.714 220.147v-10.643c0-9.275-.037-10.755-.275-11.058-.21-.267-.379-.277-.719-.039l-.443.309v21.431h1.437ZM335.532 94.556c-.003-8.552.022-9.304.311-9.563.197-.175.287-.263.38-.265.093-.002.188.083.396.253.333.273.347.674.347 9.768 0 8.754-.024 9.503-.314 9.732-.349.275-.783.125-.985-.339-.073-.167-.134-4.48-.135-9.585ZM381.623 102.809c-.181-1.035-.127-13.893.061-14.652.191-.768.841-.967 1.226-.376.157.24.216 2.361.216 7.816 0 6.289-.043 7.54-.267 7.826-.381.484-1.107.124-1.236-.614ZM396.549 108.246c.059-15.84.11-18.826.332-19.35.299-.704.584-.777 1.042-.264.299.336.313 1.401.241 18.661-.084 20.29-.102 20.672-1.457 31.527-1.221 9.775-1.543 14.202-1.545 21.249-.003 6.794.247 10.551 1.629 24.474 1.131 11.406 1.673 20.328 1.352 22.288-.105.642-.201.733-.697.659-.517-.077-.589-.197-.702-1.187-.07-.606-.132-2.279-.139-3.719-.014-3.201-.322-7.295-1.355-18.041-1.41-14.664-1.707-19.017-1.704-24.927.002-5.566.571-12.963 1.629-21.209.465-3.618.763-5.872.958-8.135.366-4.259.366-8.55.416-22.026ZM349.18 98.113c0-4.95.07-8.146.185-8.478.208-.595.886-.708 1.215-.202.159.243.216 2.548.216 8.657 0 7.202-.038 8.385-.282 8.759-.39.598-.726.541-1.055-.179-.237-.52-.279-1.812-.279-8.557ZM410.427 110.138c0-17.468.03-19.666.282-20.052.37-.567.542-.546.975.118.352.541.359.919.359 19.677 0 11.76-.067 19.397-.175 19.831-.19.768-.84.967-1.226.376-.164-.251-.215-5.057-.215-19.95ZM341.33 108.273c-.101-5.385-.087-5.782.223-6.129.945-1.059 1.102-.375 1.239 5.413.153 6.437.418 9.697 1.622 19.97 1.283 10.939 1.436 13.153 1.423 20.658-.013 8.012-.309 11.608-1.747 21.209-.34 2.272-.707 4.937-.814 5.922-.231 2.11-.561 9.651-.562 12.843-.001 2.604-.22 3.168-1.018 2.611l-.468-.327.097-6.255c.105-6.82.321-9.276 1.482-16.847 1.053-6.868 1.362-10.65 1.468-17.917.113-7.749-.07-10.579-1.388-21.545-1.21-10.072-1.429-12.835-1.557-19.606ZM381.509 113.954c0-2.989.06-3.925.28-4.407.154-.337.427-.612.607-.612.657 0 .741.605.69 4.961-.047 3.965-.072 4.222-.441 4.597-.352.358-.428.341-.763-.173-.341-.523-.373-.894-.373-4.366Z"/><path fill="#000" fill-opacity=".03" fill-rule="evenodd" d="M370.27 120.778c-.437-3.195-.019-6.898.946-8.377.952-1.46 2.116-.624 2.755 1.98.327 1.331.376 2.008.317 4.332-.09 3.493-.524 5.183-1.491 5.802-1.233.79-2.081-.463-2.527-3.737Zm2.063 1.255c.296-.28.607-3.054.516-4.597-.048-.813-.206-1.912-.352-2.442l-.265-.964-.245.689c-.384 1.082-.454 5.166-.111 6.428.158.577.363.975.457.886Z" clip-rule="evenodd"/><path fill="#000" fill-opacity=".03" d="M334.932 116.922c.079-3.174.158-4.064.383-4.338.375-.457.66-.434.935.074.172.316.203 1.54.128 5.027-.08 3.75-.218 5.532-.739 9.566-1.374 10.628-1.829 17.365-1.667 24.652.127 5.682.379 9.143 1.557 21.347 1.064 11.029 1.227 14.344 1.378 27.928.109 9.783.095 10.601-.189 10.92-.381.427-.967.219-1.086-.385-.05-.249-.175-5.658-.28-12.021-.228-13.913-.304-15.351-1.435-27.131-1.277-13.313-1.487-16.608-1.474-23.203.016-7.571.266-10.892 1.739-23.071.467-3.869.677-6.487.75-9.365ZM349.18 149.896c0-23.177.06-34.561.185-34.92.208-.595.886-.708 1.215-.202.166.254.216 8.424.216 35.099 0 31.24-.029 34.812-.282 35.201-.39.599-.726.542-1.055-.179-.249-.546-.279-4.322-.279-34.999Z"/><path fill="#000" fill-opacity=".03" d="M338.054 132.072c.118-.985.327-2.07.465-2.411.29-.714.573-.777 1.055-.236.333.373.334.454.036 2.835-.168 1.347-.672 4.227-1.119 6.399-.447 2.172-.932 5.003-1.079 6.291-.473 4.158-.295 11.281.383 15.328.358 2.134.945 4.02 1.252 4.02.442 0 1.105-2.538 1.519-5.82.294-2.322.506-8.445.366-10.569l-.127-1.928-.481 1.515c-.264.833-.482 1.831-.482 2.218-.002.386-.099.851-.218 1.032-.319.491-1.004.401-1.199-.157-.355-1.017.395-4.56 1.278-6.039.453-.758 1.184-1.019 1.821-.648.792.462 1.01 1.71 1.01 5.778 0 10.066-1.444 17.097-3.511 17.097-1.569 0-2.852-4.564-3.329-11.844-.387-5.911-.037-10.336 1.363-17.215.431-2.121.88-4.662.997-5.646ZM361.752 141.023c0-1.762.084-3.443.186-3.736.208-.596.885-.708 1.215-.202.146.223.216 1.499.216 3.938 0 3.819-.089 4.27-.838 4.27-.631 0-.779-.809-.779-4.27ZM410.642 182.698c-.312-.479-.312-39.626 0-40.105.386-.591 1.036-.392 1.226.376.108.435.175 8.051.175 19.771 0 16.809-.033 19.136-.28 19.676-.307.674-.787.794-1.121.282Z"/><path fill="#000" fill-opacity=".03" fill-rule="evenodd" d="M397.493 154.715c.284-5.467.817-8.512 1.758-10.042 1.058-1.72 2.392-.58 3.071 2.625.566 2.673.753 4.679.866 9.288.285 11.71-1.661 19.373-3.966 15.612-1.354-2.21-2.12-9.956-1.729-17.483Zm3.967 9.996c.475-4.665.142-13.319-.655-16.999-.435-2.005-.72-1.699-1.216 1.306-1.019 6.168-.818 15.931.43 20.966.37 1.492.978-.734 1.441-5.273Z" clip-rule="evenodd"/><path fill="#000" fill-opacity=".03" d="M361.752 176.713c0-21.901.03-24.541.282-24.928.359-.55.694-.549 1.053.002.255.39.279 2.948.238 25.1l-.046 24.666-.391.398c-.352.359-.428.341-.763-.173-.372-.569-.373-.649-.373-25.065ZM349.18 202.092c0-4.285.071-7.186.185-7.514.208-.595.886-.708 1.215-.202.157.241.216 2.334.216 7.693 0 6.326-.04 7.423-.282 7.795-.39.598-.726.541-1.055-.179-.235-.515-.279-1.721-.279-7.593Z"/><path fill="#F5943E" d="M-1.958-41.261h355.034v205.713H-1.958z" style="mix-blend-mode:multiply"/></g></svg>