<svg xmlns="http://www.w3.org/2000/svg" width="113" height="36" fill="none"><mask id="a" width="113" height="36" x="0" y="0" maskUnits="userSpaceOnUse" style="mask-type:alpha"><path fill="red" d="M0 12C0 5.373 5.373 0 12 0h88.3c6.628 0 12 5.373 12 12v24H0V12Z"/></mask><g mask="url(#a)"><mask id="b" width="352" height="190" x="-233" y="0" maskUnits="userSpaceOnUse" style="mask-type:alpha"><path fill="red" fill-rule="evenodd" d="M-212.55 0c-6.627 0-12 5.373-12 12v23.665c-4.687 1.633-8.05 6.092-8.05 11.335v131c0 6.627 5.373 12 12 12h327c6.627 0 12-5.373 12-12V47c0-4.92-2.96-9.148-7.197-11h1.147V12c0-6.627-5.373-12-12-12h-88.3c-6.627 0-12 5.373-12 12 0-6.627-5.373-12-12-12h-88.3c-6.627 0-12 5.373-12 12 0-6.627-5.373-12-12-12h-88.3Z" clip-rule="evenodd"/></mask><g mask="url(#b)"><path fill="#B4B4B4" d="M121.467-.26h-355.034v215.22h355.034V-.26Z"/><path fill="#AFAFAF" d="m129.319 9.388-35.028-.39-2.451 218.946 35.028.391 2.451-218.947ZM74.03 9.186l-34.93 2.62 16.269 215.876 34.931-2.621L74.03 9.186Z"/><path fill="#9C9C9C" d="M55.117 2.269 15.926-.26 1.229 226.475l39.191 2.529L55.117 2.269Z"/><path fill="#fff" fill-opacity=".08" d="M55.117 2.269 15.926-.26 1.229 226.475l39.191 2.529L55.117 2.269Z"/><path fill="#000" fill-opacity=".03" d="M3.544-10.853v5.351c0 5.804.109 6.766.768 6.766.805 0 .848-.322.848-6.39v-5.727H3.544ZM5.132 125.147l.077-14.326c.083-15.596.098-15.878 1.212-23.344 1.437-9.63 1.703-13.297 1.7-23.412-.003-9.42-.08-10.59-1.449-22.002-1.313-10.945-1.365-11.708-1.488-21.902-.103-8.479-.143-9.363-.428-9.639-.229-.22-.4-.22-.629 0-.287.278-.319 1.082-.367 9.227-.06 10.006-.019 10.682 1.308 22.005 1.461 12.47 1.83 18.306 1.627 25.754-.187 6.846-.586 11.237-1.736 19.128-1.187 8.136-1.255 9.368-1.363 24.736l-.097 13.775h1.633ZM11.626 15.139c0-17.469.031-19.667.282-20.053.37-.566.542-.546.975.119.353.54.36.918.36 19.676 0 11.76-.068 19.397-.175 19.831-.191.768-.841.967-1.226.376-.164-.25-.216-5.057-.216-19.95ZM73.999 125.147v-136h-1.616v136h1.616ZM60.708 125.147v-1.338c0-1.925.479-5.862 1.006-8.268.249-1.138 1.125-4.431 1.947-7.317 2.31-8.112 2.972-12.044 2.972-17.642 0-5.303-.56-8.814-2.814-17.628-.736-2.879-1.618-6.463-1.96-7.964-1.148-5.054-1.151-5.115-1.151-28.8 0-19.43-.057-22.1.709-24.508.183-.574.412-1.133.7-1.9 1.324-3.53 1.557-4.822 1.544-8.58-.012-3.502-.11-4.027-1.761-9.434l-.801-2.62h-4.763l3.122.072 1.178 3.856c1.459 4.775 1.769 6.51 1.627 9.1-.134 2.439-.446 3.795-1.465 6.369-.445 1.124-.991 2.813-1.213 3.754-.403 1.709-.403 1.726-.458 22.92-.037 14.61.008 21.894.147 23.412.337 3.69.845 6.27 2.54 12.912C64.77 83.11 65.018 84.59 65.028 90.72c.009 5.625-.474 8.467-2.881 16.927-2.091 7.351-2.68 10.404-2.963 15.368l-.122 2.132h1.647ZM39.874 125.147v-136h-1.437v136h1.437ZM17.243-10.853V4.076c0 9.075.07 15.272.175 15.7.19.768.84.967 1.226.376.162-.25.215-4.113.215-15.7v-15.305h-1.616ZM25.353-10.853l-.077 14.327c-.083 15.595-.098 15.878-1.212 23.343-1.437 9.632-1.703 13.298-1.7 23.413.003 9.42.08 10.59 1.449 22.001 1.313 10.946 1.365 11.709 1.489 21.902.103 8.479.142 9.364.427 9.639.229.221.4.221.629 0 .287-.278.319-1.081.367-9.226.06-10.006.02-10.683-1.307-22.005-1.462-12.47-1.83-18.306-1.627-25.754.186-6.846.585-11.238 1.736-19.128 1.186-8.136 1.254-9.369 1.362-24.736l.097-13.776h-1.633ZM44.984-10.853c.407.063.433.184.374.417C45.012-9.065 44.014-2.16 43.835.1c-.251 3.156-.263 9.856-.023 12.67.218 2.567.57 5.137 1.268 9.258 1.059 6.255 1.08 6.947 1.08 35.736 0 20.038.051 26.313.215 26.565.33.507 1.008.394 1.216-.202.245-.704.247-48.763.001-53.316-.21-3.902-.486-6.25-1.335-11.366-.909-5.487-1.237-9.801-1.114-14.663.115-4.54.226-5.653 1.146-11.5l.651-4.135h-1.956Z"/><path fill="#000" fill-opacity=".03" d="M51.032-10.853c.32.073.3.228.252.555C50.198-2.934 49.911-.583 49.906.984c-.008 2.434.115 3.238.896 5.864l.656 2.203.107 29.335c.095 25.95.142 29.573.406 31.4.475 3.28.584 9.525.225 12.76-1.139 10.247-.34 17.736 2.33 21.856 4.09 6.31 8.812-3.072 8.131-16.153-.249-4.77-1.295-8.947-2.83-11.302-1.253-1.922-3.05-2.499-3.345-1.074-.155.747.181 1.29 1.006 1.63 1.022.422 1.702 1.455 2.414 3.665 2.01 6.24 1.658 16.132-.75 21.052-1.942 3.969-4.666.898-5.643-6.363-.459-3.407-.43-6.527.105-11.527.575-5.377.575-8.678 0-14.662l-.449-4.662-.005-27.427c-.002-17.89-.069-27.857-.19-28.665-.102-.682-.48-2.231-.84-3.443-.997-3.353-.927-4.8.767-15.775.051-.33.075-.486.557-.549h-2.422ZM86.572-10.853V-.209c0 9.274.037 10.755.275 11.058.21.267.379.276.718.04l.444-.31v-21.432h-1.437ZM32.737 101.049c-.06 15.839-.11 18.825-.332 19.349-.3.705-.585.778-1.042.264-.3-.335-.313-1.401-.241-18.661.084-20.29.102-20.671 1.457-31.526 1.22-9.775 1.542-14.203 1.545-21.249.003-6.794-.247-10.55-1.63-24.474-1.131-11.406-1.672-20.328-1.351-22.288.105-.642.2-.733.697-.66.517.077.589.198.702 1.188.07.606.132 2.279.138 3.718.015 3.201.323 7.295 1.356 18.042 1.409 14.663 1.707 19.017 1.704 24.927-.002 5.566-.571 12.962-1.63 21.209-.464 3.617-.762 5.871-.957 8.134-.366 4.26-.366 8.55-.416 22.027ZM87.956 101.022c.1 5.384.086 5.781-.223 6.128-.945 1.06-1.102.375-1.24-5.413-.152-6.436-.417-9.697-1.622-19.97-1.283-10.938-1.435-13.152-1.423-20.657.014-8.013.31-11.609 1.748-21.21.34-2.271.706-4.936.814-5.921.23-2.11.56-9.652.56-12.843.002-2.604.222-3.168 1.02-2.611l.468.327-.097 6.255c-.105 6.82-.321 9.276-1.482 16.847-1.053 6.868-1.363 10.65-1.468 17.916-.113 7.75.07 10.58 1.387 21.546 1.21 10.072 1.43 12.835 1.558 19.606ZM94.354 92.372c-.08 3.174-.158 4.065-.383 4.339-.376.457-.661.434-.936-.074-.171-.317-.202-1.54-.128-5.027.08-3.75.218-5.533.74-9.567 1.373-10.628 1.829-17.365 1.666-24.652-.126-5.682-.38-9.142-1.556-21.346-1.064-11.03-1.228-14.345-1.38-27.928-.107-9.784-.093-10.602.19-10.92.382-.427.968-.22 1.087.385.049.248.175 5.658.279 12.02.229 13.914.305 15.352 1.435 27.131 1.278 13.313 1.487 16.608 1.474 23.203-.015 7.572-.265 10.892-1.738 23.071-.468 3.87-.677 6.488-.75 9.365ZM80.106 59.399c0 23.177-.06 34.56-.186 34.92-.207.595-.885.708-1.215.202-.165-.254-.215-8.424-.215-35.1 0-31.24.028-34.812.282-35.2.39-.599.725-.542 1.055.179.249.546.279 4.322.279 34.999ZM18.644 26.597c.311.478.311 39.626 0 40.104-.386.591-1.036.392-1.226-.376-.108-.434-.175-8.05-.175-19.77 0-16.809.033-19.137.28-19.676.307-.674.787-.794 1.121-.282Z"/><path fill="#000" fill-opacity=".03" fill-rule="evenodd" d="M31.793 54.58c-.284 5.467-.817 8.511-1.758 10.042-1.059 1.72-2.392.58-3.07-2.625-.567-2.673-.754-4.68-.867-9.288-.285-11.71 1.661-19.374 3.966-15.613 1.354 2.21 2.12 9.957 1.73 17.484Zm-3.967-9.997c-.475 4.666-.142 13.32.655 17 .435 2.005.72 1.699 1.216-1.306 1.018-6.168.818-15.932-.43-20.967-.37-1.492-.978.735-1.44 5.273Z" clip-rule="evenodd"/><path fill="#000" fill-opacity=".03" d="M67.534 32.582c0 21.9-.03 24.54-.283 24.928-.358.55-.693.549-1.053-.002-.254-.39-.278-2.948-.237-25.1l.046-24.667.39-.398c.353-.358.429-.34.764.173.37.57.373.65.373 25.066ZM80.106 7.203c0 4.285-.072 7.186-.186 7.513-.207.596-.885.708-1.215.202-.157-.24-.215-2.333-.215-7.692 0-6.326.039-7.423.282-7.795.39-.599.725-.542 1.055.18.235.514.279 1.72.279 7.592ZM110.61 1.217c-.885.192-.933-.135-.933-6.322v-5.748h1.444l-.097 11.98-.414.09ZM103.932-.443c-.003-8.553.022-9.305.311-9.564.197-.175.287-.263.38-.265.093-.002.188.082.396.253.333.273.347.674.347 9.768 0 8.754-.024 9.503-.314 9.732-.349.275-.783.125-.985-.34-.073-.166-.134-4.48-.135-9.584ZM109.73 13.273c-.101-5.385-.087-5.782.223-6.129.945-1.06 1.102-.375 1.239 5.413.153 6.437.418 9.697 1.622 19.97 1.283 10.939 1.436 13.153 1.423 20.658-.013 8.012-.309 11.608-1.747 21.209-.34 2.272-.707 4.937-.814 5.922-.231 2.11-.561 9.651-.562 12.843-.001 2.604-.22 3.168-1.018 2.611l-.468-.327.097-6.255c.105-6.82.321-9.276 1.482-16.847 1.053-6.868 1.362-10.65 1.468-17.917.113-7.75-.07-10.58-1.388-21.545-1.21-10.072-1.429-12.835-1.557-19.606ZM103.332 21.922c.079-3.174.158-4.064.383-4.338.375-.457.66-.434.935.074.172.316.203 1.54.128 5.027-.08 3.75-.218 5.532-.739 9.566-1.374 10.628-1.829 17.365-1.667 24.652.127 5.682.379 9.143 1.557 21.347 1.064 11.029 1.227 14.344 1.378 27.928.109 9.783.095 10.601-.189 10.92-.381.427-.967.219-1.086-.385-.05-.249-.175-5.658-.28-12.021-.228-13.913-.304-15.351-1.435-27.13-1.277-13.314-1.487-16.609-1.474-23.204.016-7.571.266-10.891 1.739-23.07.467-3.87.677-6.488.75-9.366Z"/><path fill="#000" fill-opacity=".03" d="M106.454 37.072c.118-.985.327-2.07.465-2.41.29-.715.573-.778 1.055-.237.333.373.334.454.036 2.835-.168 1.347-.672 4.227-1.119 6.399-.447 2.172-.932 5.003-1.079 6.291-.473 4.158-.295 11.281.383 15.328.358 2.134.945 4.02 1.252 4.02.442 0 1.105-2.538 1.519-5.82.294-2.322.506-8.446.366-10.569l-.127-1.928-.481 1.515c-.264.834-.482 1.831-.482 2.218-.002.386-.099.85-.218 1.032-.319.49-1.004.4-1.199-.157-.355-1.017.395-4.56 1.278-6.04.453-.757 1.184-1.018 1.821-.647.792.462 1.01 1.71 1.01 5.778 0 10.066-1.444 17.097-3.511 17.097-1.569 0-2.852-4.564-3.329-11.844-.387-5.91-.037-10.336 1.363-17.215.431-2.12.88-4.662.997-5.646Z"/><path fill="#F5943E" d="M121.476-.26h-355.034v205.712h355.034V-.261Z" style="mix-blend-mode:multiply"/></g></g></svg>