<svg width="637" height="637" viewBox="0 0 637 637" fill="none" xmlns="http://www.w3.org/2000/svg">
<g filter="url(#filter0_f_656_21094)">
<path fill-rule="evenodd" clip-rule="evenodd" d="M215.633 32.498L262.277 20L316.078 313.267C317.184 311.913 318.868 311.048 320.754 311.048C321.009 311.048 321.259 311.064 321.506 311.094L374.723 21.0061L421.367 33.5041L322.429 311.283C323.485 311.588 324.422 312.173 325.154 312.952L515.948 88.7344L550.093 122.88L325.786 313.749C326.249 314.446 326.571 315.244 326.711 316.104L604.502 217.162L617 263.806L326.79 317.046C326.79 317.058 326.79 317.071 326.79 317.084C326.79 317.84 326.651 318.564 326.397 319.231L617 372.544L604.502 419.187L326.037 320.005C325.688 320.636 325.229 321.197 324.686 321.664L550.093 513.469L515.948 547.615L324.073 322.127C323.373 322.588 322.572 322.908 321.71 323.045L421.367 602.845L374.723 615.343L321.112 323.11C320.994 323.117 320.874 323.12 320.754 323.12C319.048 323.12 317.507 322.412 316.409 321.274L262.277 616.349L215.633 603.851L316.315 321.174C316.011 320.844 315.743 320.48 315.518 320.088L121.052 548.621L86.9069 514.475L315.462 319.99C315.374 319.83 315.293 319.665 315.219 319.495L32.498 420.193L20 373.549L315.177 319.398C314.881 318.685 314.718 317.904 314.718 317.084C314.718 317.011 314.719 316.939 314.722 316.867L20 262.8L32.498 216.156L314.731 316.68C314.75 316.392 314.789 316.111 314.847 315.835L86.9069 121.874L121.052 87.7285L314.914 315.552C315.093 314.869 315.388 314.233 315.778 313.667L215.633 32.498Z" fill="#6599FF"/>
</g>
<defs>
<filter id="filter0_f_656_21094" x="0" y="0" width="637" height="636.349" filterUnits="userSpaceOnUse" color-interpolation-filters="sRGB">
<feFlood flood-opacity="0" result="BackgroundImageFix"/>
<feBlend mode="normal" in="SourceGraphic" in2="BackgroundImageFix" result="shape"/>
<feGaussianBlur stdDeviation="10" result="effect1_foregroundBlur_656_21094"/>
</filter>
</defs>
</svg>
