<svg width="24" height="25" viewBox="0 0 24 25" fill="none" xmlns="http://www.w3.org/2000/svg">
<path d="M7.07932 6.60759C7.07932 5.04465 8.34633 3.77763 9.90927 3.77763H18.1419C19.7048 3.77763 20.9718 5.04465 20.9718 6.60759V19.7283C20.9718 21.2912 19.7048 22.5582 18.1419 22.5582H9.90927C8.34633 22.5582 7.07932 21.2912 7.07932 19.7283V6.60759Z" fill="url(#paint0_linear_8494_23370)"/>
<path d="M7.07932 6.60759C7.07932 5.04465 8.34633 3.77763 9.90927 3.77763H18.1419C19.7048 3.77763 20.9718 5.04465 20.9718 6.60759V19.7283C20.9718 21.2912 19.7048 22.5582 18.1419 22.5582H9.90927C8.34633 22.5582 7.07932 21.2912 7.07932 19.7283V6.60759Z" fill="black" fill-opacity="0.05"/>
<path d="M2.89353 8.40767C2.43708 6.91286 3.27883 5.33106 4.77364 4.87461L12.6473 2.47032C14.1421 2.01387 15.7239 2.85562 16.1804 4.35042L20.0122 16.8991C20.4687 18.3939 19.6269 19.9757 18.1321 20.4322L10.2584 22.8365C8.76363 23.2929 7.18183 22.4512 6.72538 20.9564L2.89353 8.40767Z" fill="url(#paint1_linear_8494_23370)"/>
<path fill-rule="evenodd" clip-rule="evenodd" d="M11.1694 22.5582L10.2583 22.8365C10.1422 22.8719 10.0257 22.8995 9.90913 22.9196C8.52466 23.1583 7.14625 22.3351 6.72524 20.9564L2.89339 8.40765C2.43694 6.91285 3.27869 5.33104 4.7735 4.87459L12.6472 2.4703C13.5107 2.20662 14.4032 2.37615 15.0911 2.85454C15.4318 3.09149 15.7223 3.40422 15.9342 3.77761H18.1417C19.7047 3.77761 20.9717 5.04463 20.9717 6.60757V19.7283C20.9717 21.2912 19.7047 22.5582 18.1417 22.5582H11.1694ZM16.4232 2.85454C15.4932 1.67405 13.9013 1.12218 12.3776 1.58746L4.50392 3.99176C2.52154 4.59709 1.40522 6.69485 2.01056 8.67723L5.8424 21.2259C6.44774 23.2083 8.54549 24.3246 10.5279 23.7193L11.3072 23.4813H18.1417C20.2145 23.4813 21.8948 21.801 21.8948 19.7283V6.60757C21.8948 4.53483 20.2145 2.85454 18.1417 2.85454H16.4232Z" fill="black"/>
<defs>
<linearGradient id="paint0_linear_8494_23370" x1="11.8706" y1="2.34619" x2="11.8706" y2="22.9606" gradientUnits="userSpaceOnUse">
<stop stop-color="#F2F5FF"/>
<stop offset="1" stop-color="#BFCBF5"/>
</linearGradient>
<linearGradient id="paint1_linear_8494_23370" x1="8.71049" y1="3.67249" x2="14.1953" y2="21.6344" gradientUnits="userSpaceOnUse">
<stop stop-color="white"/>
<stop offset="1" stop-color="#EBEFFF"/>
</linearGradient>
</defs>
</svg>
