<svg width="30" height="31" viewBox="0 0 30 31" fill="none" xmlns="http://www.w3.org/2000/svg">
<g filter="url(#filter0_b_9867_5810)">
<g opacity="0.4" filter="url(#filter1_dii_9867_5810)">
<path d="M12.813 2.01414C13.8885 0.185759 16.5326 0.185756 17.608 2.01414L20.4837 6.9031C20.8754 7.56906 21.5265 8.04209 22.2809 8.20884L27.8192 9.43299C29.8904 9.8908 30.7075 12.4055 29.3009 13.9933L25.5399 18.239C25.0276 18.8173 24.7789 19.5827 24.8534 20.3517L25.4006 25.9973C25.6053 28.1086 23.4661 29.6628 21.5214 28.8157L16.3212 26.5507C15.6129 26.2422 14.8081 26.2422 14.0998 26.5507L8.89968 28.8157C6.95492 29.6627 4.8158 28.1086 5.02044 25.9973L5.56763 20.3517C5.64217 19.5827 5.39349 18.8173 4.88117 18.239L1.12012 13.9933C-0.286447 12.4055 0.530625 9.8908 2.60185 9.43299L8.14017 8.20884C8.89458 8.04209 9.54564 7.56906 9.93735 6.90311L12.813 2.01414Z" fill="#FFDE33"/>
<path d="M12.813 2.01414C13.8885 0.185759 16.5326 0.185756 17.608 2.01414L20.4837 6.9031C20.8754 7.56906 21.5265 8.04209 22.2809 8.20884L27.8192 9.43299C29.8904 9.8908 30.7075 12.4055 29.3009 13.9933L25.5399 18.239C25.0276 18.8173 24.7789 19.5827 24.8534 20.3517L25.4006 25.9973C25.6053 28.1086 23.4661 29.6628 21.5214 28.8157L16.3212 26.5507C15.6129 26.2422 14.8081 26.2422 14.0998 26.5507L8.89968 28.8157C6.95492 29.6627 4.8158 28.1086 5.02044 25.9973L5.56763 20.3517C5.64217 19.5827 5.39349 18.8173 4.88117 18.239L1.12012 13.9933C-0.286447 12.4055 0.530625 9.8908 2.60185 9.43299L8.14017 8.20884C8.89458 8.04209 9.54564 7.56906 9.93735 6.90311L12.813 2.01414Z" fill="url(#paint0_radial_9867_5810)" fill-opacity="0.7" style="mix-blend-mode:soft-light"/>
</g>
</g>
<defs>
<filter id="filter0_b_9867_5810" x="-9.05096" y="-8.82657" width="48.5231" height="47.3471" filterUnits="userSpaceOnUse" color-interpolation-filters="sRGB">
<feFlood flood-opacity="0" result="BackgroundImageFix"/>
<feGaussianBlur in="BackgroundImageFix" stdDeviation="4.73471"/>
<feComposite in2="SourceAlpha" operator="in" result="effect1_backgroundBlur_9867_5810"/>
<feBlend mode="normal" in="SourceGraphic" in2="effect1_backgroundBlur_9867_5810" result="shape"/>
</filter>
<filter id="filter1_dii_9867_5810" x="0.418457" y="0.642853" width="29.5842" height="30.3021" filterUnits="userSpaceOnUse" color-interpolation-filters="sRGB">
<feFlood flood-opacity="0" result="BackgroundImageFix"/>
<feColorMatrix in="SourceAlpha" type="matrix" values="0 0 0 0 0 0 0 0 0 0 0 0 0 0 0 0 0 0 127 0" result="hardAlpha"/>
<feOffset dy="1.89388"/>
<feComposite in2="hardAlpha" operator="out"/>
<feColorMatrix type="matrix" values="0 0 0 0 0 0 0 0 0 0 0 0 0 0 0 0 0 0 0.25 0"/>
<feBlend mode="normal" in2="BackgroundImageFix" result="effect1_dropShadow_9867_5810"/>
<feBlend mode="normal" in="SourceGraphic" in2="effect1_dropShadow_9867_5810" result="shape"/>
<feColorMatrix in="SourceAlpha" type="matrix" values="0 0 0 0 0 0 0 0 0 0 0 0 0 0 0 0 0 0 127 0" result="hardAlpha"/>
<feOffset dy="3.78777"/>
<feComposite in2="hardAlpha" operator="arithmetic" k2="-1" k3="1"/>
<feColorMatrix type="matrix" values="0 0 0 0 1 0 0 0 0 1 0 0 0 0 1 0 0 0 0.3 0"/>
<feBlend mode="normal" in2="shape" result="effect2_innerShadow_9867_5810"/>
<feColorMatrix in="SourceAlpha" type="matrix" values="0 0 0 0 0 0 0 0 0 0 0 0 0 0 0 0 0 0 127 0" result="hardAlpha"/>
<feOffset dy="-1.89388"/>
<feComposite in2="hardAlpha" operator="arithmetic" k2="-1" k3="1"/>
<feColorMatrix type="matrix" values="0 0 0 0 0.845117 0 0 0 0 0.71814 0 0 0 0 0.0601651 0 0 0 1 0"/>
<feBlend mode="normal" in2="effect2_innerShadow_9867_5810" result="effect3_innerShadow_9867_5810"/>
</filter>
<radialGradient id="paint0_radial_9867_5810" cx="0" cy="0" r="1" gradientUnits="userSpaceOnUse" gradientTransform="translate(22.1604 5.87099) rotate(112.432) scale(16.0824 19.8851)">
<stop stop-color="white"/>
<stop offset="1" stop-color="white" stop-opacity="0"/>
</radialGradient>
</defs>
</svg>
