<svg width="30" height="31" viewBox="0 0 30 31" fill="none" xmlns="http://www.w3.org/2000/svg">
<g filter="url(#filter0_b_9867_5792)">
<g filter="url(#filter1_dii_9867_5792)">
<path d="M12.813 1.44273C13.8885 -0.385653 16.5326 -0.385655 17.608 1.44273L20.4837 6.33169C20.8754 6.99765 21.5265 7.47068 22.2809 7.63743L27.8192 8.86158C29.8904 9.31939 30.7075 11.8341 29.3009 13.4219L25.5399 17.6676C25.0276 18.2459 24.7789 19.0113 24.8534 19.7803L25.4006 25.4258C25.6053 27.5372 23.4661 29.0913 21.5214 28.2443L16.3212 25.9793C15.6129 25.6708 14.8081 25.6708 14.0998 25.9793L8.89968 28.2443C6.95492 29.0913 4.8158 27.5372 5.02044 25.4258L5.56763 19.7803C5.64217 19.0113 5.39349 18.2459 4.88117 17.6676L1.12012 13.4219C-0.286447 11.8341 0.530625 9.31939 2.60185 8.86158L8.14017 7.63743C8.89458 7.47068 9.54564 6.99765 9.93735 6.33169L12.813 1.44273Z" fill="#FFDE33"/>
<path d="M12.813 1.44273C13.8885 -0.385653 16.5326 -0.385655 17.608 1.44273L20.4837 6.33169C20.8754 6.99765 21.5265 7.47068 22.2809 7.63743L27.8192 8.86158C29.8904 9.31939 30.7075 11.8341 29.3009 13.4219L25.5399 17.6676C25.0276 18.2459 24.7789 19.0113 24.8534 19.7803L25.4006 25.4258C25.6053 27.5372 23.4661 29.0913 21.5214 28.2443L16.3212 25.9793C15.6129 25.6708 14.8081 25.6708 14.0998 25.9793L8.89968 28.2443C6.95492 29.0913 4.8158 27.5372 5.02044 25.4258L5.56763 19.7803C5.64217 19.0113 5.39349 18.2459 4.88117 17.6676L1.12012 13.4219C-0.286447 11.8341 0.530625 9.31939 2.60185 8.86158L8.14017 7.63743C8.89458 7.47068 9.54564 6.99765 9.93735 6.33169L12.813 1.44273Z" fill="url(#paint0_radial_9867_5792)" fill-opacity="0.7" style="mix-blend-mode:soft-light"/>
</g>
</g>
<defs>
<filter id="filter0_b_9867_5792" x="-9.05096" y="-9.39798" width="48.5231" height="47.3471" filterUnits="userSpaceOnUse" color-interpolation-filters="sRGB">
<feFlood flood-opacity="0" result="BackgroundImageFix"/>
<feGaussianBlur in="BackgroundImageFix" stdDeviation="4.73471"/>
<feComposite in2="SourceAlpha" operator="in" result="effect1_backgroundBlur_9867_5792"/>
<feBlend mode="normal" in="SourceGraphic" in2="effect1_backgroundBlur_9867_5792" result="shape"/>
</filter>
<filter id="filter1_dii_9867_5792" x="0.418457" y="0.0714417" width="29.5842" height="30.3021" filterUnits="userSpaceOnUse" color-interpolation-filters="sRGB">
<feFlood flood-opacity="0" result="BackgroundImageFix"/>
<feColorMatrix in="SourceAlpha" type="matrix" values="0 0 0 0 0 0 0 0 0 0 0 0 0 0 0 0 0 0 127 0" result="hardAlpha"/>
<feOffset dy="1.89388"/>
<feComposite in2="hardAlpha" operator="out"/>
<feColorMatrix type="matrix" values="0 0 0 0 0 0 0 0 0 0 0 0 0 0 0 0 0 0 0.25 0"/>
<feBlend mode="normal" in2="BackgroundImageFix" result="effect1_dropShadow_9867_5792"/>
<feBlend mode="normal" in="SourceGraphic" in2="effect1_dropShadow_9867_5792" result="shape"/>
<feColorMatrix in="SourceAlpha" type="matrix" values="0 0 0 0 0 0 0 0 0 0 0 0 0 0 0 0 0 0 127 0" result="hardAlpha"/>
<feOffset dy="3.78777"/>
<feComposite in2="hardAlpha" operator="arithmetic" k2="-1" k3="1"/>
<feColorMatrix type="matrix" values="0 0 0 0 1 0 0 0 0 1 0 0 0 0 1 0 0 0 0.3 0"/>
<feBlend mode="normal" in2="shape" result="effect2_innerShadow_9867_5792"/>
<feColorMatrix in="SourceAlpha" type="matrix" values="0 0 0 0 0 0 0 0 0 0 0 0 0 0 0 0 0 0 127 0" result="hardAlpha"/>
<feOffset dy="-1.89388"/>
<feComposite in2="hardAlpha" operator="arithmetic" k2="-1" k3="1"/>
<feColorMatrix type="matrix" values="0 0 0 0 0.845117 0 0 0 0 0.71814 0 0 0 0 0.0601651 0 0 0 1 0"/>
<feBlend mode="normal" in2="effect2_innerShadow_9867_5792" result="effect3_innerShadow_9867_5792"/>
</filter>
<radialGradient id="paint0_radial_9867_5792" cx="0" cy="0" r="1" gradientUnits="userSpaceOnUse" gradientTransform="translate(22.1604 5.29958) rotate(112.432) scale(16.0824 19.8851)">
<stop stop-color="white"/>
<stop offset="1" stop-color="white" stop-opacity="0"/>
</radialGradient>
</defs>
</svg>
