<svg width="20" height="18" viewBox="0 0 20 18" fill="none" xmlns="http://www.w3.org/2000/svg">
<path d="M12.5676 11.8955L12.5744 11.8981L12.5812 11.9006C13.1623 12.1092 13.8733 11.8787 14.1439 11.2833C14.4299 10.6541 14.0647 9.99688 13.4686 9.77769L10.8544 8.73647V5.74538C10.8544 5.06377 10.2523 4.60623 9.63386 4.60623C9.01543 4.60623 8.41334 5.06377 8.41334 5.74538V9.50662C8.41334 10.0031 8.74772 10.4059 9.1869 10.5669L12.5676 11.8955ZM19.276 9.00004C19.276 4.36364 15.0661 0.700513 10 0.700513C4.9325 0.700513 0.724073 4.36369 0.724073 9.00004C0.724073 13.6364 4.9325 17.2996 10 17.2996C15.0661 17.2996 19.276 13.6364 19.276 9.00004ZM3.16511 9.00004C3.16511 5.7269 6.16935 2.97881 10 2.97881C13.8298 2.97881 16.8349 5.72736 16.8349 9.00004C16.8349 12.2727 13.8298 15.0213 10 15.0213C6.16935 15.0213 3.16511 12.2732 3.16511 9.00004Z" fill="white" stroke="black" stroke-width="0.976415"/>
</svg>
