<svg width="80" height="110" viewBox="0 0 80 110" fill="none" xmlns="http://www.w3.org/2000/svg">
<path d="M0 72.7739V97.3077C0 104.317 5.65533 110 12.6315 110H30.4869C31.4398 110 32.2604 109.328 32.4478 108.393L42.446 58.548C42.7554 57.0057 41.2454 55.7264 39.7749 56.285L1.28978 70.9043C0.513341 71.1992 0 71.9434 0 72.7739Z" fill="black" fill-opacity="0.5"/>
<path d="M0 12.6923V68.75L40.6804 52.9105C41.5214 52.583 42.0389 51.7329 41.9435 50.8354L36.7306 1.78862C36.6225 0.771605 35.7645 0 34.7418 0H12.6315C5.65533 0 0 5.68254 0 12.6923Z" fill="black" fill-opacity="0.5"/>
<path d="M77.727 56.8243C78.9286 56.9897 79.9997 56.0559 79.9997 54.8429V15.8092L79.3977 8.9743C79.3845 8.82374 79.3547 8.67467 79.3054 8.53179C77.5919 3.56547 72.9159 0 67.39 0H41.9225C40.7343 0 39.8081 1.02983 39.9337 2.21138L45.0978 50.7993C45.195 51.7136 45.9031 52.4438 46.8139 52.5692L77.727 56.8243Z" fill="black"/>
<path d="M78.2727 59.4714C79.2626 59.6076 80 60.4535 80 61.4527V97.3077C80 104.317 74.3447 110 67.3685 110H38.3176C37.0718 110 36.1291 108.873 36.349 107.647L45.4497 56.8903C45.639 55.8341 46.628 55.1156 47.691 55.2619L78.2727 59.4714Z" fill="black"/>
</svg>
