<svg width="80" height="110" viewBox="0 0 80 110" fill="none" xmlns="http://www.w3.org/2000/svg">
<path fill-rule="evenodd" clip-rule="evenodd" d="M79.3778 8.74773L79.9997 15.8092V57.1371L46.8139 52.5692C45.9031 52.4438 45.195 51.7136 45.0978 50.7993L39.6987 0H67.3682C72.9739 0 77.7267 3.66915 79.3778 8.74773ZM77.8179 54.6344V15.9052L77.2272 9.19816C75.7929 5.10338 71.913 2.18182 67.3682 2.18182H42.1247L44.6885 26.3045L47.2524 50.4272L77.8179 54.6344Z" fill="url(#paint0_linear_1060_6669)" fill-opacity="0.5"/>
<path fill-rule="evenodd" clip-rule="evenodd" d="M41.9435 50.8354C42.0389 51.7329 41.5214 52.583 40.6804 52.9105L0 68.75V12.6923C0 5.68254 5.65533 0 12.6315 0H36.5405L41.9435 50.8354ZM34.5783 2.18182H12.6315C6.87018 2.18182 2.18182 6.87764 2.18182 12.6923V65.5591L39.7592 50.9278L34.5783 2.18182Z" fill="url(#paint1_linear_1060_6669)" fill-opacity="0.5"/>
<path fill-rule="evenodd" clip-rule="evenodd" d="M0 97.3077V71.3942L39.7749 56.285C41.2454 55.7264 42.7554 57.0057 42.446 58.548L32.1255 110H12.6315C5.65533 110 0 104.317 0 97.3077ZM2.18182 72.8994V97.3077C2.18182 103.122 6.87018 107.818 12.6315 107.818H30.3379L40.2421 58.4415L2.18182 72.8994Z" fill="url(#paint2_linear_1060_6669)" fill-opacity="0.5"/>
<path fill-rule="evenodd" clip-rule="evenodd" d="M67.3685 110C74.3447 110 80 104.317 80 97.3077V59.7091L47.691 55.2619C46.628 55.1156 45.639 55.8341 45.4497 56.8903L35.9271 110H67.3685ZM77.8182 61.6112L47.5664 57.4472L38.5349 107.818H67.3685C73.1298 107.818 77.8182 103.122 77.8182 97.3077V61.6112Z" fill="url(#paint3_linear_1060_6669)" fill-opacity="0.5"/>
<defs>
<linearGradient id="paint0_linear_1060_6669" x1="4.66667" y1="4.13978" x2="64.1374" y2="116.29" gradientUnits="userSpaceOnUse">
<stop stop-color="white"/>
<stop offset="1" stop-color="white" stop-opacity="0.58"/>
</linearGradient>
<linearGradient id="paint1_linear_1060_6669" x1="4.66667" y1="4.13978" x2="64.1374" y2="116.29" gradientUnits="userSpaceOnUse">
<stop stop-color="white"/>
<stop offset="1" stop-color="white" stop-opacity="0.58"/>
</linearGradient>
<linearGradient id="paint2_linear_1060_6669" x1="4.66667" y1="4.13978" x2="64.1374" y2="116.29" gradientUnits="userSpaceOnUse">
<stop stop-color="white"/>
<stop offset="1" stop-color="white" stop-opacity="0.58"/>
</linearGradient>
<linearGradient id="paint3_linear_1060_6669" x1="4.66667" y1="4.13978" x2="64.1374" y2="116.29" gradientUnits="userSpaceOnUse">
<stop stop-color="white"/>
<stop offset="1" stop-color="white" stop-opacity="0.58"/>
</linearGradient>
</defs>
</svg>
