<svg xmlns="http://www.w3.org/2000/svg" viewBox="0 0 44.22 61.51">
  <defs>
    <style>.cls-1,.cls-2{fill-rule:evenodd;}.cls-1{opacity:0.6;}.cls-2,.cls-3{fill:#fff;}</style>
  </defs>
  <g>
      <path class="cls-1"
        d="M18.06,2.87a.58.58,0,0,0-.21-1.12H7.73a7,7,0,0,0-7,7v.08a.58.58,0,0,0,.79.54ZM1.54,54.67a.58.58,0,0,0-.79.54v.07a7,7,0,0,0,7,7H17.85a.58.58,0,0,0,.21-1.12ZM27.8,61.14A.58.58,0,0,0,28,62.26H38a7,7,0,0,0,7-7v0a.58.58,0,0,0-.79-.54ZM44.6,12a.6.6,0,0,1,.37.54v39a.6.6,0,0,1-.37.55l-21.46,8.4a.51.51,0,0,1-.42,0L1.2,52a.58.58,0,0,1-.37-.54v-39A.6.6,0,0,1,1.2,12L22.72,3.55a.61.61,0,0,1,.42,0ZM44.18,9.3A.58.58,0,0,0,45,8.75v0a7,7,0,0,0-7-7H28a.58.58,0,0,0-.22,1.12Z"
        transform="translate(-0.75 -0.75)" />
      <path class="cls-2"
        d="M28.9,60.51l15.32-6a6.25,6.25,0,0,1-6.23,6Zm-21.17,0A6.24,6.24,0,0,1,1.5,54.45L17,60.51ZM1.58,50.38V11.64L22.93,3.27l21.29,8.35V50.4L22.93,58.74ZM1.5,7.56A6.26,6.26,0,0,1,7.73,1.5H17ZM28.9,1.5H38a6.24,6.24,0,0,1,6.23,6ZM23,3.25Z"
        transform="translate(-0.75 -0.75)" />
      <path class="cls-3"
        d="M38,2.25a5.5,5.5,0,0,1,5.3,4.09L32.86,2.25H38m-25,0L2.41,6.4A5.5,5.5,0,0,1,7.73,2.25H13M23.26,4h0m-.33.13,20.54,8.05V49.89l-20.54,8L2.33,49.87V12.15l20.6-8.07m21.79,51h0m-42.3.5L13,59.76H7.73a5.48,5.48,0,0,1-5.31-4.14m40.87.06A5.48,5.48,0,0,1,38,59.76H32.87l10.42-4.08M38,.75H28a.58.58,0,0,0-.22,1.12L44.18,8.3a.78.78,0,0,0,.21,0A.58.58,0,0,0,45,7.75v0a7,7,0,0,0-7-7ZM17.85.75H7.73a7,7,0,0,0-7,7v.08a.58.58,0,0,0,.58.58.52.52,0,0,0,.21,0L18.06,1.87A.58.58,0,0,0,17.85.75Zm5.08,1.76a.49.49,0,0,0-.21,0L1.2,11a.6.6,0,0,0-.37.55v39A.58.58,0,0,0,1.2,51l21.52,8.43a.49.49,0,0,0,.21,0,.52.52,0,0,0,.21,0l21.46-8.4a.6.6,0,0,0,.37-.55v-39A.6.6,0,0,0,44.6,11L23.14,2.55a.52.52,0,0,0-.21,0ZM1.33,53.63a.58.58,0,0,0-.58.58v.07a7,7,0,0,0,7,7H17.85a.58.58,0,0,0,.21-1.12L1.54,53.67a.52.52,0,0,0-.21,0Zm43.06,0a.52.52,0,0,0-.21,0L27.8,60.14A.58.58,0,0,0,28,61.26H38a7,7,0,0,0,7-7v0a.58.58,0,0,0-.58-.58Z"
        transform="translate(-0.75 -0.75)" />
  </g>
</svg>