<svg width="101" height="90" viewBox="0 0 101 90" fill="none" xmlns="http://www.w3.org/2000/svg">
<g filter="url(#filter0_dii_6063_100797)">
<path d="M57.4224 80.0056L55.1185 83.898C53.065 87.3673 47.9352 87.3673 45.8817 83.898L43.5778 80.0056C41.7907 76.9865 40.8972 75.4769 39.462 74.6421C38.0268 73.8074 36.2198 73.7763 32.6058 73.714C27.2705 73.622 17.0586 73.2951 14.2523 72.1327C9.04544 69.976 4.9086 65.8391 2.75184 60.6323C1.13428 56.7271 1.13428 51.7765 1.13428 41.8752V37.6252C1.13428 23.713 1.13428 16.7569 4.26569 11.6469C6.01788 8.78763 8.42191 6.3836 11.2812 4.63141C16.3912 1.5 23.3473 1.5 44.1251 1.5H56.8752C70.7873 1.5 84.6091 1.5 89.7191 4.63141C92.5784 6.3836 94.9825 8.78763 96.7346 11.6469C99.8661 16.7569 99.8661 23.713 99.8661 37.6252V41.8752C99.8661 51.7765 99.8661 56.7271 98.2485 60.6323C96.0917 65.8391 91.9549 69.976 86.748 72.1327C83.9417 73.2952 73.7297 73.622 68.3944 73.714C64.7804 73.7763 62.9734 73.8074 61.5382 74.6421C60.103 75.4769 59.2094 76.9865 57.4224 80.0056Z" fill="white"/>
<path d="M55.1185 83.898L54.6436 83.617L55.1185 83.898ZM57.4224 80.0056L57.8972 80.2867L57.4224 80.0056ZM43.5778 80.0056L43.1029 80.2867L43.5778 80.0056ZM45.8817 83.898L46.3565 83.617L45.8817 83.898ZM2.75184 60.6323L3.26161 60.4211L2.75184 60.6323ZM32.6058 73.714L32.5963 74.2657L32.6058 73.714ZM14.2523 72.1327L14.0412 72.6425H14.0412L14.2523 72.1327ZM98.2485 60.6323L98.7583 60.8434L98.2485 60.6323ZM68.3944 73.714L68.3848 73.1623L68.3944 73.714ZM86.748 72.1327L86.9592 72.6425L86.748 72.1327ZM89.7191 4.63141L89.4308 5.10187L89.7191 4.63141ZM96.7346 11.6469L97.2051 11.3587V11.3587L96.7346 11.6469ZM11.2812 4.63141L11.5695 5.10187L11.2812 4.63141ZM4.26569 11.6469L3.79523 11.3587L4.26569 11.6469ZM39.462 74.6421L39.7394 74.1652H39.7394L39.462 74.6421ZM55.5933 84.1791L57.8972 80.2867L56.9476 79.7246L54.6436 83.617L55.5933 84.1791ZM43.1029 80.2867L45.4069 84.1791L46.3565 83.617L44.0526 79.7246L43.1029 80.2867ZM54.6436 83.617C52.8038 86.7253 48.1963 86.7253 46.3565 83.617L45.4069 84.1791C47.674 88.0093 53.3262 88.0093 55.5933 84.1791L54.6436 83.617ZM44.1251 2.05177H56.8752V0.948234H44.1251V2.05177ZM99.3143 37.6252V41.8752H100.418V37.6252H99.3143ZM1.68604 41.8752V37.6252H0.582511V41.8752H1.68604ZM0.582511 41.8752C0.582511 46.8183 0.582212 50.5532 0.785987 53.5398C0.9901 56.5314 1.40081 58.8124 2.24208 60.8434L3.26161 60.4211C2.48532 58.547 2.08724 56.4001 1.88696 53.4647C1.68634 50.5244 1.68604 46.8334 1.68604 41.8752H0.582511ZM32.6153 73.1623C29.9511 73.1164 26.0748 73.0119 22.5175 72.7742C20.7383 72.6554 19.0459 72.5037 17.6282 72.3106C16.1942 72.1152 15.0929 71.8837 14.4635 71.623L14.0412 72.6425C14.8148 72.963 16.0424 73.2082 17.4792 73.404C18.9321 73.6019 20.6524 73.7557 22.4439 73.8753C26.0279 74.1147 29.9252 74.2196 32.5963 74.2657L32.6153 73.1623ZM2.24208 60.8434C4.45484 66.1855 8.69909 70.4297 14.0412 72.6425L14.4635 71.623C9.39179 69.5222 5.36236 65.4928 3.26161 60.4211L2.24208 60.8434ZM99.3143 41.8752C99.3143 46.8334 99.314 50.5244 99.1134 53.4647C98.9131 56.4001 98.515 58.547 97.7387 60.4211L98.7583 60.8434C99.5995 58.8124 100.01 56.5314 100.214 53.5398C100.418 50.5532 100.418 46.8183 100.418 41.8752H99.3143ZM68.4039 74.2657C71.075 74.2196 74.9723 74.1147 78.5564 73.8753C80.3479 73.7557 82.0682 73.6019 83.5211 73.404C84.9579 73.2083 86.1855 72.963 86.9592 72.6425L86.5369 71.623C85.9074 71.8837 84.8061 72.1152 83.3722 72.3106C81.9544 72.5037 80.262 72.6554 78.4828 72.7743C74.9255 73.0119 71.0491 73.1164 68.3848 73.1623L68.4039 74.2657ZM97.7387 60.4211C95.638 65.4928 91.6085 69.5222 86.5369 71.623L86.9592 72.6425C92.3012 70.4297 96.5455 66.1855 98.7583 60.8434L97.7387 60.4211ZM56.8752 2.05177C63.8367 2.05177 70.75 2.05202 76.561 2.44195C79.4657 2.63687 82.0815 2.92839 84.2811 3.36239C86.4893 3.79811 88.236 4.3697 89.4308 5.10187L90.0074 4.16095C88.6472 3.32741 86.7499 2.72472 84.4947 2.27973C82.2307 1.83303 79.5634 1.53741 76.6349 1.3409C70.7794 0.94798 63.8259 0.948234 56.8752 0.948234V2.05177ZM100.418 37.6252C100.418 30.6798 100.418 25.432 100.024 21.283C99.6287 17.1258 98.8329 14.0149 97.2051 11.3587L96.2642 11.9352C97.7678 14.389 98.5378 17.3111 98.9253 21.3875C99.3137 25.4721 99.3143 30.6584 99.3143 37.6252H100.418ZM89.4308 5.10187C92.2159 6.80856 94.5575 9.15017 96.2642 11.9352L97.2051 11.3587C95.4074 8.42509 92.941 5.95864 90.0074 4.16095L89.4308 5.10187ZM44.1251 0.948234C33.7471 0.948234 26.7866 0.947799 21.7845 1.34136C16.7736 1.73561 13.656 2.529 10.9929 4.16095L11.5695 5.10187C14.0164 3.60241 16.9319 2.83009 21.871 2.44149C26.8189 2.0522 33.7253 2.05177 44.1251 2.05177V0.948234ZM1.68604 37.6252C1.68604 30.6584 1.68663 25.4721 2.07499 21.3875C2.46258 17.3111 3.2325 14.389 4.73615 11.9352L3.79523 11.3587C2.16747 14.0149 1.37168 17.1258 0.976415 21.283C0.581929 25.432 0.582511 30.6798 0.582511 37.6252H1.68604ZM10.9929 4.16095C8.05937 5.95864 5.59292 8.42509 3.79523 11.3587L4.73615 11.9352C6.44284 9.15017 8.78445 6.80856 11.5695 5.10187L10.9929 4.16095ZM44.0526 79.7246C43.1644 78.2239 42.4791 77.0651 41.8338 76.1797C41.1818 75.2851 40.5463 74.6345 39.7394 74.1652L39.1846 75.1191C39.8128 75.4845 40.3418 76.0061 40.942 76.8297C41.5491 77.6626 42.2041 78.7681 43.1029 80.2867L44.0526 79.7246ZM32.5963 74.2657C34.4135 74.297 35.7388 74.3204 36.7902 74.4368C37.8314 74.5521 38.5581 74.7547 39.1846 75.1191L39.7394 74.1652C38.9306 73.6948 38.0363 73.4645 36.9117 73.34C35.7973 73.2166 34.4121 73.1933 32.6153 73.1623L32.5963 74.2657ZM57.8972 80.2867C58.796 78.7681 59.4511 77.6626 60.0581 76.8297C60.6584 76.0061 61.1873 75.4845 61.8156 75.1191L61.2608 74.1652C60.4538 74.6345 59.8184 75.2851 59.1663 76.1797C58.521 77.0651 57.8358 78.2239 56.9476 79.7246L57.8972 80.2867ZM68.3848 73.1623C66.5881 73.1933 65.2029 73.2166 64.0885 73.34C62.9639 73.4645 62.0695 73.6948 61.2608 74.1652L61.8156 75.1191C62.442 74.7547 63.1688 74.5521 64.21 74.4368C65.2614 74.3204 66.5866 74.297 68.4039 74.2657L68.3848 73.1623Z" fill="black"/>
</g>
<defs>
<filter id="filter0_dii_6063_100797" x="0.58252" y="0.948234" width="99.8353" height="88.1035" filterUnits="userSpaceOnUse" color-interpolation-filters="sRGB">
<feFlood flood-opacity="0" result="BackgroundImageFix"/>
<feColorMatrix in="SourceAlpha" type="matrix" values="0 0 0 0 0 0 0 0 0 0 0 0 0 0 0 0 0 0 127 0" result="hardAlpha"/>
<feOffset dy="2"/>
<feComposite in2="hardAlpha" operator="out"/>
<feColorMatrix type="matrix" values="0 0 0 0 0 0 0 0 0 0 0 0 0 0 0 0 0 0 0.5 0"/>
<feBlend mode="normal" in2="BackgroundImageFix" result="effect1_dropShadow_6063_100797"/>
<feBlend mode="normal" in="SourceGraphic" in2="effect1_dropShadow_6063_100797" result="shape"/>
<feColorMatrix in="SourceAlpha" type="matrix" values="0 0 0 0 0 0 0 0 0 0 0 0 0 0 0 0 0 0 127 0" result="hardAlpha"/>
<feOffset dy="1.6"/>
<feComposite in2="hardAlpha" operator="arithmetic" k2="-1" k3="1"/>
<feColorMatrix type="matrix" values="0 0 0 0 0 0 0 0 0 0 0 0 0 0 0 0 0 0 0.12 0"/>
<feBlend mode="normal" in2="shape" result="effect2_innerShadow_6063_100797"/>
<feColorMatrix in="SourceAlpha" type="matrix" values="0 0 0 0 0 0 0 0 0 0 0 0 0 0 0 0 0 0 127 0" result="hardAlpha"/>
<feOffset dy="-2"/>
<feComposite in2="hardAlpha" operator="arithmetic" k2="-1" k3="1"/>
<feColorMatrix type="matrix" values="0 0 0 0 0 0 0 0 0 0 0 0 0 0 0 0 0 0 0.13 0"/>
<feBlend mode="normal" in2="effect2_innerShadow_6063_100797" result="effect3_innerShadow_6063_100797"/>
</filter>
</defs>
</svg>
