<svg xmlns="http://www.w3.org/2000/svg" viewBox="0 0 44.22 61.51">
  <g>
    <path d="M42.44,54.93,32.05,59c5.17,0,5.76.08,7-.34a5.51,5.51,0,0,0,3.43-3.75Z" />
    <path d="M42.45,5.59,32.06,1.51c5.17,0,5.76-.09,7,.33a5.51,5.51,0,0,1,3.43,3.75Z" />
    <path d="M1.65,5.59,12,1.51c-5.17,0-5.76-.09-7,.33A5.49,5.49,0,0,0,1.64,5.59Z" />
    <path d="M1.62,54.92,12,59c-5.17,0-5.76.09-7-.33a5.5,5.5,0,0,1-3.42-3.75Z" />
    <polygon points="42.63 11.4 42.64 49.14 22.07 57.19 1.5 49.12 1.5 11.4 22.1 3.32 42.63 11.4" />
  </g>
</svg>